<mxfile host="app.diagrams.net" agent="Mozilla/5.0 (Windows NT 10.0; Win64; x64) AppleWebKit/537.36 (KHTML, like Gecko) Chrome/135.0.0.0 Safari/537.36" version="26.2.14">
  <diagram name="Página-1" id="-SXD4-UFTzyQYYfyO5B2">
    <mxGraphModel dx="1565" dy="596" grid="1" gridSize="10" guides="1" tooltips="1" connect="1" arrows="1" fold="1" page="1" pageScale="1" pageWidth="827" pageHeight="1169" math="0" shadow="0">
      <root>
        <mxCell id="0" />
        <mxCell id="1" parent="0" />
        <mxCell id="ZkPj7TUWvddiGfsGReq6-2" value="" style="points=[[0.35,0,0],[0.98,0.51,0],[1,0.71,0],[0.67,1,0],[0,0.795,0],[0,0.65,0]];verticalLabelPosition=bottom;sketch=0;html=1;verticalAlign=top;aspect=fixed;align=center;pointerEvents=1;shape=mxgraph.cisco19.user;fillColor=#005073;strokeColor=none;" parent="1" vertex="1">
          <mxGeometry x="379" y="40" width="70" height="70" as="geometry" />
        </mxCell>
        <mxCell id="ZkPj7TUWvddiGfsGReq6-3" value="usuário" style="text;html=1;align=center;verticalAlign=middle;resizable=0;points=[];autosize=1;strokeColor=none;fillColor=none;" parent="1" vertex="1">
          <mxGeometry x="384" y="110" width="60" height="30" as="geometry" />
        </mxCell>
        <mxCell id="LdnNAvaEIZMJv-9Lfsk6-2" value="" style="rounded=0;whiteSpace=wrap;html=1;" vertex="1" parent="1">
          <mxGeometry x="120" y="160" width="610" height="480" as="geometry" />
        </mxCell>
        <mxCell id="LdnNAvaEIZMJv-9Lfsk6-1" value="" style="image;sketch=0;aspect=fixed;html=1;points=[];align=center;fontSize=12;image=img/lib/mscae/Docker.svg;" vertex="1" parent="1">
          <mxGeometry x="214" y="130" width="62.2" height="51" as="geometry" />
        </mxCell>
        <mxCell id="LdnNAvaEIZMJv-9Lfsk6-5" value="" style="shape=image;html=1;verticalAlign=top;verticalLabelPosition=bottom;labelBackgroundColor=#ffffff;imageAspect=0;aspect=fixed;image=https://cdn1.iconfinder.com/data/icons/hawcons/32/700045-icon-86-document-file-php-128.png" vertex="1" parent="1">
          <mxGeometry x="260" y="220" width="60" height="60" as="geometry" />
        </mxCell>
        <mxCell id="LdnNAvaEIZMJv-9Lfsk6-6" value="Apache (porta 80)" style="text;html=1;align=center;verticalAlign=middle;resizable=0;points=[];autosize=1;strokeColor=none;fillColor=none;" vertex="1" parent="1">
          <mxGeometry x="230" y="270" width="120" height="30" as="geometry" />
        </mxCell>
        <mxCell id="LdnNAvaEIZMJv-9Lfsk6-7" value="MySQL DB &#xa;instance" style="sketch=0;outlineConnect=0;fontColor=#232F3E;gradientColor=none;strokeColor=#232F3E;fillColor=#ffffff;dashed=0;verticalLabelPosition=bottom;verticalAlign=top;align=center;html=1;fontSize=12;fontStyle=0;aspect=fixed;shape=mxgraph.aws4.resourceIcon;resIcon=mxgraph.aws4.mysql_db_instance;" vertex="1" parent="1">
          <mxGeometry x="550" y="210" width="60" height="60" as="geometry" />
        </mxCell>
        <mxCell id="LdnNAvaEIZMJv-9Lfsk6-8" value="Porta 3306" style="text;html=1;align=center;verticalAlign=middle;resizable=0;points=[];autosize=1;strokeColor=none;fillColor=none;" vertex="1" parent="1">
          <mxGeometry x="540" y="300" width="80" height="30" as="geometry" />
        </mxCell>
        <mxCell id="LdnNAvaEIZMJv-9Lfsk6-9" value="Tomcat (porta 8080)" style="shape=rectangle" vertex="1" parent="1">
          <mxGeometry x="239" y="430" width="140" height="60" as="geometry" />
        </mxCell>
        <mxCell id="a-qKe-hOCMTop-cz09pO-1" value="" style="shape=image;verticalLabelPosition=bottom;labelBackgroundColor=default;verticalAlign=top;aspect=fixed;imageAspect=0;image=data:image/png,iVBORw0KGgoAAAANSUhEUgAACgAAAAKzCAYAAADS5VRkAAAABGdBTUEAALGPC/xhBQAAACBjSFJNAAB6JgAAgIQAAPoAAACA6AAAdTAAAOpgAAA6mAAAF3CculE8AAAABmJLR0QA/wD/AP+gvaeTAAAAB3RJTUUH6AcNCjYtt91/VAAAgABJREFUeNrs3Xm8nVddL/7PevbJ2CFDW1pKaXOSQKUpTU5CW9uclIhlKEObAkHAEUGqwlV/ihNXpTiPV0S5iAUZBIEUkElRLmpsEipgmrQSEWyTFJEypnOmc86zfn+kzB0ynGHvfd7v16u0ZNhnr8937fU8+5zvXisBAAAAAAAAAAAAAAAAAAAAAAAAAAAAAAAAAAAAAAAAAAAAAAAAAAAAAAAAAAAAAAAAAAAAAAAAAAAAAAAAAAAAAAAAAAAAAAAAAAAAAAAAAAAAAAAAAAAAAAAAAAAAAAAAAAAAJtuG9R0hAAAAAAAAAAAAHJlGBEy1eRn5ESkAAAAAAAAAAAAcGQ2ATLmSPHX+Oy+/RBIAAAAAAAAAAACHTwMg3eBhKc3PigEAAAAAAAAAAODwaQCkGzwsyeUnveVZF4oCAAAAAAAAAADg8GgApBs8LEkZGxv7DVEAAAAAAAAAAAAcHg2ATKkFG9bPSzI/SdJm7YLXP+1cqQAAAAAAAAAAADw0DYBMqbYdW/K1/y4DdUbGZr5GKgAAAAAAAAAAAA9NAyBTPAPHFn/9vwdKysF2zQmve97JggEAAAAAAAAAAHhwGgCZWqV8vQGwdpLUlIGy79WCAQAAAAAAAAAAeHAaAJlSJTn7W2Zjk+Rgnp0N62dKBwAAAAAAAAAA4IFpAGRq1Zz/7TOytHXGgjtHf1M4AAAAAAAAAAAAD0wDIFPm5PddfkKSc77512rn0L/LSPuS1BQpAQAAAAAAAAAA3D8NgEyZ0f15XJLOt/xi576ev9HMXfDGy39eSgAAAAAAAAAAAPdPAyBTpqRc9J0zsn7jvw80L5cSAAAAAAAAAADA/dMAyJSppaz7jl/sfOPU3zJS581//eU/LSkAAAAAAAAAAIDvpAGQKbHw3c88I8njvv3X67fNyDJSXiEtAAAAAAAAAACA76QBkCnRtu2zk5Rv//Xybb9SRrJgwRuueInEAAAAAAAAAAAAvpUGQKZErXnO/f56535+8WBeKTEAAAAAAAAAAIBvpQGQSXfiu664sCQXHe6MLCM5acEbrvxxyQEAAAAAAAAAAHyDBkAmf9K15Vce8DdL7udg4CQH669LDgAAAAAAAAAA4Bs0ADKpFmy44rFJnnaks7KM1FPmX3PFCyQIAAAAAAAAAABwiAZAJlVNeUXuf4+/b/yZzv3/ehnLH0gQAAAAAAAAAADgEA2ATJoF77ziqUme9VB/rjxAe2A5mJPmv+HKn5UkAAAAAAAAAADAQ+zEBuNl4VsvO7GdOeuTSR75kJPyzpqy7wF+c0b27jlp5ol5zrVjUgUAAAAAAAAAAKYzOwAyKcZmzPqdHEbzX5Kk8yB9qSOZu+Dug78jUQAAAAAAAAAAYLqzAyATbsE7r3hGLeW9OcyG07I3KXfVB/z9OlAO3j7njnl5wcb90gUAAAAAAAAAAKYrOwAyoU56x5WPqaX81ZHMtVrqg/5+Ga0zF7TzXiddAAAAAAAAAABgOrMDIBPmhPdceVJntH4syZIj+osHkub2B28CrJ0yNmfB2Gmff/4HviJpAAAAAAAAAABgOrIDIBNjw/qZndH6NznS5r/ksNpSy1jt7Lu3ebOgAQAAAAAAAACA6UoDIONvw/qZ8zOyIcmaiZyV5UAum/e671sicAAAAAAAAAAAYDrSAMi4OmPD+jnzcvB9Sa446gc53IOp25ROOfDXUgcAAAAAAAAAAKYjDYCMm9M/8Iy592Tk/SXlKcf0QOUI/uyBesHCN17+ROkDAAAAAAAAAADTjQZAxsXJ77v8hL37On+X5NJjfrAjaQCsSfaXt6gAAAAAAAAAAAAw3XREwLE6ZcP600bH6oeTXDQuD1iScu8R/Pk2x8999rKRfe//1CbVAAAAAAAAAAAAposiAo7FvHesW1KafCjJo8bzcZsv12Ts8P98HciB2zunLsxVf7FXVQAAAAAAAAAAgOnAEcActRM3rLugNLk+49z8lyT1CFtTy2hmLex80VHAAAAAAAAAAADAtKEBkKOy4J1XPKNJ/jnJKRPyBY5mb8r9eeYJf3Hlo1UHAAAAAAAAAACYDjQAcsTmX3vFC2op70kyd8K+SDmKDsA2ZUZb361CAAAAAAAAAADAdKABkCMy751X/GJq+cskAxP6hUo9ur93sJ477/WXr1cpAAAAAAAAAACg3w2IgMPyz2sH5n95/p8neeGkfL2mJDm6JsDmYHldat6VcpQPAAAAAAAAAAAA0APsAMhDOvUtTzpu/pfn/00mq/kvSZqj790ro1mw4PVXvknlAAAAAAAAAACAflZEwIM54T1XntQZre9PcvGkTsx7knJPPaaZXU4Yu/SrP/LBf1RFAAAAAAAAAACgH2kA5AHNe8e6JaXJ3ydZOukT896acvcxPsiM3Lln5OCp+akPHVBNAAAAAAAAAACg3zgCmPs1b8O6VaXJlkxB81+SpIxDb+pI5i2cNeufVRMAAAAAAAAAAOhHHRHw7RZce8WapPx9kpOm6jmUsaTsH4cHGssjZz/z0bP3f+AzjgIGAAAAAAAAAAD6iiOA+RYLN1z5lDb13UnmTukTOZA0t9fxeawmNXPKU/a88L0fVmEAAAAAAAAAAKBfOAKYr5t/7ZVXjKX9m0x181+SUur4PVibkn31bxe+9YpzVBkAAAAAAAAAAOgXGgBJkix457ofSK3vKimzu+H51PHem7LNQO7Kx0//62ecrNoAAAAAAAAAAEA/0ABIFrzzypfUkjcnGeiaJ1Um4HTq0Ry3/65mW66+ekDVAQAAAAAAAACAXqcBcJqb984rfrGW+mddNxfKBD3uwZyx8PTtm1UeAAAAAAAAAADodRoAp6uasuDaK/+glPK7Xfn8Sp24x95fL1x4zboNJgEAAAAAAAAAANDLOiKYhmrKgg1Xvram/lT3PsmScu8EPvxYls151jnNvvf/50YTAgAAAAAAAAAA6EUaAKebmjL/XVf8aZKf6PanOqENgEkyWh8/51mPuWPf+//zYyYGAAAAAAAAAADQaxwBPJ3UlPnXrnt1anlJ1z/Xct8/E5tHsr/+8fw3XPFDJgcAAAAAAAAAANBrNABOF19r/kteKoxv0qY0+/KmeW9Y9yxhAAAAAAAAAAAAvUQD4HRQU+ZvWPcn6bXmv8manW1Ks7duWPj6y59isgAAAAAAAAAAAL1CA2C/qynz33XFq1Lyv3rvqU+eUtNkf/ngwjdfeZFJAwAAAAAAAAAA9AINgP3sa81/tfxULz79Mtmzs02n3ls3Lnj90841eQAAAAAAAAAAgG6nAbCPzd+w7v/0avPfIWXyv+JonVkODnxs/hvXLTKDAAAAAAAAAACAbqYBsE/N23DF76TkZ3p5DLVM0Rcezdxmb/3kwmueeYaZBAAAAAAAAAAAdCsNgH1owbVX/kFJ+SWz8xiM5biMjO049S1XPsyMAgAAAAAAAAAAupEGwD4zf8OVv1ZrfVk/jKWkTu0TGM2JI/e0nz79dc842cwCAAAAAAAAAAC6jQbAPrJgw7qXJvWV/TKe2g2zczTz9411/nPBhkvnmWEAAAAAAAAAAEA30QDYJ+Zfe8UP1eRP+mtUpTuexWg9qXz1uE/nNeuPN9MAAAAAAAAAAIBuoQGwD8zfcMWVqeUNfVfPbhrNSE5d2Bn5VP7usllmHAAAAAAAAAAA0A00APa4hRuufEpS3pFkoO8GV7rs+RysZyz47Kz/yNVXD5h5AAAAAAAAAADAVNMA2MNOfMczz29Tr00yUxqToxysixeetv0/Ur12AAAAAAAAAACAqaWJqUeduOHypU3TfiDJ8X07yFK783kdrI9a8BeX32AWAgAAAAAAAAAAU0kDYA86+e2Xn96k+X9JTu3ncdbSvc+tHCjLF/zFuo1mIwAAAAAAAAAAMFU0APaYhW+97MTRTvO3SRb1+1hLSnc/v/318QuuueJDZiUAAAAAAAAAADAVNAD2kg3rZ7YzZ707yYrpMNya2vXPsezLUxa+7vJ3m5wAAAAAAAAAAMBk0wDYK66+ullQRv4qyaXTZcillN54ogfKMxf+xbo3mKQAAAAAAAAAAMBk0gDYIxY8Zvvv1JrnTKcx19JDT3Z//dEF11zxajMVAAAAAAAAAACYLB0RdL95G9a9OCW/O93GXdqk7Ouh5zuaC+c865xm3/v/c6NZCwAAAAAAAAAATDQNgF3uxHde8eSmlLdlOu7WONZbDYBJUkfq4+c86+yv7n//pz9u9gIAAAAAAAAAABOpiKB7LXzXM5a1bWdLknnTcnKOJOWrtfeeeJM6Ors+/64Xvf8dZjEAAAAAAAAAADBRGhF0p5Pf/cyHt23n7zJNm/+SpPZqe2qb0tlX3nbSX175BDMZAAAAAAAAAACYKBoAu9DpH3jG3NGx9oNJzpzOOZQe3p+y1DR1X/v3C97ytHPNaAAAAAAAAAAAYCJoAOw2NeXevc0bkqwURY8by4xyz8An5r/+mWeZ2AAAAAAAAAAAwHjTANhl5l975a+WUp4riSSlD8Ywmtnl4Nj2+W9cN19BAQAAAAAAAACA8aQBsIvMf+e6dUl9hST6SxnN/LK/fiqvvmyWNAAAAAAAAAAAgPGiAbBLLNxwxTkpebOafJPSR0MZyWkLZ83cpqgAAAAAAAAAAMB40WzWBU54z5UntSkfSHKiNL5J6bPxHMhjFrzuin9RWAAAAAAAAAAAYDxoAJxqr3vxjM5o/Zski4VxP/qsCbAcyCULrln3NoUFAAAAAAAAAACOlQbAKTZ/4Rf/OMkaSTyA0odD2lefv/Avr3yl4gIAAAAAAAAAAMeiiGDqLNhwxfNrit3gHkTzpSRt7cOBpY7Nadff+cIPvFuVAQAAAAAAAACAo6EBcIoseNfl59W2uT7JXGk8sObLNRnrz7HVTsZqRh53x0v+brtKAwAAAAAAAAAAR8oRwFNg3tuetqC2zXui+e8h1T5uUS1j6TRlxpbT/vKyU1QaAAAAAAAAAAA4UhoAJ9vVVzeZMeOtSZYI46GVft+jcjRzDx6cuS1XXz2g2gAAAAAAAAAAwJHQADjJ5j9m+6+V5KmSODx1OgzyYB6x8PQbNqk2AAAAAAAAAABwJDQATqIF77ziqSn5VUkcvjJdBrq/fPeC1637KxUHAAAAAAAAAAAOV0cEk2Phu595Rq35+yTHSePwlf1JxqbJWMdy3uxnPXr//vd/ZovKAwAAAAAAAAAAD8UOgJNhw/pOO9a+OcnJwjgydZqNt+xvfmf+G555pcoDAAAAAAAAAAAPRQPgJJiXg69M8gRJHLlSyvQacJvS7BvbcNJbrnyM6gMAAAAAAAAAAA+miGBizX/n5d+T0vy/OG756Cbo7TXlwDQc+EDu2lNnPiIvufYeswAAAAAAAAAAALg/dgCcQMf99eWnpjRvi+a/o1emaY/qaE5cMDCy2QQAAAAAAAAAAAAeiAbAiXL11c2MgeavkjxcGEevTOM9KsuBunzhNeveZBYAAAAAAAAAAAD3RwPgBJl/zo2/kuSJkjg2NXV6B7Cv/vC8N1z5Y2YCAAAAAAAAAADw7YoIxt/Ca6+4uK3lujj699gn6F01Ze/0zqCW0nZmjp3/las+cIMZAQAAAAAAAAAAfI0dAMfZye+7/IS2lrdE89840aNaam3atvnnvO7Fc80HAAAAAAAAAADgazQAjrPR/Z0/SbJEEuNE/98hIzlxQf3SZkEAAAAAAAAAAABfowFwHM1/57p1KfUFkhhPVQT3KQfr0Pxrrni1JAAAAAAAAAAAgMT+auPm5Ldffvpop7kpyUnSGMcJendNuVcOX9ekNnOby7/yo3/zQWEAAAAAAAAAAMD0ZgfA8VBTRjrNNdH8NwEzVI/qt2hTxva373rYNZefKgwAAAAAAAAAAJjeNACOg/nvWvfTJXmqJJgMZTSzRtrmY5IAAAAAAAAAAIDpTQPgMVr4rmcsq7X+jiQmiA0A7z+WA/WsBddc8VZJAAAAAAAAAADA9KUB8Fj889qBtu28saTMFsZEqSJ4IPvy/fNef+V6QQAAAAAAAAAAwPSkAfAYLPjSvF9Icr4kJpItAB8smeZA+1en//UzTpYGAAAAAAAAAABMPxoAj9JJ73rWd7UlvyqJCab/78HjGcus/Xc3myQBAAAAAAAAAADTjwbAo3H11c1YO/YGR/9OvOoI4Id2IN+14Jor/kwQAAAAAAAAAAAwvWgAPArzHrPt55NcLImJV4otAA8rpwP5yZPfcPn3SAIAAAAAAAAAAKYP3VVH6IQNl5/dSbMtyRxpTMIEPZCU2+0CeFgGcu+eOvO0vOTae4QBAAAAAAAAAAD9zw6AR+Lqq5tOmtdH89+k0fp3BEZz3IIZIx8SBAAAAAAAAAAATA8aAI/AvMds+9kkw5KYPE4APsK89tfhBX+57ickAQAAAAAAAAAA/U971WGa/+5nnpWxdkeS46QxiRP0YFL22AfwiDQZbeZ1zvzKD77nNmEAAAAAAAAAAED/sgPg4Rpr/yya/yad1r+j0Gag3dv+oyAAAAAAAAAAAKC/aQA8DAuuvfK5SZ4uCXrGgfqYBa9f99uCAAAAAAAAAACA/uUI4Iew8K2XndjOnPWpJKdLYwom6EhSvmofwKPSpK2zR5ff/qK//aQwAAAAAAAAAACg/9gB8CGMzZz1u9H8N3WK5r+j1qbJ6IwPCwIAAAAAAAAAAPqTBsAHceKGdReU5CpJTJ1qk8pjUg7Wh590zRWvlQQAAAAAAAAAAPQfDYAP5J/XDjTJ62REr6sHctX81zx1hSQAAAAAAAAAAKC/aG57APO+NO/nkqyQxNSy/984aFOazowPCQIAAAAAAAAAAPpLRwTfaf7b1y0qTdmQZIY0plhNyl4xHLOxHD/ryu+at/8Dn/4HYQAAAAAAAAAAQH+wA+D96ZT/k2SuIOirF/vB8tML33rFOZIAAAAAAAAAAID+oAHw28zbcOUTknqlJOg7bW3qPflbQQAAAAAAAAAAQH/QAPjN/nntQEl9lSC6SKkyGM84D2bRgtdf/nuSAAAAAAAAAACA3qcB8JvM/8r8n0jyWEl0kyKC8ba//NxJb376IwQBAAAAAAAAAAC9TQPgfU7csH5hal4hiS6j/2/8I23Tafc3jgIGAAAAAAAAAIAepwHwPp2M/E6SkyTRZZwAPCHKgbJ83hue8UJJAAAAAAAAAABA77K/WpL5G9atSPJvSTrS6DI1ab6oC3BCDJR9e0YPLMhPfeiAMAAAAAAAAAAAoPfYAfCQV0XzH9PNaJ2zcPbstwsCAAAAAAAAAAB607RvAFxw7ZXPTfJ4U6FL2aNyYh1s1y184zO/WxAAAAAAAAAAANB7pncD4Ib1M2utv2UaMG21KXX/2LsFAQAAAAAAAAAAvWdaNwDOz+hLkyw2DbqcXQAnNt6RnL7w9et+QxIAAAAAAAAAANBbpm1r1fy/WTc/I7k5yUmmQXdrvliTKoeJDTmjo7NnnnrXi67dIwwAAAAAAAAAAOgN03YHwDJSXx7Nfz1SLBFMuDYDA3VkgyAAAAAAAAAAAKB3TMvWqpM2PP0RYxn4TJK5pkD3a75Uk1YOk7IaHDdj9Z4ffddHhQEAAAAAAAAAAN1vWu4AOFYGfiua/+Bb1aQeHHm7IAAAAAAAAAAAoDdMuwbABRuueGxqflDpe4kzgCct6YM5c+Hr1/20JAAAAAAAAAAAoPtNuwbANvn9TNOdD3tWqTKYTAfq7+bVl80SBAAAAAAAAAAAdLdp1Qg3/9p1a0vKU5QdHsRYZi+YPfNNggAAAAAAAAAAgO42fRoAa0pq/kDJ4aGVg/m+E1+/fqkkAAAAAAAAAACge02bBsD5117+jCSPU/LeU4sMJl2b0hk78E5BAAAAAAAAAABA95oeDYA1JWl+Rbl7k/6/Kcr9YFl50l8+4wmSAAAAAAAAAACA7jQtGgDnX3vFuiTnK3eP0gE4NWrSHmzeKAgAAAAAAAAAAOhO/d8AWFOS8gql7uESOgN4ypSDOXPhNeteLAkAAAAAAAAAAOg+fd8AOG/DumcmWa7UPUz/39Qaze8LAQAAAAAAAAAAuk9/NwDWlFLyq8rc20qqEKbSSJ234JorflMQAAAAAAAAAADQXfq6AXDehnXrY/e/3mcHwKk3kp/PhvVzBAEAAAAAAAAAAN2jfxsAr766KSW/osS9z/5/U6+MZuaCOw9eIwkAAAAAAAAAAOgefdsAuGDZjc9J8lgl7ge2AOwK+8vzTvvLy04RBAAAAAAAAAAAdIf+bAC8+uqm1vqrytsfiv6/7qhDrc2B0VlvlgQAAAAAAAAAAHSHvmwAnL/sxnVJzlHefuEQ4G5RDtSnLHzNFY+UBAAAAAAAAAAATL2+bACstb5MafuonrYA7KJipNQZsQsgAAAAAAAAAAB0gb5rAJz/zsu/pyQXKW0fqXYA7CblQF0773Xft0QSAAAAAAAAAAAwtfquAbCU5heVtd+KKoKuUktpyn67AAIAAAAAAAAAwBTrqwbA+e+4cnlNnqSs/aU4Arj7anIwFy986xXnSAIAAAAAAAAAAKZOXzUA1tL+UuwX13dqHAHcddqU3FvfJAgAAAAAAAAAAJg6fdMsN2/DMwZLOp9JMqCsfTZJ70zKPk2A3aYm6RxXz//KC9//b9IAAAAAAAAAAIDJ1z87ANbOy6L5rz8VzX9dWZYkY6PN6yUBAAAAAAAAAABToy92ADz+PVc+bGC07k4yR0n7T3NXTfbKoRvVJAMnlKEvv+C926UBAAAAAAAAAACTqy92AOyM5aej+a9v1SKDblWSjI3kzyUBAAAAAAAAAACTr+dbq07/wDPm7t3X+e8kC5WzTyfpXTXFDoDdq0kdHRg4+64ff/d/CQMAAAAAAAAAACZPz+8AeO++zg9E819/K7YA7GptSqcZ+wtBAAAAAAAAAADA5Or5BsCS8hJl7G/a/3qgRgfax5/05vWPkAQAAAAAAAAAAEyenm4AnP/Oy78nqecpY3+rOgB7oUilPXDwdYIAAAAAAAAAAIDJ09s7AJbO/1LC6aCKoBccLJed8fr1juMGAAAAAAAAAIBJ0rMNgAs2POPMpD5DCaE7lLY2e+vIn0sCAAAAAAAAAAAmR+/uAFg7L0kyoITQRQ7WZ+Y1648XBAAAAAAAAAAATLyebAA8Y8P6ObXkhcoHXWYsnYUzD/6xIAAAAAAAAAAAYOL1ZAPg3eXg9yc5SfmmiVJk0EtG6g+k9vDuogAAAAAAAAAA0CN6skmn1PJSpZtOqgh6yWiZveCNl79MEAAAAAAAAAAAMLF6rgFw/oYrH59kudJNJ3YA7Dn7owEQAAAAAAAAAAAmWM81ANba/riyTTP6/3qvZKPllJPf9MynSQIAAAAAAAAAACZOTzUAnvCeK09KyTplm24cAdyL2gPtH0gBAAAAAAAAAAAmTk81AHbG6g+WlNnKNs1UWwD2pIP1MQte/7RzBQEAAAAAAAAAABOjt44ArvkRJZuGih0Ae1JN0g68WhAAAAAAAAAAADAxeqYB8MR3XXFhkuVKNv3U2AGwZx3I4+f93+cvEAQAAAAAAAAAAIy/nmkA7NS8ULmmJ+1/PVy7mqYzY+8fSwIAAAAAAAAAAMZfTzQAnrJh/fG1lucqF/Sgkfb7hAAAAAAAAAAAAOOvJxoAD2bk+5KcoFzTVKky6GWjZfaC11/xk4IAAAAAAAAAAIDx1StHADv+d1pzCHDPGyu/IAQAAAAAAAAAABhfXd8AeNK7nvVdJblIqaB3lQP1rPl//vTlkgAAAAAAAAAAgPHT9Q2AY+3YjynT9FYdAdwfi03T+UMpAAAAAAAAAADA+Onus1U3rJ85PyOfS3KKUk1j+5PmDk2APa/J6J724PH5qQ8dEAYAAAAAAAAAABy7rt4BcH4OPCWa/6ia//pCm4EFc2e8QhAAAAAAAAAAADA+uroBsNbyPCWilCKEfjFSHOkNAAAAAAAAAADjpGsbAE99y5OOK6U8Q4mgf5SRnLzwDeueJAkAAAAAAAAAADh2XdsAeHDW3CuTHKdEJI4A7ittfksIAAAAAAAAAABw7Lq2AbCW+lzlgT50oF017/8+f4EgAAAAAAAAAADg2HRlA+AJf/2Mk5PimFCSJLUUIfSTtpRmxj12AQQAAAAAAAAAgGPUlQ2AAzOa5ySZoTwc4gjgvjPafJ8QAAAAAAAAAADg2HRlA2Ct5XlKwzfYAbDvKjpSF85/47q1kgAAAAAAAAAAgKPXdQ2AC99+xSOTrFYavsYJwH1a15G8QgoAAAAAAAAAAHD0uq4BcKzJ82PLN76FI4D7UTlYh/O6FzvqGwAAAAAAAAAAjlLXNQCW4vhfvk3VD9qX2gwsmPGF/08QAAAAAAAAAABwdLqqAXDhhivOSbJcWfgW+v/614Hyk0IAAAAAAAAAAICj01UNgG2aZysJ384BwH1sJGfNu+YZg4IAAAAAAAAAAIAj12VHANd1SgLTR0nSSfM7kgAAAAAAAAAAgCPXNQ2A89/9zLOSrFASvkOxB2BfG8nThQAAAAAAAAAAAEeue3YAbNsrc2hDMPg2pkVfG81x8/5i3XMEAQAAAAAAAAAAR6Z7GgBr1ikH90f7X//r1PZlUgAAAAAAAAAAgCPTFQ2AJ7znypOSrFYOmJ7qaFmZ1714hiQAAAAAAAAAAODwdUUDYGckVyQZUA7uV6ky6PcSj6WzsPnSSyQBAAAAAAAAAACHrzuOAC51nVLwQGp1CPC00ObFQgAAAAAAAAAAgMM35Q2Ap3/gGXOTfK9SwDQ3Ur8rb7j8BEEAAAAAAAAAAMDhmfIGwHv3di5LMlcpeEA2AJwe2pQFbflFQQAAAAAAAAAAwOGZ8gbAknqlMgBJkrH8oBAAAAAAAAAAAODwTG0D4OtePCOlPFUZeHBVBNPFwZx58tufe7ogAAAAAAAAAADgoU1pA+C8BV9ek2SBMvBgSnEG8LSpdZL23n2/JgkAAAAAAAAAAHhozdR+8fYpSgB8szpSnikFAAAAAAAAAAB4aFPaAFjTPFkJeOh5wnRSRuspC9/0jGWSAAAAAAAAAACABzdlDYCnbFh/WlIfqwTAt6hJRopjgAEAAAAAAAAA4CFMWQPgSB19cpKiBDwks2T6GSlPEgIAAAAAAAAAADy4KWsArE11/C+HOVlEMO2MZv6CtzztXEEAAAAAAAAAAMADm5oGwKuvbkrN94ofeED7Z/yCEAAAAAAAAAAA4IFNSQPgvHNvWJnkYeLncBRHAE9PY/UyIQAAAAAAAAAAwAObkgbApu04/pfD5gTg6amM5OR51zxjUBIAAAAAAAAAAHD/pqQBsKZqAAQe0kAaxwADAAAAAAAAAMADmPQGwJPfd/kJSb5b9MBDacfKFVIAAAAAAAAAAID7N+kNgKP7m+9NMkP0HLYigmnrYH34w665/FRBAAAAAAAAAADAdxqY7C9Ym/rkUnV0AQ+tJDnY5OeTvEwaAAAAAAAwPSxaufr7mpSras1YktTkrlIO/Xdq7sp9v56m3FVqHWtr9qVkf5J9pWR/avalZn9p7vt3LfvS1P0jtezLQN1f2rKvHqz72+PH9n/u+uv3Sfybsl+7dnb71dE5STKjtDNGZjXHf+33SlvmD9RDP+hta3NcSTszScZSZzS1fP3PpcmCr/+dlOPaWmce+u86s6Qc9y1fsKbUZP5DPrFSm5Qy76H+WK3plOTEh3y4kk6tGUhy4Jt+dW9KPfCN517vrTV31zT3JPXOJuWumnpPW3JPp+busabsGRsd/eK80bu+vGPHjoNmDwAwVSa9E2/+hnX/lWSp6DlsNWm+WOUwXcs/q9x6+1XvXSQJAAAAAADof4uXDz+6lvxbSk6YxC87kuSepLSp9c4kKSV31KQmuTvJ6Nebw9p6ICl702S01Nz9tQeoyT310OMkSZqau2uT0a//fj3UrPjtX7g2tSm5v8a2OrPWb2uWy6GGupJDDXXf+NrluNSv/9r8NCnf1gg3K8nc+x7g+LT3ndZWMj9JSc3AJOfdj25P8sUkXz707/KFmvq5lLo7pewuB0Z27/rkx74oJibb0uWrl42V8v77XvN3Jdmf5J5Scs+hBtfc0yR3JbmjlnpPbXN3Uw41vaa2d9amc2CsU++ZkWZkZH97zwntwMiOHRvvkezRO/W8Jx03q+79+jrezB6Y1WZ07tf+/8BI0ylN+y2NzLV+o7H6GxeEemJtS+ehv2KZl6Y+9OmgbT0xTbnr0ENntN53jaspI02p95Ta7B1tcntz8MCehbNG92zdunVENaF7TGoD4MnvfubDR8faz4udI6IBcHprUtvjysI7XvDeO4QBAAAAAAB9rRkcGr4uyWpR0If2lmR3LdmVWnfW5D+S5lMjMw588n8+/vGviofxtmjF2vmljN6Y5MwJePj7Gqczkpp70tz37/t+vSQjteQ7GwXrNxqtv11J7kjJdzQGfHuD9bf8nVo6pdSH3PWzJgOpD97oXJo6s37zLqU1Jd++Q2nNCSnfOGmzJrNLzZxvekJNvrOp+8Qknb6bYDV3p2RPSt2TWr6Y1M8l5dYkt6bU3aWUW3cufvj/5Nprx7waYeJN6hHAY219vMiBI9KmNKP5mSRXCwMAAAAAAPrX4MrVP5mq+Y++Nbcm56TmnKTct1NPzcyRmRkcGv5yKflkTT5VavlkW9ptOXHG9t0bN+4XG0eraUb+uNZy5gQ9/Izkvl3pSh727W179ev/8+3qA25T9WBbAj3gzlal5rC3EnqI7bHuO+H8iB6jfMevlekzwQ7tHHtCajnrO8ZeS2pNBm++bTRDqz+X0nymtHV7bcq/J7lpYdn7KTsIwni/JCfRvHeue00p+Umxc2Rqmi9IYVqblf/cc9X7HiMIAAAAAADoT0uH1pwylvpfSeZJA5IkoyX5TE221pqtTSdb5+y//eM7duw4KBoeyuCK1U9MKR+WBF1qJMmnUutNSW5sS91ycnPg3zQFwtGb1AbA+RvW/XuSc8XOEXEEsCnQpL39Je+bkZJWGgAAAAAA0H8WD615bU39cUnAg9qb5PokG0uTjRoCuV/r13cGb7lte6reDHpufdtWks1JPtLOG9hsF1Q4fJPWAHjihvULm4x8OUkjdo6IBkCS1OPb59/+ox94uyQAAAAAAKC/LDnv4nPbTrMtyYA04IjsTfLRlGxs2rLxlked9q+59toxsUxvi4ZW/3hJea0k6HH7k3wsJf9vrJa/+ey2Tf8hEnhgk9YAOP/aK69Ire8VOUdMAyBJMqf8454fe++lggAAAAAAgP4yODT890meLAk4Zren5CNJPpKDI+/b9cmPfVEk08vpq1bNndXO2ZnkVGnQZz6Vmve0nfKeW7duukEc8K0mrwHwnev+MCU/J3KORvMFDYDT3ozcs+cn3neCIAAAAAAAoH+cNbT6sibl7yQB4240yZbU+sG0+cCum7Z8WiT9b9HK1T9TavljSdDndiV5T1Ob99yy/brrk2goYdqbvAbADes+nuR8kXM0NACSJDmxPXfPj3xghyAAAAAAAKAPrF/fWXzzbTfV5BxhwIS7sSZvL2nfsWvbR28VR/9ZuvSyWe0Jd99Sk0dIg2nkv0rJX6fkL3du3fxZcTBdTUoD4Ckb1h8/kpHbkwyInKOhAZAkydx6zZ4Xvf/FggAAAAAAgN63eMXq76+lvFUSMLlK8h9t8pbalLfcunXTbRLpD4Mr1rwopV4jCaap0VLzgbaUP9m9bdO/iIPpppmML3KwjFwczX/AMV+ym6cIAQAAAAAA+kKTUl4uBph8NTmnJL/btPW/Fw8N/92iFWvWrV271s/ze35VbX9SCExjA7XkypK6cXDl6hsGh4Z/aNWqVTPEwvS5sZ4Epc0aUQPHbLSekT/4weMEAQAAAAAAvW3x0JorHf0LU65Tk8tKqX9z652jnx1cMfybZ513yaBYes9ZQxdflFqGJAHJfa+FN+9p59y8aMXwTy9au3a2UOh3k9IAmFIuETVwzNqUhQvucgQwAAAAAAD0uJr6v6QAXeXhKfnfTae9eXBo+O8XrVizLpPVT8AxK2leJAX4DmeWkleVO0c/s2ho9Y/b6ZT+vg5MtL+7bNa8e2beUVJ01HLUmi/WpMqBJLPqJ/Zc9f4LBAEAAAAAAL3prJWXPKap7Y5Mxs8qgaNXs7Mmrz7Y2XfN57du3SuQLrV+fWfw5tu+kORkYcCDKPl02vzqru2brxUG/WbCO/YX3jVnSPMfMG7vM0aa5VIAAAAAAIDe1dT2RdH8B92vZHEpedWsds7uxSuHr146tOYUoXSfxTtvuyia/+Ch1Zydkg2Lhlb/41krL3mMQOir++uJ/gJtpz1fzMC4vc9o68yT3vT075UEAAAAAAD0rKeLAHrKKbXmFWOptw6uHH7NkvMveaRIukc7Fj87hSNQUp7Q1Hb74NDwbyxau9aGZvSFZhK+xioxA+OpHmxeLAUAAAAAAOg9i1asXZTk0ZKAnjQnNT/ZjrafGRwa/pNF5689TSRTr5QyKAU4YjOT/Eq5c+zfB1euXiMOet3ENwDW2AEQGN9lpZZhKQAAAAAAQA8qY2cJAXre7CQ/VUZHb1m8Yvj3HnHBBSeJZCrX1TxcCHC06tLU8s+LhoZ/Z9myZTPlQe9eCibQKRvWHz+SkTuSdETNsWi+WJMqB742IVL3PGzm7Dzn2oPCAAAAAACA3nH6qlVzZ7dzLk5yZkrOTOpZbc2ZJeWRSc5MMktK0GNq7q7JHx3s7PuDz2/dulcgk2twaPiPkvysJODYlOSGOlafv+umLZ+WBj04fyfO/A1XPj6pG8XMsdIAyLdr5+RH7/ix971REgAAAAAA0D/OfOzwghkzsritWVaSc2rJ4tQsTvKYJHMlBN2rJP9Tk5fv2rb5r+Knu5Nm1apVM24fO25R27RLSurS0jZLaurSlCxJsjgaq+FI3FVr+aHd2ze9TxT02DV44sy/dt3PpeYPxcyxar5Uk1YOfJPZ5f/tefF7nyQIAAAAAACYHh45tPr0gVJW1ZpzSrIsyTk59O/Z0oFuUj5RS/tTu2/Y8q+ymHpfb6xus7g0WVaTc+5rrF6aZJ6E4DvUkvz+zm2bXx6dKvTKlXciH3zeO694eynluWLmWNkBkO+44s7I7bf/xPsWSgIAAAAAAKavZcuWzdw7c8FjSsnKWsvKJKuSujx2CxxvB2vy30m9taT571Jze1tye0luT8ntpc3tJbkjTd2fJCOd3P7Nf3nmaLk7Y51ZB2eNzkySGQfauRloDu1K1pbZtdQ5SZJaZtXUuUlSm7qwabOwNs3C1Lqg1CysJQuTLEiy8L5/1Ll7tUne2Iy1L7/lpo9+SRzdacl5Fz8szcDSsdRHl6Z9VFIelZpHJXlUkuMkxHRWk/dk3sD37964cb806HYTfATwuv/Koa5xOCZ2AOT+Vq8ZA/tO/eJPfNgbBgAAAAAA4OvWrl078Nm728e0Y3VVSX1cKfmeemi3QA7PWGr+rST/0jb1hprOTbcuOfUzufbasW57okuXXjZrZN49C5u2PqyUPLJNfUSpzSOSnJnUM3Lo+NMzk3SUdaqUr6bkZ3bdsOmtsugtZyy/6BEDpfOoppTHJDmv1npuSs5NMl86x+xgknsf4PdOSDIgom5Rr6t1xhW7t2+8QxZ09dV2oh543tuetqDMmPHVTHCTIdODHQC530vtnPzK7T/2vt+SBAAAAAAA8GAWnb/2tGZ09Htqyfek5ulJHi6Vb9GWkn+pNW8szez379z6kTv7ZWCrVq2acfvYcYvGytjSpmRJ2vJdpck5teaxSU5W+slRU/6uM1B+/JZPXPff0uhtS86/5JGjo2PndpLvriXPSC1D0356J/+Z5H+S8j9J/e+UfKHU7GlL2dO0Y3uaTvY0mXnnaAZGjmR9Xbzq0nmjB/c3bTtWmrmd+QNtc1w71p5USjm5pj25pJxcajmplnpSklNyqOl5UZKZZuo4KvlkW8qTbt266TZh0L3TdILM23DlE0vqh0XMeLADIPdrdvnEnhe/9wJBAAAAAAAAh239+s6SW774+La2z0/yzBw6UnY621dKnrPzhs0fnG4DHzz3wlPLjJnntqV9bEnzuKQ+LjWPjk1uJspdNfUXd2/b8rrY/qVvLF41fGZb6zNLbV6S1Ol2QuTn2qZccevWTTd00zVu8Ob/OaMpA0vati6upS4pJUtSsyKHTvC0vh2d/8zIyNpdn/zYF0VBN5qwF/aCa9f9cq35bREzHjQAcr8Gsm/PT75vriAAAAAAAICjsXTpZbNGj7/neSn1ZSVZNg0jGGnb+uRbb9zyz2bDIYtXXTpvbHTfytKUC0qyOslwNImOt43NQPNDdgPsO82iFWsuLyUvT+r502H9bEouuuWGzVt75QkvWrF2flPGViX1/Jr6uKQ8LslZpu7hqcmOgZTvuXnbpi9Lg24zYQ2A8zese3cOfWIGjv1OQQMgD+T4LNvzo+/7D0EAAAAAAADHoFm8cviH79vg5LTpMuhSys/uvGHTHyv/Q8yNVZcsq7W9JLWsSer3xtHB42FPreWFu7dveq8o+sz69Z3FN9/20zX5zSRz+nWYtebq3ds3v7LXxzF47oWnZubMJ9ZaLyvJk6xvD+nGzsyRS27+2MfuEgVddU83UQ88f8O6W5OcKWLGZaJ+qaZoAOR+tHPy6jt+7H0/LQkAAAAAAOBYPeKCC06aOTLzz5M8u9/HWpOP7t62eTiOYj1SzeDyNY9L0z45KU9OcmGSAbEc9Tx87ejssZ/73PXX75NGf1m8fPjRtckHkjy6D4d329yDty/asWPHwX5b3xatGj6/qbms1lyW5HFJGrP525Ty4bNO7Dxt48aNo8Kga6blRDzoiRvWL2wy8lXxMm5XmS8lab334H7MzKf3/Pj7vksQAAAAAADAeBlcOfy/U/MbmcANVaZcqZfsumHLJtU+Nmc+dnhBZyDPSOozk/Kk9PGOZxPo3zttfd7NN27ZIYr+suS8ix/WDjTXpebs/hpZ/bVd27b8Rt9fC4cuPqvW5kdKyQ8nGTSjv3kK5C92bd98lSDomtu6iXjQBddesabWcp14GS+OAOaBJ0dG97z0fTMEAQAAAAAAjKdFK1f/TKmlX4/HvWnXts3LVXl8nXrek46b2+x9apJnp+TyJLOlctj2lZoX7dy++a9F0V/OOu+SwabTbk2yoE+GNJaRkUfs+uTHvjiNyljOWr56bdOUFyR5VpK5ZnZSa35m9/bNfyIJusHEbNXZNstEy/heTkTAA603GVj45isvEgQAAAAAADCedt+w5VW11n5tALxWhcffF2/68L27tm++dtf2zd9XmtmnpZYXp2ZzHLN8OObUkrctXjH8e1m/viOO/nHrTdftKslL+mhI26dZ81+S1Ftv3PLPu7Zt/qHOzJGH15qfSfLZ6T63S8nvDy5fc4FXOd1gQhoAa6kaAIHJu9sYqT8oBQAAAAAAYLwdN3LHLyX5t34bV63lk6o7sXZu/cidu7ZvumbX9s1rxgayNDW/leSLknmIuVnyC4tvvu0Di1asnS+NPno9bNv89qT2xymSJTuncy1v/tjH7tq9ffOfLGz2LU3yQ0k+M43jmJmmfaf1im7QTNDjnitaxvdOTwQ8yD3WWF0rBQAAAAAAYLzt2LHjYNuUq5K0/TSuTlPuUt3J89lPbN65a/vmX5l78PYzU/OcJB+Jn4A+oJpcVsrYJ84cWnOONPpHUzqv7I8JWvaqZrJ169aRXds2/9VZ8waWpZYXJ/nc9EyiLCpl9BozgilfYyfoce0AyDivmSLgQe6xxrJYCgAAAAAAwES4deumG2ryjn4aU61jGgCnwI4dOw7u2r752l3bNj8xyVBKeVuSUcnc7yxd2kn96FnLV3+PLPrDLTdc908l+Y/eH0k7oprfsHHjxtFd2zddc6DZd/Z9O50emIYxPHtwaM2zzQam0rg3AB7/nisfluQU0QKTpYxm1sK3XuETQAAAAAAAwIQopfxe+mnHttq5U1Wn1q5tm2/cdcOmH6h14FFJXp3ErmLfaV7TlL8fXLn6OaLok6UntfebqUs5qJLf6fNbt+7dtX3zr5TaPLam/tM0nN1/euZjhxeYCUyVcW8AHBgZs/sfMPmX0/35ISkAAAAAAAATYdcNm25Kyr/2y3jaGc3dqtoddm/fuHvXts0/nZGRxbXWP06yXyrfYmZq+etFK1dfJYo+WHvazgd7fQwlsQPgg9i5/br/2r1ty6Up9X9lejU2n9YM5A/NAKbK+B8B3DTnihWYdGPliUIAAAAAAAAmSl/sXHWf0YEDdgDsMrs++bEv7t6+5WdLk7Nr8pdJxqTydZ1Sy58PDq3+VVH0tpMH7v1kkn29fS0oGgAPI6ZdN2z5s9JmKMlN02XQJXnBkpXDq5SfqTDuDYClLXYAZAIuovAQa89Y/S4pAAAAAAAAE6WkfV+/jOVz119/QEW7086tmz+7e9vmF9Zm7Nykvk8i3/Iq/PXBoTV/monY6IhJsXXr1pEkN/b2KFpHAB/uenbj5s/UeQMXJvX102WRamv+SOWZCuN+YaylagBkApbJIgMe3GjmnvTm9Y8QBAAAAAAAMBF2bfvorTW5pQ+GMpKkVdHutnvr9f+5a9uWdbXksiSfkcjX1JcuGhp+a9av78iiZ2v4iV5+9sUOgEe2lm3cuH/Xti0/Vmt+Zppcex6/eMXqp6o8k20iOuPPESsTcBMgAh5SO3rwh6UAAAAAAABMlKbUTX0wDM0rPWT3DZv/fu7B2x9bkl9Ocq9EkpI8b9HNt71FE2Cv1q/5VC8//2oNPbq1bPvmPykpz0mPHwF9WHOklN8+tFTBJN6jjueDnfz2y09PslCsjP9NgLWRwzAWnfQAAAAAAMCEaduyvQ+G4fjKHrNjx46DO7dt/t3S5Jwk/yCRpCTPH7z5tr+M44B70Zd6+0JQrKFHaee2Te9OqU9Ock+fD3X5opXDT1ZxJtO4XgxHBppzRcrEsAMgh3GjP1qsQQAAAAAAwES6sQ/GoHmlR+3cuvmzu7Ztfkop+dEkt0skP7RoaPiaaALsKTXlyz39/JvWDoDHYNcNWzal1Kem35sAa/151WYyjeuFsDj+F5hKY3Xegg2XzhMEAAAAAAAwEQbagZv7YBgHVLK37bxh8xvrwMA5SX33dM+iJD+qCbC3tCU93QDY2AHwmO26YcumpjRXpI8b0kvKExatGr5QtZm0tWl8H64uFSkwZWpS7z7+hwQBAAAAAABMhJtv2vj59HrDQo3dq/rA7k9s/MKubVueXVOel/R2Q9WxKsmPDq4c/tND/0m3m1Wa3t4BMMUaOg5uueG6f6q1XJU+Pg6ytPlJlWayjGsDYK1ZIlJgShe1tj5FCgAAAAAAwARpk/xPT4+gOAK4n+zetukdnZRl0343wJqfHBxa80ozovvdOTJzX29PNU3U47Z+bd/0ptT8dh8P8Vlnn736BJVmMozzEcBlsUiBKb7h0ogMAAAAAABMmJrs7fEhOAK4z9y8bdOXd23b8uyUXJVM5wbP+quLVwzbcavLzVl4cKyXn3+Tqol6HO3avvnXkvx9nw7vuJHjyrNVmclZm8bL1Vc3Sc4SKRPCZs0c7lQZK6dJAQAAAAAAmCgl2dfjI9C80qd23bD5L5qSi1Ozc7pmUEtePTi0+nKzoXstSkZ7eo7ZAXC8tTOagR8svb677gPNl5ofVmImw7g1AC44Z+sZSWaJFJhSY9UWugAAAAAAwMSp2d/jIxhVxP51yw2bt5bO7JU1ec80jaCTlLcvWjV8odnQnTZu3NjTOwDWFA2A4+wzWzd+pS15UZLah8O75IzlFz1ClZlo49YAWGtx7CYTdxGttgDkMI2lmf/6Z9qNFAAAAAAAmBil13cArK0i9redWz9y5+5tm59da34m03O3srmlzQeWrLxoqdnQnYtQerjRq0lrF9UJsPuGzX+fktf3413DjE7naSrMxK9N47VCl2axOJm4JbHKgMM3o64VAgAAAAAAMDHq3h4fgAbAaTJRd2/f/Cc15YlJvjwNx39KWzvvX7Ri7XxToSv1bGNqrdUuqhOklNk/n+RL/bca5+mqy0RrxvGVqAGQiVzqRcDhz5axaktvAAAAAABggjS9fgTwmBpOH7u3bfqXsYF8d0o+PQ2H/5iS0b/KePZFMF56thG56QxoAJwgO7d+5M6kvrwPh3bp6atWzVVhJnRtGr/ludUAyASyAyCHr4zVZVIAAAAAAAAmQiltTx8BXB0BPO189hObd44cGLs4NZun3ws2T180tOZXzIKu07NNdGO1aqKeQLu2bXljSW7os2HNmTU6a1h1mUjj1gBY7ADIhN6X2QGQI3jjWrNICgAAAAAAwERoa+npBsCSogFwGvrcjuv3HOjse3Ipee90G3tJfcXiFaufahZ0lZ5touvU2AFwgi+zKXlF361DneZipWUijedWt0vEycSxAyBHcPEczSlSAAAAAAAAJkJTcrDHh2D3qmnq81u37t255OHPTuqfTreXbS3lrUtXXaynwTp07E+8aa2hE2znDZs/mOTj/TSmWqMBkIm90I3Hgyx862UnJjlJnEwYGwByJNrMyT+vHRAEAAAAAAAw3mqP7/5UEjsATmfXXju2a9uWn0qtP5/ptQvLgrG2effpq1bNNQm6Qs+uo03rCODJudaW3+6zIV2Q8d2kDb51bRqPB2lnz9ApzwSv7joAOZJFKZm388QVggAAAAAAAMZbTUZ6+vlXOwCS7Nq+5Q9LyksyvZoAl89q5/y56neF3t0BsNOxhk6C3Y867YNJdvXRkOYtOe/ic1SWiTIuDYB1rFksSiZUcQQwR6bTaR4vBQAAAAAAYLyV9PYOgCl2r+KQnds2vTa1XJXp1QT4g4uHhp+n+lOuZ9ehpsd3ge0Z1147llpe209Dqp3msQrLhK1N43OTWDQAMsEroQg4wikzllVSAAAAAAAAxlspvb2DXqnFEcB83a7tm66pNf/fdBpzTV67eNXwmao/pVXo2Sa6zliriXqSzOh03pge33X32+b9d6kqE2VcGgBLac8QJRO6DDoBmCPVungCAAAAAADjr/b47k+1VA2AfIvd2zf/SSnlZ6fRkOfVNm/NeG2YxNEsRD27Do3ZAXDSfGbrxq+k5MN9M+3TnK2qTJTxuaDV8ghRAt2k1HKqFAAAAAAAgPHW80cA12L3Kr7Dzhs2/XGSl02jIa9ZvHLNT6v8lC2kPbuONgN2AJzUqVLztv4ZjU2MmMC1aZwe5+GiZMLfSsGRaOs8IQAAAAAAAOOt9vhxhKXEDoDcr13bNv9Rrbl62ryWa/3tJeddfK7KT4mebaIbHZ2hAXASzTk48IEkB/pkOI9SUSaKBkB65J1IlQFHess4RwgAAAAAAMB46/UjgNtoAOSB7d6++ZWl1DdNk+HObjvNW5ctWzZT5Sddz+4ANDDLEcCTaceOjfckua5PhjN38apLbWTEhBivBsDTRMnEvpMSAUdoLM3Jb7j8BEEAAAAAAADjqTS93fxRenjnLSbHgrL/xUn+cZoMd/neWQt+XtU5XAdHx6yhk6yW+nd9M5jR/aeqKBPhmBsA573taQsSO20x8e9E4EiNdQbOkwIAAAAAADCeampvNwCWqnmFB7V169aRkYNjz0nJp6fJi/p/L1118RKV53B0BmbYRXWStbX5cN8sN52qAZAJccwNgJ1ZzeliZBJuuuAo7gRaDYAAAAAAAMC4Kr1+BHAtmld4SJ/bcf2eJmNPT8pXp8Fw54y1zZ+p+mQupL27BdDM1hHAk+2z2zZ9KslX+mIwtdEAyIQ45gbAsbHm4WJkwq//xRaAHM0CVR8jBAAAAAAAgG8oxRHAHJ5bbrj+5tLUdUkOTIPhPmVwxfB6VZ8ktXe3ANp/cNQaOhUzpuRj/TGQ9mTlZCIccwNgaWIHQCZlGYSjeAO7WAoAAAAAAMB4KqXHd9Br/eCNw7dz6+bNtdarpseLO69aeuGFJ6r6pGTduzsAzh3RADg1ru+HQTSlmaOUTMjcOtYHqG3sAMik3AHAEa9PYxqUAQAAAACA8dW2pbcb6BrHV3Jkdm/f8uZa88ZpMNTT25EZv67iPJi9o6PW0KlxU5/cRMxWSibm9u4YlVI0ADIJfBCJo1ifkodJAQAAAAAAGF9tb//gyg6AHIV97dz/leRT/T7OWvPSxasueayKT3TQvbsD0IL9+zUATsWla7T5ZF8MpCmzVJMJmVrH+gCl2AEQ6Na7gDJPCAAAAAAAwHgqpcd3ACxxfCVH7Is3ffjeTlvXJ9nb50Pt1Nr+jorzQHacc441dArcetN1u1Nzd6+Po63RAMiEOPYjgKsjNpl4PobEUV495wgBAAAAAAAYZz39o6taq+YVjsrNN27ZUVN/bhq8wp+2ZOUlT1Bx7te117ZCmKJXZsktvT+KqgGQCdGMw2PYARDoTm06p77lB48TBAAAAAAAMG56fAfAUormFY7a7m1b/rwmb+/3cba1/m7Su8fU9sJS1KPPeyz2L5rKafPZnh9Bk33qyEQYjwbA08SIyz9dqSYj9fbzBAEAAAAAAIyX0tbebqArVQMgx6RpZv9Ekl39Pcp6/uDQmmepNt/GDqpTq+cbANM29yojE3JtPpa/vPCtl52YxO5aTML9lQg42luwskwIAAAAAADAuCm9fgRw0cDCMdm59SN31pQXpN9/ilvr7y1btmymik9Muj36vK2fUztrPtv7Q6gaAJkQx9QAODZz4CQRMklvpOAor6DlDCEAAAAAAADjpU2vHwFsB0CO3e5tm/6llPrmvh5kyeJ9Mxe+ULUnKN1evQQwdZOmqV/p+TGUeo9KMhGaY3txlfkixPWfblZrcUw5AAAAAAAwfkrb27ue1cYOVoyLgwfan0vypX4eY019uV0A+ZYpwZRp23J7799D5G6VZCIcUwNgxjJfhLiO0tUzpzYPkwIAAAAAADBeSo//4MoOgIyXz+24fk+p9Wf7fJhn7Ju54AdUe/xXoh594tbPqb0A93wDYFvrfyskE+HYGgCbzgIRAl19D1DrQikAAAAAAADjpu3tI4Db1s4bjJ+d27e8LTUf7Ocx1pJfyLH2VvDtqfbqOmT9nNL0x+7s9SE0I2M7FZIJmVvHdndoB0AmhwOAOYaFyjoFAAAAAACMn1I0gMC3vCbalya5p2/HV3P24pWr1yn0+C6kPfrE7QA4leGXzsEeH8I9uz75sS+qJBPhGHcArHYABLr8hrycKAQAAAAAAGC8lNJqAIFvsmvbR2+tpfxGP4+x1vLLKj2Oeab2aANgsf5PoRlltNcbAO3+x4SxAyC98k5KBhzt5DleBgAAAAAAwHgZS4/vAGgHQybAcQf2vCq1r5tbHrd4aM33qvQ4LUM9u45W6+dU6sw40NPzvuYWRWSiHFsDYNEAiOsoXX4RbescKQAAAAAAAOOltBro4Nvt2LHjYEpe2c9jrKl2ARy/LEvPPnWmzIGDI21vz/vyb6rIRDm2BsDqCGAmaSG0AyBHO3faMksKAAAAAADAOOrpBpCSVgMLE2LXts1vTanb+niI37t0+eplKj2tOQJ4CnXqjJk9ffNQskUVmSh2AAT6/R5sQAYAAAAAAMB4KaXXG+jsYMiEadua/93XAyzNi5R5WrN+TuXVa8ZIL2/+M7pvbI4dAJkwzTG+vOwACHT3TUBbSv55rSZAAAAAAABgfBQNdPBAbt225UNJ/rFfx1dL/ZHTV62aq9LHuIzW9OoRgHYAnMp503Z6uQHwxi/e9OF7VZGJcowNgHYAZJIWchFw1HfhyfxbFj5CEAAAAAAAwHgovb4DVLGDFRM8xWr7y+nfndLmzxybvV6Vj3kdKr35tK2fU6mmzO/ZKV+yWQWZSMfaAGgHQCZnIdcByLHotINCAAAAAAAAxkVbe3sHqGrvDSbWzu0f/URS39Ov4yuluUqVj3kh6sl1qNoBcGpfe8kpvfrcx8bq+1SQiXSsDYDzRAj0wFL3SBkAAAAAAADjYazYARAeeprld/t3dPWiRSsuXqHKxzRDHAHMkb/ySntSj873rw4umLFJBZlIR98AuGH9zCTOtmfS7hDhGO7D5ssAAAAAAAAYD6UUDXTwEHZu2/JvSf6lb9eBpvkxVZ6OqvV/KrXltB595h/cuHHjqAIykY66AfC40QOO/wV6QidVszIAAAAAADBOerwBsNXAyGS9Usof9O3gap63bNmymap89NOjN+te7AA4lZOmZHGPXnjfo3pMtKNuABxomuPFh6s/PXEfNlasVwAAAAAAwLgoY2M93UBX0moAZFLs3L7p72qyo0+Ht2DfjPmXqvL0Uh2hPtUVWNSDT3rPyOz2/6kdE605+r9Y5oiPSbyQwrGwAyAAAAAAADA+HAEMh6s2yf/p28GV8n1KfPQraW8+aev/FFdgaQ8+6Td97vrr96kdE+2oGwDHNAACvXLznXqcFAAAAAAAgPFQNADCYWvuPuFtSW7r0+FdsWjt2tmqfHRLaW8+7eoI4CnyiAsuOCnJ6b02YUqb16kek3K9Peq/WEY1AOLyT49cVhvrFQAAAAAAMC5qdXYVHK6bb/7QgVLrn/bp8ObljrGnqPKRK73aAeAI4Ckza2TmUA8+7Q/vvHHzZ1SPyXDUDYCtHQCBnrkRq9YrAAAAAACAxBHGTP6Ua+sbkoz049iaUh0DPJ1UDYBTF32W99xzruW1KsekXY+O/i9qAAR65tJq620AAAAAAGB89PgOgG00sDC5brnpo19K6t/15XKQXH7qeU86TpWPOLemF593SRwBPFXZ16zuscnyyd3bN31A5ZgsR72ollLnig/oiRvINhqWAQAAAAAAYOr8ZZ+Oa+7sgb1PUt7poRYNgFOk1JI1PTVX2vKr0TDKJDrqBsBaGztqAb1xN2AHQAAAAAAAYJzUTqendwB0BDBT4ax5M/4uyRf6cWydmier8HS5ANhBdSosXnXJuUlO7pnLbHLD7u2b3qdyTKajbwAsdUB8QE/ch5VmphQAAAAAAIDx0dtHAMNU2Lhx42iSt/XlipA8VYWPWNOjz9uOblMRetv21musll87tDRADyyqTS2N+PA2il5Q2sySAgAAAAAAQFJaTQlMjU5b39inQ3vkWSsveYwKTwvWz6lxee9MkPpPO7dv+lslY7IdSxNfR3xM2hsREXBM86fVAAgAANBHli1bNvPMxw4vWLRi7XxpAAAw2Wq1dQUcjZtv3LIjycf7cWyd1Keo8BEpPfqk7QA4yZacd/HDSvLdPfJ0D9bSeamqMRWO+hjf2tRGbzMu//TGG3FHANNbBpevuWDXo0/bmmuvHZNGkvXrO4+8+fOnzkhOT8r8WjInbWbXlINNqfeW0rSjpd4xY6TzpVljX/7Sjh07Dgqtdy1detmseuIdj2zHBhaWpp74tXqXUtqk3pkkban3NGNlz8DAwJ7PbN341fjEHXS1tWvXDuz86ugJmZ0FndGc0JQMJGN3jnQ6bZLMbgfumrE/+3fs2HiPtOCb7gmHhpen1pelKf+664bNr5lOY1+1atWMPXXuY1Lr8pT6XanlkUkWJfWRSZmXZMHefO2TqaMZHBr+2l+9N8mepHwhpX4pNV8oyc1J+a805TPNncd95uabP3TA7ILDs2jt2tm5I6d10p5eSzt3rOSEps1AKTmhlgykze0lZW+bem+nyd21be4aKWP3duqMvbu3b7xDgtC71+EvH5xz/Dffv5fS3nGwaar7dwDGRclbUnNBvw2rJk9J8scKfAQzoTfr7OcRk2ys0zy39M6R0b9/6w3XfUrVmAoDx/B37QAIAONk8apL59W6/wdS8+Kknrfo5tt+enfy6un2Zm/RqovOLm3ngiTnleScWnN2br7trKR06je9u0pJSmpqklrbNDUZ64xmb2dBBofWfDWp/12S/6yp/5E0n0rGPrFr20dvNdO6x9lnrz7hwNxmZUnOS9rzUstjU3LWWO4+LbWTNIfq+7V61296T11qSW2SkXY0g0PDbUluq8numtxaUm5Jrf+ett606+zTb9ZICxOiWbxq+Iyx0bqkacoZJXlETR5ekzNKsjDJCalZkJITkpxw652jszsDSUYP/eW2Hno72bnv/49kNCMzk8Gh4ZEke5LcXpM9JeUrSd2dWv+7luZznZr/HpvRuWX3JzZ+QQnoV2vXrh3YfcfY00qpL0nyxJSS1Dx3cMXqz+zavuX/9eu4lw6tOWUseXySx6e0q/e0ZVlSD32Q61s2VnnInw0cd+if+siv3TrUr/1vWzN2wt0jg0PDN6bk47Utn0g6G3dv37jbzGO6vxdt2wMrSs2j07SPKimPqsnS1Dwyd47O++btLZqv35t/6316+dr1vbQZSEnKaAaHhg8k+XySz6fmf0rK52upn6sp/1Pb8umyoPnU7o0b96sATI5FK9bOL2X0rJScWWsGS3JmkrOSnJLk+G++f9/T5jvv32uTTvsd9+8Hk9yeZE9Nbi+pX07Kran1v2uT/+60nf9uRw/csuuTH/uiCtCPOjWlt/cAbDWwMGVGa/2bgZQ/Tb9tAVPrJaevWjX381u37lXlw9Kj9S92AJz8ifKCHnmqt+4dm/u7KkbPLarzN1z5s0n9IxEyKfbXNHeIgaO8356Vm2+/6n2PkgTdaPGKi8+vpbkqyXNz6AeWX3PHgWbfI/r6jeL69Z3Bz3xhVWnqE2qyNoe27543gV/xc0nZUmq9Lp18cOfWzZ81Aydxrq+6dF47dmBt0j6+lLImyVAm/gMle5P6b6llU0n96JyRGdfZoQCO7P3ikpUXLWnbzlCauiK1OTepj0qyOMmsKXxet6dmR5L/qE39VNqy/biRgX/z+qaXLVqxdlFTRl6QlBfW5BH3dx/TufuEpX2ze9369Z3FO2+7qNZ6eVIuS82yTNU3/ks+nVo/3CYfOrnZ/5GtW7eOmJH0q2XL1h6/f1Z7QdvW706pQ6lZmZLFU/R02prsKjWfKsl/1JIdGasf23XTlk+rFBy1ZvHy4aW1U1fUWoZKsizJohxq9DtxCp/XniQ7UvOpmvxHStl+3MHOVvfv9LrFK1Y/tZbytz07gFp/ftf2LX+okkyVwaHhTyR5XL+Nq0196q3btnxIhQ9rDnw5yck9+NQ/vmvb5gtVcHKctfySoaZpb+iFl39Jnrxz2+aPqBpT5eiPAE46TmVlspSU2E2Xo54/JT6JQXfdrJ53yWAZqOtLrc+ryYoH+GPzZ7VznpXkr/pp7I+44IKTZo7MfGqSy3PzbU9Mk3mTuLqfkdTvqyXflzavWTw0fENb8/6m5u07b9z8GTNzAt7An7f67HTK02vqU2u7f00pmTHJP9ufm5RLUnJJTcnemaMHB4eGr6ul/m0d7bzv1puu26VKcMiyZctm3jN74bmdtq6oqStSy1BKzmtrTjx0K95V9+MLUjKcZLjUkpRk78zRscGh4f9I8vHU8rFS679Y2+l2i85fe1oZHVuf5HnJ6HfXlAe7SJ7RnnDPjyZ5ba+Od+3atQO77hx5YqfkOfXm255Wk1O64sP+NWcn5ewm+V972rlfXTw0/K425e27t226zjci6HVnLLto4cyZA99TUy9JsnpvRpenHtqk79A3TKb06TUlWZKSJTV5epKkUw7t6F7r9Wnyr7XNloOdfR+3gwrcz33E2rWzmztHzq21GUpTV9SaFSU5rybHp5Zu205nYZI1KVlT7rv43nf/viOpH0/yr6V2rtu5/br/Ull6S1N6+naxFPe6TLX3pQ8bAEuaNUk0AB7mQtSj66ifO0/mLGnal/bGE61/tPOGLZr/mFJHfwRwbR/ie9MwrndLcPSqGzGm3uDQxWellvUpzXOS9vzDe09Tvjd90AD46FVrTx5tx9bX1OdkJGsy8bu+HebSkJWlZGUtecXg0PB1Sd4wMnvsXZ+7/vp9ZuzRO/P84cWdkfLcNPV5qTn30GW8ay7kM5NcWmq5tHTa/zM4tOZfU9q/nlFmvOMzWzd+RfWYVr51F9bv3Zusbto6p37t5rv37r87SR6b5LEp9YW1JINDw5+tNf/YJB8pbfuRW2766JcUnim/Tj52eEFnoD4zKc/L6OjaI7kvqqX+ZHqwAXDJyuFVtS0/cOudo89rUk6tXf29/XpSTa4qqVcNrhz+dGp5TWfmwTff/LGP3WX20gsOHSM+Olya+sTU5olJXVlTO701inpSSp6emqeXksxq5xwYHBreXEv5cKn1H3Zt23xTNOcerrJ4aPgXdy59+B/k2mvHxNH7r+9ddx48vynNE0ryvfXO0YtqyuyUmtSe/PZ5J8l5STkvyYtqaTM4NHxrko/UlI8MJP9487ZNX1Z5ulpTiysSHMONStO8r7btb/TduFIvVt3Dvvfv1SOArf6TZPDcC09N8vzuf93nhjkH7vgVFaML5uLRmf/OK/6/lPJ/RMikOJA0t7uWcpS3j7PyH7df9b5lkmCyLTn/kkfWsfrsWutzklx4FNfdrbu2be7JT8CdcdFFc2YcGHhWqfX5NXlijuVDB5Pryyn5k9oOvGb39o13mMWHZ/GqS+dlbP/31+SHUtKLW98fSLIhbfmzXTdu+riK0q/OPH94cWcslya5NDWXJlkwjYbfJtlWSj5YR+vbHS/IZHr0qrUnj7SjlyVZn+TJOdSQflTzeOTg2Cmf23H9nm4f89lnrz7hwNx8f0n5iSTn9XgJ7ym1vL6d0fm93Z/Y+AUzmm6zaO3a2eWu0SfWNleWUi5P6kl9PuQvJOUfas17R+eM/oMPcD2A9es7g/912/9NyYtrzffs3r55o1B6/v79iUnmT8f794zlr+3uTTdavHL46bXmA736/Evyczu3bfZzXqbU4IrhW1KyuM+GtW9hs2/e1q1bR1T4Ieo/NPzVHNopuKfU5KO7t21erYKT8H53aM1vl9Rf7vKneW9ps9L9Kt3g6H8Y35RRn2xh0t6I2AGQY2MHQCZLs2jl6gtKLU9LqU9rR9sVObYPYc/tuZvxFRevKGlelP35/qTO78FbhVNS85uljP7C4MrVf9aZMfp7dnx5kDfoK1evSS0vqu3+9SmZ08NDmZXkB9PUHxwcWnN9qe1v7ty+5e9UmJ63fn1n8c23fU+SZ9fkiozmtOl8jU6yqtasSqe8YnDl6m21lneOpf7Vf2/b8nmThfG2dPnqZaNNeXqpefpIO3pRxmcH5GZg1sD5Sf6hm8c91ik/ebDmB0pyYp+U8/ha6s+U0dGrFq9Y8zqNgHSDs89efcKB4/LU0pZn5o7Ry1JywqHvnU2Lb9aeltQfLiU/PGN/597BlcN/V2t5z6y97d9++tNb7jY7ktNXrZo765bb3pSS9UlSSp6eZKNkut+qVatmfLXOfUKp7bOTcnlG8zD371mVJq9YPDR8Q63lHW0nb71166bbzBa6QXV2FRyzkvL+mvozfTasObe3s5cn+TcVPowp0ItP2slzk2Lw3AtPTa0v7fJZUkutV+28cYvmP7rCUTcAltSx6t6WyXsjZbZxLLdijjlhwixasXZ+aUaelFqeluSy1Jxy3y3feLz16Ym5u3TpZbNGj7/ruaWUlyZ5XJ+U9sTU8vKxgzNetGjl6l/bveT01zsy6ZAzLrpozox9Az+Qpv7U14747bO7jotqKX87ODT8b23qr926bcuHVJ2esn59Z/HO2y6qbdbn5tueUzOtm/4e5KVehkoyNJDy24NDw/+U5K8ONPve9fmtW/cKh2N57aXN02tyxVjyXSUT8Ea27c6G+8WrhofrWH5xrORp6d9vFs25rxHwxxavHP7D9sSB3929ceN+k5/Jcup5TzpuTnPvs0vKsw+WXFpqZvtmWY5LzfqSuv7g3LJ/8YrhD6Wpb23uOvFvb775QwemYyBLzr/kkXW0fW9NVn7TL9udpEfu3/e0+b6SeqrvhN/P7XuyMqWubNr87tfu30dmj11rF1A4BsURlky9NvV9JfmZ/htXuTgaAA9rJerNZ101AE5GzDNmvLImJ3T50/ytndu3vE216PlFdd6GdS8uyetEyKRM1INJ2eO9CEenzirbbr/qvSslwXgtSYMr1zw2bfuklPK0JMOZsONty/W7tm26uFuDWHT+2tOa0ZGfqClXJTm1z+v+72nLi6bz8bCPHFp9+kDJS1LLi5OcPI2G/g9jKT/72W2b/sPyR7dau3btwK23H3xCmrI+Keum2Wt0PK+7X62p1wyMDbzm5ps2fk4ePJSlqy5eMtqWJ5bk0qQ8MZOw412tZd3u7Zve1y0vmrNWDq9ran4hyXdPu/eZyS1Nyc/svGHzB70amEhnDV18UZPyo6nl+1K6/ocf3eL2lLwrtXnrrm3Xbco02Rpx8dCa762pb7uf9+cHFzb7jncMXfdYtWrVjK+0sy8tKc8uybr04NF3XeLLqfmL0VL/r129mQqDK4efkZr39+w7YEcA0wXWrl07cOudo19N/+wg/7XX1zt2btv8PBV+iHV0aPj2JPN78Kn/y65tm9eq4MQ5c2jNOZ3UGzNhP38dF+/atW3zc6bL+016w9HvAFjLaHw4hElSi889cgw32j6JwTFatGLtolJGvrekXFqTJ6TWh03O2eT1zm7MY/Hy4Ue3Jb9URke/v6bMnCbT4LFp6kcXrxj+o3b+wCum024vS1ZetLStzS8m5YdSM3MaLgFP7qTeOLhyzatGZo3+mt0F6CZLz1t7RtsZ+bHP3jn6wjTNIyRyzNfdk0ryS2Od0ZcNrhh+T1vaV9267aPXy4WvefSqtSeP1JEnJOXS1Fw61mZw0t+nNumGe5CyaMWaK0qpV6dm+bR9n5ksqTUfGBwa/quRg2M/87kd1+/xKmG8nPnY4QWdGVmfmp9M7nud+cbYkViQmh9L2h8bHBr+XJL31Nq+cff2j27vx8GevmrV3NntnF+rqT+fQ8emfruZt48dtyjJf5kaU/z++vxLHtmOti/e0+aFTfJwiRyzU1LyvwdSfmHR0PC7SlteNZ0/uMlUvIXs8Z9c2QGQLrBx48bRwaHhjyZ5Sl8tD8lFqntYmt5cPh0BPNHzolPr61K6t/mvJDfcOzb3R6L5jy5zLC8ax+AxqasoHMMEsl5xRB5xwQUnzRyZ9T0l9dKa8r3J6NKkTMVd3Je6KZdFKy5eUdL8ci15dunRN2bHqFNLfqHcOfqMxasu+b6dW6/7934e7ODQ8PKS/FJbsz5JZ9rfM9f6shn7B9YtWjH8Y7u3b95opWQKNYuHhp9QS148VkevTMqASCbgNV/ynCbNcwaHhrek5Pd23bD5A2KZfs646KI5M/d3Vie5tCaXjrSjQ0mZ0nugph2byiazMji0+hkpuTq1DpkhX/eDM2Z2Ll28YvWLdm7f8nfi4Jiu8SuHn5rkhbXmaamZIZLxWc6T/FQpzU8NDg1vraW+NZ0Z79j9iY1f6Iv3bSuHn5E2f1KTwQf7c23TLokGwCm/f29H2yvT3buY9KoZJXlemvq8waHhLU1pfu2WG677J7EA9IaS/EvtswbAJGedtWrNw2/duuk2Fe4/ba2avib0Pc7qn0zNcBcvWp9uOwNP++K2D9+rWnSbo98BsLQjVVcWk7aOuo5y9KodAHmom8lzLzy1zJg5nFLX1NRLMlKWJ7U5tPJM3fpTk644vuSsVWtWNmP1lSl5WrRkJ8ljatv+66IVq39y9/Ytb+63wS057+Jza9P8ek3WVfX+9lfl0lLyj4uGhn9/0byBX924ceOoTJgsS4fWnDJa8oLS1qtqstjt8aRZnZr3Dw4N/0vb1lfeeuOWfxZJ/1q2bO3x+2aOfndKhmvN6uzPcE1md9NzHJ3RfHVK7peXr7kgTfsHSbnE+nO/Hl5L+eDg0PCfLmz2vcwxmxyJMy66aM7A/uaHS5qfq7UulciEWlVqWZXR0T8cXLnmH9Pm2oMzD/zN/3z841/ttYHcd9zvb6Ye3hHsJeVk5Z/099YPG+s0Lyg1L3b/Prn3721t/3FwaHhLSXnFzm2b/lEkTJRam9LLm+i1aa1MdIWxtP/S9OF+A83o2GOTaADsQ8UxmRP3Pmf58KNrze9078U/OztjA5fefEN/fKCM/jNw9HM7jj9j8tbSUjQBciwXYw2AfIszzx9e3IzUNaWUNSkZTs3ZNfW+Xr+u6nea0jeHZ6285DFNbX89bX1WikawbzO3lPKmwaHVw3MP3vGSHTt2HOz5N1YrLnlUbeor2lqfl+m5w+PhakryS7vvHL1k8arh5+3cuvmzImFCX5vLhx+dTv3lsVqfV2pmWY2nzOObpvzT4NDwP3Ta+nM337hlh0h631mr1jy8qe2aQ58qLpfszehjkzRd/dZzf26fzC+3ZOVFS9va+Z2kPispVqAHV5L81J52ztAjh1Y/97+3bfm8SHgwj7jggpNmjMx6SdlfX5rkFCcHTapOan1SSp40c2TmawdXrvmnWuvfNm3+fueNmz/TrU/67LNXn3BgTvOsUuqLaurqI1qg2nqisk/e/Xttysvb1OeVZKb79ymzuqZ+ZHDl8N+2aX7+1huu+5RImKD7v97VamChO5zcHPi3Pe2ce5Mc11cLRNOcm+TDKvygevXnEH7uPAEWrV07u9418o7UcnyXPsXPtW1z6a6bNn5OtehWR90A2Nbsbbx5ZdLukrwP4Zg4AngaW7r0slmjJ941lFouaJKLanJJRnP6139+2cXLS1Pzlan4uoNDF5+VdF6Z2v5AHP36UBeoF907c/7iRSvWPmv39o139OIIDjU/1FfW2r4g1VFEh1355OLa5hNLVqx55i3bN22RCOPtzKE153RSf6kmz0t1zG8XefJYU544ODT8toyM/PyuT37siyLpDatWrZpxezt7eS3lwtRckOSitPVRPfYzu7HP/vvmOyflHvrCC08cOzjjFW3NS5PMNIOOyJqBlI8NDg0/fde2zTeKg++4xp8/vLgzWv6/jNQfTepciUy5gdT6pJI8qTbJ4IrhnWnyj6nZ3GnaLTdv/egtU/o9jQsvPLEdmXFJrVl/MHlWST26H4yX7trRth8tXb562VhTfrEmz0uq+/duUfO0Ju2TB1cM/2XTtr96y00f/ZJQGLfp1dTiR1dw7LZu3ToyODT8r0m+t5/G1SbLVLdPWf0nRHPXyGtrLUNdWfLkf1KbJ9x603W7VIpudtRvRDulubf6ZCqTuayabxz99NEAOI0sXj786NopF6S2FyTlwrHcvaLUMjM9uIq0TZnUY4jOPnv1CQfmNr+c1P8vqX44cNhLTHlCmtFNi1cNP62XdoM79bwnHTen2fuy0taXJTleJY/Kw9pS/3HRitVX9eNx0EyNRSsuXlFK+ZWkXhm7cXarJskPZsaMKwaH1vzKrm2bXhOf/O06jxxaffpAKatKzeqaDO9pszLJnB5/W7lnMuba4MrhZ4wdzGuSPNJMOmpnJNk8uHL4+btu2PwBcZAc2mG9U9tfq6NZn1QftOreN3iLU7M4yY+NtU0Gh4a/mGRbSW5sU7aX1E/N3Ft3fvrTW+4e7y+9bNmymXs78wdr03xXKfWSJJeMHcxQxuGDebUWc26C79/HUty/d6+BlLy47TTPWTy05uU7t216nft3SBy7RXep/5KUvmoALFUD4GGtRD05Xav7iHE2ODT8K7XmR7qy3MktnaZ98s1bN9+iUnT/G5+j1LZlb2ncG+LyTy/ciOVeIfSh9es7iz9z25JasjzJ8pSsSnJBTRam1r5YODqpk7UDYDM4tPoFB1N+s6SeZnId1Tpzbq3ZsnjFJU/Yuf26/+ryZ9sMDq1+QbL315OcrnjHbFYp5Y2LVq45dfcNm35fHBytRSsuXlGa5uWpeba7355xYlJfPbhy9QualB+75YbNW0Uy+dauXTuw886xRzfJeUld3iTLa/K4JKek9t3HyCb0+N/BlWvOS61/lpo1Zta4OD41fzM4NPyju7Ztfos4pq+zzrtksOnUV6S2P1DtsN6LTk3ylJo85Wt9EgfnlgwODX85NTtT6hdSypdSyxdKye019d7S1ntrysFvf6BSckJSZrWpJzapc5MyK6WempSzas3ivYcarxv9GO7fmTDza+r/XTQ0/AMDbX3xzTdu2SESjkUntVQvfxivV9S/9F1vdsmy2OHmoVPqQTVFA+A4Wrxi9ffX5Ne7dIp+YiB52s1bP/pllaIXHH0DYDN6b8cH2oCeuH0sdwqhtz3iggtOmjk645yknJdkeWqW5+bbzq1N+vq4pLa2E94AOLhy9ZrU8uokK8y0Y3ZGSvvPi5cPP2HnjZs/041P8Kyhiy/qpPmzmqxUrnG+0tT6e4MrV8/bdcOW/y0OjsTSVRcvaceaP6glV/p2YI+qZahNrl80tOYPB+4+/pU33/yhA0KZEM3g0MWPbMrAkrG2fWxKzivJ8lvvHF3WyTeONezvl9HE7A69aO3a2blz7NdS68uSzDDVxlUnyRsXrVw9Z/cNW14njunlzMcOLxiYkVfU2v5EHKXdj05JySlJue/iUw99FjFJLff/c8x63/+Wr/9vkjpJP/Nsqu+NuX/na3dUycVjTblhcGjN7809uOc3d+zYcVAqAFOrzms+Xu5sR/rsPenxZ513ySJHhsIDW7xi9ffXUt6ULmwGLcmH7h2bs/6LN33YRkP0jKNuAJwxVva2PrPKJK6wcAzz5w4hdL+1a9cO3Hr72MrSqctqmyUpZWlSlyRZmpHMn46ZzD04c8KOAF46tOaUtrS/X2v5Yavs+KnJI9LknxcvH/6ebmoCHDz3wlPLzIHfrbX8cFXvCZwA5eWDK1fP2HXDll8QBg/l1POedNxxA3t/fqzNL6bEseu9b0ZJ/eXRE+6+fHDlmufvumHTTSI5+nvC3XeNPC61XFBSl9Y0S0qpS1IzmGRmW9uU6XolK3XPuN8jDF1ySe4cvSbJo82+CdOUWl67aGh41u5tm18tjulR88Gh4R9I8ge15mHioEveq+wRgvt3vsXMpP7q3pkL1i1edcn379x63b+LhCNfW5vSyx9BKinamOkauzdu3D84NPyfSR7bT+PqDLTLkmgAfLClqBeftCOAx8WiodU/XlNek3TlrmOvXtDse9nObZtHVIpectQNgKOdmfc2Md+Z5FsAb0c4Cm3q7VLo3lf2opXDTy41L7z1ztGnpMnx3zi9d9q/4Pfv2LHxngl43GZw5fCLxmr9ndSy0BScEKfXJv/vjOUXXfy5G6//nyl9JuvXdxb9120vTckra808pZkEtfz84NDqu3dt2/IbwuCBrn2DQ8M/mOz9vVrj2PX+e8uyLLV+bNHQ8NW7t23+g/Td+TUT56xVa1Y2bfsTt945+pyScuLXEi19eI7v0V9jMm7NG2efvfqEkbnN79e0V8WHAyZleSjJqxYPDd+zc9vmvxRHH69lyy8Z6jTt6+24TdctQk39ghTcv3O/Hlvb9mOLVgz/8u7tm18dd54AU/iet96YUvqqAbBNOSfJBxW33+4O3S8co2ZwxfCvJ3l5uu97UvuSXLVr2+a/0rlLLzrqBsC7bl9w9/wFX6rxjWIm72Lq7TdHpdM0X5VC91mycnhVW/N/U3OBNO53yRv3ebt41SWPrWPtNam5UMIT7swZTedDi1ddumbn1o9MyVFLS867+Nz2v257fYp6T8Er+NcHV66+fdcNW/5MFnzrOjw8XNu8KskqafS12SX53cEVw8NjY/mhz/77Zh9GeRCLzl97WhkbfXXa+uxM3739Du/qUsanAXBw6JJLDqZ9U1IHpTq5JazJXyxeufqOnTdseY84+ssZF100Z+a+ztW1tD9bj+H7rRPsK0k+nZSv1tR7S83daeqdqaVJzQm15ISmZE6tOT6lnpRaFic+RNQv6oGR/5KC+3ce0JxS8qrFK4Yf38wa+ZGbP/axu0TCYa2tvf7z0dL6iRvd5sYkP9BfC0VdpKwPqunRwvrA71E6++zVJ4wcV95Sa9Z14dP7XKntM3du/+gnVIpedfTfkLrqL0ayYd29SY4XI9DN2sQxJ11mcGj4B9uaa5LMksYDGremsVWrVs34ajv3l2vb/u+UzBTtpHlsbfe/d+nSy55y880fOjBZX3TZsmUz981a8PK25pcT9Z667wGUVy1esWbXzu2b/lYYPOKCC06aMTLzT2ub58YHqKaPkqc3A/nE4lWXXOlIsfu3ZMUlF7ejo3+TOCLzMN1xLH950dq1s8udo7+VtD+Tnv0me8/r1Fr+enDokift2nbddeLoD0uXr142ur+8s5Ys66b1oib/1NT8Y0m5cf/MA//5Px//+BF/yGzJeRc/rM5oHp02j66lflfacklKVqV7mxx5gPmw65Mf+6IY3L/zUG/jc+XYyIxzzlp5yZW33nDdpyQCMOlu7LcBlZIzlbX/lOII9aMxuHL1mgO1vLHULOm6+8DkPTObgas+s3XjV1SKXnas36y5IxoAmbSrqQg4OjPG2i9LoXucNbT6siRvTNKRxoPebO4bl7yXXzK0p23fWFKXS3VKrB094e7/m+SFk/HFFq0avnBvzetTc67op1ynpr59cOWa4V03bLpJHNPX4qHhS+tI3pzk9B55yncm5TNJ/UJKvlBq9tTknpqMJEmppVNKPTFJas3xSU5JqaeVlJNr8ojYKejb38IsqW17/aKhNS/avW3TOyTyTa+NFRef35b2w0mOk8Zh3h+29Z6jvkdYcfGK5s7Rt9XkHElOuVlJ++4zzx++8LOf2LxTHL1tcMWaF42V+iclmdsFT+fLKeXNNe27dy85/RO59tqxY33AW2766JeSfCnJ5q/92tILLzyxHZlxSdvWJ5RSnpLkMWZC17ODRX/fv38lyadLzZdq8vkkd9SSu79+P/rN9+8lJyQ5JbWempRTcuj+/URV/+Ybrpzd1PZji1eu/hE79vLQ86WW3v65lQYWukunNNvH+u8ouLNUtv+0NXYAPAKnr1o1d3ad89u15n+V7vtA6l21lp/evX3Tm1SKfnCsDYC3JzlDjEBXvw9v6pek0B3Wrl07cOudo38ezX+HY/+x/OVly5bN3Dtzwa8m7S8mmSHOqVOSH108tObfdm7b9NqJfAM1c2z2b5Y2P+X11VXFPyFt/ZtFK9au2r194x0CmV6WLr1s1tiJ9/xmrfVn0707be1L8rGSel1bmo8OjHZ23HzTxs8dywMuOe/ih7UD5exSy6NqsjzJBUlWJJk9jafDcSX17YNDw8t2bdv8a0mm/Q9Zzrjoojl1X/OOaP47wvc13/hh/pFcjQaH1rw0qX9Q7b7dTU4eGM0Hll544UWOGexNy5atPX7vjJHXptQpP6Kspv5TKXnd3AN3vHfHjh0HkyQ3TNzXu2/OfvC+f3520arhC5u2/EhNfW6S+WZHF14/arZI4TDv30+4+7dq8rPp3o+i31WSLal1U5ty/czOwCePdZeSwXMvPDUzZp2djD0qyfLUckFKVmQ63zeUnFBredfg0OpX7Nq25Te8OgAmx83bNn15cGj4C0lO65tBtRoAH0JPnk5QogHwcOs7uGL4/2fvzMPjrKo//j3vO5O0KaUtO6U0mTRQNNBmElnaTMogiwKioBRccEdAFBFX3BEX3MXl5wKiLCpIZVdBBBmbSWupyaSFgECaSUtpWbvStMnMe8/vj1Yo0CXLzOTed76f5+FRCiT3Pd/7nnvOe8899x0w+j0FaixUcqEn+fctyyzsplQkLBSiAyAhJUFFINwrI8OJr03kaVrBDpavyx0HEbY8HxzD7gBY3TjndZvV/B5AI81oyRoGvXJaQ8vSZZ2tBd94qY23HK+BXgVBLS1t5deAWiB/DYAzwaKfsqG6cc7rAt34RygaLBzeGhG9UyG36p6Rf/SmUlsK+cO36xTU+r8/a2pqiq7JV8VFzPHw5ERVNKM8ryj/ciyemFo1sPYjLxVolCnRLZFzIcp1a4h4RoZUAHjQUUftXZGLXgPo22g9G+NDvD4YqLgBwOmMEdyibmZzfZ+XnwfIaHe++7cqvtDb2ZYazUH0tqcXAVg0ZdasT1Vs9s9QwecBzOBMsSglEe8BWmHXTI23vD7Axj8AVsbvq6C4TURumzrB/1cqlcoX8odvux76GQAvXU1fX19fsWnMpLgoToDiRACzyjB+F0Auj8Wbp1ZPiH600HYnYQnQVaDutgAUwxiUWMkShKkAUDC+piE5kYfDQxcl0H/uirlz/eplq9/qKb4GYKaFZ2vWieJLPZ2tvwKLOUnIGGEBoKzlN0rCtZTYzpqDNvMKYHteZBb/DRYdVgdAqW1IfFTVfF/tuIKKvEyFEZ1XF2+Z2Z1pLYhPqm06YYKaLT9U6Ifg+IUj4Xd9eHtNPHFRbyb9U1oj/NQ2NL9H1VwFu/ywApivkF+NG1hza6mLz9rb23MAHtz21xX7zzhp3Dh/85tV9GwoTkV5rVnv66uYNLnu6KPfUd5dv/Qd9BbDsJoM/grgaQ0tzSanNwI4mJazWtW31sYTl/Rk0j+iLdygujFxRqC4AaPbwXTFtiuK7oBFH2ZXLly4GcAfAdxU09g8VyBfh2I6Z82o81y2bv82ZGiInRFrbDkHqlcBGGvRsAIAfxOVX/d0tt6NbRuTpbo3flu+sGjbX9/a2vU0f7IK3inAyZbZqtgZ/bkr1ucPqq9PntXVlXqRbwwJVSTq8XsisdHt6lKovClcDzVQA6CT4u5YcSdHzQLqHVI3Izkl8IJ3oXv1RwHEbFz6ANzgBeaz2w6xExI6RlYAKLqW7o0QYn3oeMrd/TSEHXjiZ43yMMXgjDW0DoCxw4/eHxXRa3RrIQWxkwMD6DUA3oYRbtRNa5gz25jNfwCkhmZ1Zjn6Tk3TrHt72xf+l9YIJ9uuuf/utivDbMEAMk88+VZP+/yHbBnUM0vv3QTgFgC31Ncn9+irDE6H6gUAmstkupwQ5CKpg4466sSnHnzwhTJ9ZQ6l1xjGC20GdwVwrDFxnlH9Gcqz06ZzKPDdaQ0ti4rRKZoUltp44lOq+D5G95qqG8Qbc1G2/b71Nrur3o62PyWTyVt61wXniOi3ARzIGTRqXuYOzJsX0A47jt971+W+B9VLLBrWgAC/Mxr5Tm9nqteWQW0rfJsHYN706c3j+8fi7SJyAYBjymStPrmvIn//1CMSb17xUHot3x6y3dwQlyvo2AGQWDozQ3cVp2y9FauT2oZJU4ynFbZS3TjndaLmRAHODJBvhr3XOj8EeB/PZubPp2okzIy0A+AadgAkpVtNaQIyjCRchNVmFnHwnt783vWmS4B6WmN3k3fwHQBrGlveBNXrodiPhrOe02obEh/t6Uz/Ylj/9dy5fqx71RcNzFcBidCcTjFWAv9azJ3bzA248HHQUUftvXx9/k8AjrdoIbnFiP+V5R3zH7XZdts2E38P4PexxpYZovioQt+PsHcVUYlX5Cr+OW3G7BPL9MTpFnqOoePvpgNgfX1yj80V+atV8U5ayykiRvSG/WecdMS2AmliG3Pn+jXdq3+mwEdHcRTrofhItjM9zxWzbbsu89op9bPujFT4PxfgXZxMpcdT/3e0wms5tCm5T+/63J9E5I2WDMkA+lsv4l++bPH8J2223WOPtW0EcB2A62oaZjeI510IxXsBjAn5tDkqEsF9Bx111EllfIiHEEJKsCJq1u3S2h3Am7F2bR0HUeCN1Y1zXmf7d9dCU5NMjvHWDRxhRJoEMhvA8VAz2fJhZwFcls2kfw9e90vKgBFtHIviWZb/kRIupqwBJEP3U6IssrCIVCqVnxpvOcuH/gvAPrTILp3e7jsAzp3rx7qf/hpUvwR7T9WQV0sr+MHUeEtqRab1kaH8d9OOnHOw6V71e0Dm0IquLko4OvbE05/KAt+nMcJDLJ6YiRxugz3XGjxuoJ9cnmm72zVbZjtalwL4aF285atG9GOq+CSACSGePjOM7/3r4Hjz8U9m2laVlzvEIrXzKhCrMb7utANgbEbz9M1+/lYFXk9LubmcVPl9lwP4NE1hGXPn+rEnVl0LkXNGcRSrVM2pvZ0LOl004cquhWsAvDsWb7kV0F8A2JcTq2QsXdY5fwHN8Nr4PWfytwnEllik3cBctDyzYKFrttzml86bNmP2lzXiXaiKSwDsGda5o0BjRa6itbqp5fjl7a2r+TYRqCdON0kR4RYvsfB7gd+rIavREQj3wnZlHjep9NTcVxtPfMZEIg8ghy29nal1YRGlLt6yb17MNIFXJ2oOMZA6AeqxPv96FS/qiGhPQ/RbVf3rrurq6hrgq0boVAfBxHlv+yBUfkszkpJM1hcUkqMdyBCJYNOaC+/Yg4awi+oZc2Keb64D0EJr7BgFbuzNpN+9s38eO/zo/TUa+aPAmtPqZGgCL8oecuCgO8HVNja/XVWuBrAXjec8m/wgclj30tRKmiIE61m8+WQPMg/AOAuGk1PFt/b2N3+7vb09FFHzQUcdtXdFruKLAD6OMF9lKnjMy5s55dQJsLYpkVCD+eAZryHhB5GDd7R+xGbOPgme9ycAE2klpwk8wdHLOtLtNIUd1NfXV2yOTrpJBWeM4jCW5Exw6solC58Kg01jhx+9P6LRWwA0c4aVIMQQfKinI80OgNvHIA0tp6rozQCqbMgNIXpptqPtFwhJN5K6eMu+AfTL2NoxNRri+P3hgchAkp0ASW088S4F/ujq+BX60d5M26+oJLEtBu+rmLQZoWp4oD/LZto+QXV3kB/EEwbh+jbUB2ALFOvgoQ8qmwFdD0gfgM1QXS+QPiPY+uei/bL1n229FWxbYxDxsPl/t4SJymZ4+pqbNIwiH0Sww4OiFcaIqjfxpRlojAfxJhiVPUR0vCjGG8F4D5gEYKJCDoTq/hBMBrAfgEqHNViuolduzo+7mrcskLL8DjCS/3jSvNNPVsXfaEZSCrwXFGABIBkqFXhmzQV3HEBD2LkG1TY0n6yC8wA5FSO+lj50rPMhh3ZnWp979T+oibccK9AbARxIMzmc9ote0tvRduWu/p3JTU1VlcHYH0NwHi0Wqgh8XrYjfRYN4TaxxpZzoPpb2LGxtdR48sHl7a0dYbR1bVNiqhp8E8A5CG/B2FLVyLFhOi2823eoIfFzCD5GbzKE5cMbM7Gn/b71r4wLE58Q4IeMpUPDv7OZ9Gw43UomHNTX11f0VU66FYpTRy9kRIdXkTuue9GiDWGybU0yOUbW5a+DgPFwMfNNYFnNhMhh265iJgBi8cT7APzGivhdkRZ4H+rpnP9EKOP3hjmHqGe+BcXcEE+pB6sGIsd3daVe5NtVvrAAkJCirdlPApgSnmRe/pDtaD2Hyu5Qa+a+pFB0Avhx9YTIH5kDkXJmRNXzJvCeoQlJ6QIkmoAMa96soxGsRXs62/6WzbSdnodWK3CxCB4AwGubtzIxUL01dvjR+2+/bscaWr4o0Psw+sV/gQLLANwliu9B5XMQnA/Rsw30FE8lYWBmC3CiqLwFirOgcp5ALxfRawH8A9DesnZPKt+snjEntovkd2alGfsfFv+F0fthbvXM5uNoCHeJNbR8FqrXw4LNQ1X98V7e5jeEtfgPAHra0yuymfT7YMybAWRD+pgzRPK31SSTY8rlPcoecuDF22ICMtjgC/0vdStqamqKxhoTVwnwE7D4L0wcUxNvOZtmGHW8zRWTrhvN4j9AujWXOyVsxX8A0JtKbcl2pt8pwHc51Yo4g0Qu48bXy9Q2NH8BwLUWxO+BAF/IdqbnhLX4DwB6Ouc/ke1InyWqpwJYEdLHPKqvMrilvr6+gm9YGaOO71oJD50Qez8ZhCouU+WtPoQUj06BnJDNpOPZTPp65kCk3BnRR+KIN/BMwO/MpHTJFCFDnzYenqcV7OfJTNsqAD8F8NNDm5L75DV/mirOAHAigDFlaxhBAtHosli85X4INkI1AWj1aLxKCjwikAcEukCBR3RC5LHeVGrLSH/wlPpZe1VU+I0GaBLgOADHlpHm4zzfXA3gJLzqup9YY+JjUPzAelsoNkLwNIANItigBpuwtT39+G1jHw9gvADjFJgMlvO/hOfJdwAcwwjHPc9c09D8Q4heYsFY+kTxkWxn2x97y8T42SUL7t1/xklHjPU2fUNEPgHAD9kjJr0N+Rsxd+6Zg70i3mnmzQt6gA/WNibmq+K7APali9nN2hGYwwGsrou37LtW9U9QsJg8lCmAuaImmby9ELE2GR6xePOVCrxzFIfwdBDRN63ILArzwWvtyaQvrWlIrBbBlZx1Bc/T0tlM6x9oiK3L59Z3Wi6ywMO/ABO8u2fJgnvLxfg9nW1/mz69+fCBKu/bgF6IUF3nCED1pL7opBsAvAshucaZEEIsoRdAS3iWC7AAcGfpLyEjnkV6TU9H+n4agpBCONZfnxedOOnZfjpoUpLJukYhA7QDGSJj5JY1591+Jg3hJvX1yT36ovmTRfBBBd6EsH0otNvrdiv0HyKa8vKaWrZ0wbOl+K2Tm5qqKnXs8VB9KyBnAdizDIx9gw/5dHem9bmtzz/mS1D5omVjXKOQfwu0Q1W7ffhPmHz/suzDg9+UrKs7uXJg/IvTfJg6EW+aGj1MBAkFXleusaRAzuzJtN5Cf+MMXk08cbUAH7JgLKtUzam9nQs6y1WMmnjLsQL9PcJ0JcxLzkF+kO1o/Ww56Tl9evP4/iq5cNv7dSjdzU5ZLqIPqMpbAW4ghDxK+EQ20/oz2qH01MYTlypwxSgOIe+pJJd1traVjc0bE5ep4mucfQUjB5E3ZDtal9IU8GLxxO8AvM+CsfzXBN4py5fOz5arGLGG5hMhcj2AA0L3cIpvZTvTX+YrV4ZxQ0Pze1Tk985OXdELejvafk0liX0xefPXFfLVED3SE9lMmt86dpD4xuIJFtCTkUdiwN8h+lcx/t/D3GWbkEE51pH+gIk3n/48gL1pSlL0ycoCQDIcxuGnaz58x8U0hPvE4rOrAe9cbN0YnkyLFCVO7hWVmwNf/mTDVZL7zzhp3Di/72yFnAvorJAbP6fACtl6tXOVBRnTMlHcr5CF8PP/7m1f+BiK1KmuLt6yb0404QPHquKtAGJl9NL9N1t34OFl0ekrBKForDHxcygutMFXe2JOXNaxsLvcRaltOmGC6paroZgbviVZzst2tl5dljFfY8sMQE+D4nQATeCBQxd4Gopu8bQbKs+oygaFbhLIJkDXK2RAoBUiGG9Eo1CZ6EGrFBIDULPtr4PAwz7bs9LfOL6uu/vufpqilDln81sBuW1U56LKl7Kdrd8uuzW9MXGlKvjtphAzSPDhno7072gKSG285RcKvWD0R6IZX703dWdanyt3UeriLfsGor8b3SvWi/Tuqb63p7ONnTfLbf1iASAhxYrLPwzIb0IUlryQzbTuQ2VfgxeLJ/hdnBSaLBT/AHCfIvKP3s7UOpqElFUiPNIfMPHm0zsBzKQpSdEnKwsAyXAYJ5es+fDtV9IQ4SGZTEZ61wWnQnCeQN8MbhSOlGdU9Y/w5U+97ekHYel1pDUNiaQA34AgQcmKgoFisUDv8BR3di9p6xqt5X5aw5xZRvRdgJ4FYL/QW15xVrYzPY9T0O4wNBZv/gksuDZMgEdy0BOfzLStoiwvm6W2oflSFflmyGKCfk/l+HLqALUjph0552CT19MV5nSBzAEQ4ZQfVQYAdKjqQvHwbzX6+LhcRXdXV+rFkf7g+vr6ihcje9f7nh6j0GMgOBqKQ1HGBaACubAn0/pLTrvSUN0453Wemn9jdDuQ35fNpN+E8rxG0os1Jm4KZVF/CTMLAb7Yk0l/h6awqPhPkRZ/zFt62u9bT1m216f5MoV8JWTr/BYYOTa7pPVBSlw+xBpbzoHqDQ4HnOdnO9JXUUliGzUNLW8T0dtD9Egmm0lHweviX8ncuX6se3WehiBFJA/gXyo6z8/rbaW66YyQ0Q3vRsjEm0+/C8BbaEpSbLy1CvDsOxnqvKny3/L8ubf+lZbb0n3xAACAAElEQVQIJ3VNs6cFxvsCgPcCqKBFhsS/RfXnY3Pr5nV1dTlTXl3TmHizp/ihAq+nhCNHgQUiuE79yJ29i1NP2zS2ZDIZ6d2Qe4eoXAqgIcQytGcz6TdwNtpLLJ74IYBPWfDC9mg00mzbu2rN+rD14/DvAewRosd6xngSX97eupoKA1PqZ+0VqfDO8iAfUaCRFikJeQApBe7zPLQNVATtKxcu3FyqX/6/AlARPUMVcwD4ZRao9WQPOfBQdgouQV559NF7BgPR/wA4ZBSH8WLOBIetXLLwqXLVYXJTU9UYM3Yxc71h0Q+Rc7Mdrb+nKYBYPPETAJ+wYCj/qRqIHFeIQvlQ6tSQmAvBtbDgFoQCssoLTJyby2Xlb94L4Hp3483y7TxP7Ka2KZFQg9YwPVNfULXHM0vv3UR1XyaZTEaWr8/naAlSIgyAhaqYp77czO+tJKyMuABwws2n/0KAj9KUpNiwAJAMh6ByTN368/+0jJYIfUI4VQN8DoIPAxhDi+yULSJ6k0B+vqwj3e7qQ9TVnVwZjH/xS4BeCiBKWYfMcwBuCCDXrMi0PuJCvFrTmHiTqH4BW7s/hTD1NG/KLllwL6emfcTiLZcD+hULhvKsJ0Ezr/3djV6NLTOgejeAyaFJ2AUP9Ew78EQWAL0q9os3v0FVPgLgXRCMp0UKSp8o/q6C23MDwV9Wdi1cY8OgDm1K7pM3+fcZ4EIBppWLGKpyem9n6x2clkVePxqab4DIOaPq71W/2NPZdgVz+zlHqDEPMq8f0uTJGPHOXd7e2kFjADXxxBUCXGqBMN1eEDSzEGzXTGtMNBnFXwHsH6LH+ns2kz4F7PJUJt8MWABISDHY1p37kTA9k2pkEq8ifSUsACSjSAAgBZFrc5X5W0p52JWQYjPiK5I8wZM0IylJcEQTkGGw/rw/ZWmF8NPTnl6R7Ux/3HhSC+CHAHiS6pW8qMB3ol7k4J6Otg+6XPwHAN3dd/dnM61fhcgbBHiE8g6a+6A4q2pg7ZRsJv1pR4r/AEB7O9L3ZDNtxxrB2wGsCJ0yvvcJTk/7qI0nPmRJ8d8mUfMWFv/tnmxH61ITeAlAQmMrVRxXu2z1V6juq2K/TNt/sp3p86tykclQOQ9AO60yIgxE7gVkbr+3ed+ezvTbs5n09bYU/wHA4+2p53sy6R/1ZtKHiuA0hf6zHITxPL2Y07PI631D83tGu/gPkG7vxT1/RDWAnvb5D0HwGVpiUPPmBQCfqd4zehSL/7ZS09h8vh3Ff3jW94I3s/hv9yzrSLeLei2A9obosd5U29D8eapbPs7Y9ZSTEhIbieTzL4TtmXwzwBusXsXGjRuFViCj9UoCOB6qN0S3+KtjDYlfV8+cE6dZCINTAJPmnfEeVeX1AqT4k3WtQtgBkAwle/UlWPux2yO0RPlRF2/Z1wCXK/QjKLerwl5JH0R+4Su+151pfS6MDzh9evP4gSrcAMjbOPN37ApFcAdUv9WTaftPGB5o/xknjRvr931Ztl7JGpYPJ8YEXt3ypfNZtG4JtfHECQr8DRZ0GRXVc3o62/5AVQZP7PCj90c0+ncAM0PySIEn3knLOub/k+ruQveZs0+C530ZQAutMWieg+i1HsxVLhYZxxqaTxSR74T9SugAUu/QwQ2nqGlI1ojkOwFMGOWQ/W3ZTNudVOTl8CcWb76NOd5OWSXAz6J9+n+PPda2kebY9j43Jt4sirsAjPZ3wMAYPXH5krYHqMrgmTJz1kEVnn9viK4Az4uH43ra02mqG/IcJJ54H4DrnH0AlY9kO1t/QyWJbWzrDDcA94tsX8IPIgd3L02tpLovU19fX9FXMYk7/8QmHoTKb6py/o1dXakXaQ7iIiPuAKgmYAdAUhp4DoAMdcqIMnAsU7ozrc/1ZFo/CpFGAKkyNMFmUbkSuVxttqP1s2Et/gOAxx5r25jNtJ0h0Ms5819BoMCNXmBm9HSkzwhL8R8APLP03k29mfQXjCezQtTly/N9cz6nrR1Mjbe8XoF5sOGKccEvWPw3dLIPL3pGNZIUICzdcHxVc/3UIxKTqO4udF+y4N5sJj0H8I7d2s2O7IJHRfUcf+P4g7MdbZ9ztcNotrPtHz2Z9BtE9RwAoe2y5Iv5AKdssb4Z5H+FUS/+w5Jspu0uqvEK1A+iH4d7nf3vEdVTkcsdYKCnqOIyAe7e1qlvpLP1BQX+qIKTs3UHTu3JpL/D4r+XqZvZXC+KmzD6xX8Q1a+w+G/orFyy8CkPkgzRLQ8RNXrD9OnN46luyBcsVe5aEVIEUqlUHsCGMD3TQGWeHQBfRX//VPpQYhtHQfSqvor8U7F44icHx5sn0yTENUbsWCfcfFpM4PfQlKTYeOsU2EI7kCEk4FE8v/ajd+xLS5BYvOVMwHwfkJoyWNnneb736WWL55ddgX5tY8slqvpDlHfJuBHR62H8b/d0zn8i9Jo3nTBBzZbfADgzBI/zbPWEyEHbPnCRUaLmyOQBks//G0C1BcNp9zeOb+7uvpsHGobJtBmz9zO+lwLwupA80jXZTPpcKjvI+G9my1Hw9MsATqM1XuIJiFyenXbAjZg3LwjTgx3alNxnwOR/IsC7Q6jb6uoJkamMEQocRzYk3q2CUS+yZ6ffXeXxiS8D+IYr41WNxHo7U707nm9zDlHPHAaVGgimQnEwgKmAVgPYC8CYbf/qZgAboOhVQZcHdAE6vyfT1gHAcFa8likzZx0U9fx/A5gy6oMR/DXbkT4NvFJz2Bwcb54cgfcvQOvC8DwK/LI3k76Qyob4G0JD8/tF5FqHZ+m52UzbNVSSWBkLNiSWQVAbludRL3hdb/vC/1LZl6mrO7kyGL+RO//EZvoB3Kxe8G2+v8QVRr5B/kAyMvG5iX2woUMGCTUsACRDplIeX3P+7dNpCAIANcnkGFmf/wyAryA814Zuz6MCuagn03p/WX8YiLdcBOhPUJ5FgG2e4OJlHen2cnvw2njiUwp8HwXobj2qgbnKW3o6W/9Kjz06bL1eJHc/IHNs+LgQQBp55ePI2bqJKGkAsRA8jqrglN6O9D1UdggxYEMiKYIrEZ4roYczdXpF5PKpe0ZuCHsRWXVj4gxP8VsAE8P0XKJ6ak9n29/4RheGKfWz9opW+I8A2H+0383qCdFDWNy5E51mzRob3eI94sxBPtE52Y621mH9t3Pn+k09PV57e3uOyg+epqam6AtmbEqA2RYMZ61GIq/vXZx6msqMML9vSkxVgzbYUNRZAEcvkBPL/VtduHONlg+I6O8cnqIsACTWEou3PAjokeFJ6mRmtqN1KZXdzodu3bPbTEsQBwgguNUE3hXLl8zP0BzEZka+SXpcKg+gl6YkJciWCRmih1NeUU5eojeV2pLNpL+pgrfBvauEduEcsRGqn93L2zyTHxSBbKb1ZypyaTk9swBPieo52Uy6pRyL/wCgJ5P+kai+D4DbG2ai59Bbj+I6sT643JLiP6jiChb/FYYnM22r1AtOAbA2DC5fFFfXHX30nlR2CO92ZzqVzaQbAbwfwDNl9vh5AD/tC8Yd3tOR/l05FBkt70jf5klwJIBQbayoeGfxbS4c0ah/OUa9+A8QyM9Y/LdzVi5cuBkqn3MnL5N3DPs/njcvYPHf0Fljxl5hSfEfBPgMi/8KlN+3p1dA5FSE4+pHUeg19fXJPagsIYQMOQtaH6anERNUUtNXku/v584/cQUfirmeZ9pjjYmbpzXOqqNJiK0UpEuKAt00JSHEuvQA8jitQF5Nb0f6HgOdi3Bcn3NXXvSwbGfbD7hZsL3Grd8T0WvL4FG3QPTbm4Kq6duuDSvra4Z6Otv+IKqnA+hzd93CW6dPbx7Pt7j0VMebTxbo5y0ZzkPjcmuvoCoFXBfaF/4X8E7H1msbXGdKvj9yGVUdMiabSV+vGjlMVK6E6wXjg+Pf4nmN2Uz64meW3rupnMRe1rGwu9/bPAvQW0KU3b6tvr6+gq/yyKltmHMIBOdZMJTARCJ/pCK7JtuZngfgP068pYq5VKyE73Jj4i0APmXDWETwQE8m/TuqUsB3v6N1qTF6OoCBMKSbm6P5r1DVcOJ5bretEAivLCc2T9D+MD1OIIhQ1FdiBgZYAEjc80yKuUb9R2INiV/HDj96f5qEWBefFmamYxlNSUrgUgkZ4pzRJTQC2RHLM213K/A9hx/hRaicl82k3/pkpm0VFd1BgLNhzwugSIfWvQke8D1zeLaj7Uvltqm/K3o62/4GdXqToKp/HE6hkqVl2pFzDvYg18OSK6QVclFXV9cAlSks2cz8+ap6fjjWALlo2ozZh1PVodPbmVrX09l6iW80DmhvSB9zE0QvymbSzT3t8x8qV61Xtbf3Zesmnw3ghpA80sTN0Ykn8C0uwDorwRUAohY48/vZLWzQsdEPHRnq5Fh8djUVKz41DckaVVwPO74W5zSvH0WZH8grBsuXtD2g0IvDsfbgkzVNsw6jqoQQMoRw2SBU38bE8wxVJSQ0RCE4D9Ho47GGli9ObmqqokmILRRmk0tYAEgIsXD1zXv/phXIztgcVH0TwLMODv1BMWjKdrZeTRV3Tnf33f3Gl7MAeSFkj9anwKU9HekTutsXMP7aAdnOtn8o5P1wtMunp3I6VSwhc+f6Jm9uBLCPJSO6qzfT+i8KUxx6O9uuU+CXIXiUiPG9n4NHpIYfJyxp68oZkwAkVLcZKLAMIrOzHW0/Rzi6XY+MefOCbCb9ASiuCoe+wkMCI6SmKXE0IG+3Q1D9AxUZpG4T/D8DWO7CWAX+G6hYcUkmkxGR/J8ATLJE9KuzS9seozJFit8zbb8KyQ0PFWL8n1HREKLMyQgp2uslEqoCQF+Rp6qvJMjtTR9KXGdPiH5rjBn7eE1Dy+k0B7GBAnUAFF4BTIoOowAytNwbeHavyMO0BNkZzyy9d5OIU0UAOQBfqZ4Qae5Zkub11oNgeXvrahXzsRCthAtN4B3em0l/F9zU3yW9mdabAHzO0fXrlLq6kyupYmmIPbHqEgDNlgwnCCCXUpXiMm5g7SehWBSCRzm2Np54JxUdPiuXLHzKE30nEJquAveYPI7MdrQupbqvwGQ70xco8Fvnn8QDOwCONJoO8GXY8XlpoKJPb6MigyOVSuVV9EonHA7QRMWKnOevCz4H4ChLkreNGMhdTlWK7DArzYUAOkPwKCfE4i1nUtFwoVBuWxFSvDcsVAWAhgWAr2GfgFcAk7DEAzhIRG+LNSZunjZj9n60CBlNClIAmNfgCZqSEGIVEQzgrHkBDUF2RQDvT67khyL6zmwm/c1UKsVEcQj0drT9SYEbXf8+ANFvV0/w5yxfOj9LVQdHNpP+oaPa7xmMW38sFSw+tQ1zDoGINRt2Cly3ItP6CJUpLl1dXQNe1JsLYK3rz6LAt+rr6yuo6vBZ1pFuB/Ar56eC4lvZTPrUFQ+l11LVHdtob2/zBQDud1zp6dOOnHMw5RwescaWGRCcaslwFj72WNtGqjJ4KjfhGgDrbB+nCAsAi8nUeMvrIfpVa/T28KPsw4ueoTLFZeXChZuDCN4BYEMIQpJvNzU1RakqsSiRYPENsXmG9ofpabzAcL/yVeTzOfogEraFda7xvcdijYnzwN5WZLTWm0L8kI37blgGoJ/mJMV1mvSTZAiIrKcRyO5Y3jH/UQBPO+D/vtLT0XYrFRseFV7kE3C30GOzQE7KdrR9icWfQ6eyT88H4F7HTN8/keoVPw9SCX4DYKwl4zEq3g8oS2lYtnj+kyJ6bggeJdZXsdf5VHSEYZZGfoytDcRdxKjoR7Od6S+D3YF3SXt7e041cqYAThdaBzk9nmoO913XS2HNB3i9n4oMjccea9sowJ8cmGgNVKt48bsPvQqALd3S+/ojA7zStUSsWJzuUZWLQ/Aoh7xgxnyYihJCyCAI2RXAQVT5bZ+Q8mAiFL+OxRP/qG1KTKU5SMkT54L8lONSefAaYEKITbmBpzyBSwY3V4CMzeNT6D+zna1XUKnh83h76nkBvuni2FX0iz2ZVm4QDpNtnVXOArDFLeGVV/wVmVi85WOAzLFmLVLcsa0onZSIno62W6H6e/efRL8yfXrzeCo6fHo7U70Q7XRU/8t6O9p+TRUHrfW6fASnweEOQsJrgIdFbVNiqmyNCa3AQO+jKsOwm+ImB4a536FNyX2oVhHi94bmTwFotmhIv3nqwQdfoDKlXMdbr4XiZtefQyBfndzUVEVFw4FA1OkHUI9dN4i975cJVwGgzyuAX0MwMU8fRMLM8WqwNBZvOZOmIKUkUsCf9SiAepqUFC0XEWWvVDKE+YLltAIZJCtsnsre1k4VSplGxtiBtT/vq5h0AYBD3Bm1vIA9I7+ieiMjm0kvicUT3wLwDYeGPXPajNn7LVu64FkqWHimHTnnYJM337bqbQe7/43KIovoRYJ8EsAUhx9j34EquRiOFrpbNBnSAOKOjfpf2UwbdR9q4L843ROLJy4CcJ2bc1WPx9YudswPhoLRDwPiWzKaDbEJFYv5wWLo9Ham58fiiVUAJts8zpwxrwcwn4oVjuoZc2IQ83WLhpQ3gXcllSk9UT/ysZzJHwtgf4cf48AKM/YiAN+lomFII1R4wx8hRXvDQlUAmJfIJmoa0qUAWABFl3qyTNS8AJUNIlhrFHnfw8ZX/MsBNuYrXlsMGu03VYh4la/9BKACyMTt1p0qqFSqp55AJmz/Z56qB5EJEIxRxV5QTFLBXgLsBci+gO5NuUrOBEBvjsUTP9rL2/yF9vb2HE1Cik0BCwDNIwx0CSHW4IFddMjgVi/IGrF2/0zv7OlcsJgqjZyurq6B2njLFxT6Z3dSR72/N5XaQvVGTtXA2u/1VUx6N4DXOTJkMZ53LIB5VK8Ifj8XfBsie1g0pAeXdc5fQGVKT29nal1NQ8vHRfR2t59EPllfn7yyqyv1IlUd5pIL6Xbsa0YQQC4Ei8CGRTaTvj7WkDgVYk9HuCFwwLQZs+uXLV3wMJUcHMlkMrJifd6m6xYzqVSK3T+GGcaJys0q+km715SABYAFxouY70JhUcc0vWP50vlZKlN6Hm9PPV8Tb/mkQG90OnoHPjW5qelnq9rb+6iq45kYRNX1RyDE1pjK0zw0PFPURyV9/quD+/x4ce3inlcF/ulA5PwVmdZHXBhuTTI5RteYAyOeTjbQyYBWw5MYFLUAagHUAKjgzCzKWvvpNWZscyw++53ZzAKeByTFzZ8LNnPFY7ENIcQmMjQBGdRCKPaeJBPIn6hQ4ejJtN4GuFMcLEAvVSsMXV1dA4B3ARwqlBDIbCpXeKqbWhoh8m6bxqSiv6Uyo0dvZ+sdorjN7afQvTdXBh+hmiOIB4HnHNP8dlc+MNtKEOACAE87OXZfElRwCH5+XXCqAgdZFOU9RFWGj/HV+muABR5vyClk/B6fPQsKq67NEgXj99H065nWm6D4i+OPsV+ljvkQ1SSEkF0SDdPDTB2fZwfAMCF4WCdGTnTp20xvKrVl+dL52WWdrW3ZzvS8bGfbD7Id6Y9lM+mTs5n09GzdgVWi3qEi+g4AX8HW/clHARgKXhCOAbyOmsbEm2kKUkwKVgAICfjxmRBiDSaQRbQCGdxk0X5LR5YfGAj+ToEKq7YIvu/KYBWYSMkKRzYzfz6gt7qjv86iagVHPKM/LWgONHL6PBl7E6UZXQY0uAjABpefQVUvqa+v5ynd4fvcTW7pLT+naiNjxUPptQJ8ycWxe5AGKjiExV/0HMsczlKqMnx629MPwvLiXYFOo1IFjN/h/wQWdagS4KmeQybzW80oY4z3CQBud1JSfDqZTEaoJiGE7GTNNV6YCgD72QV8B+t5kHe3xaPqA6G7vWnevKCnc/4TPR1tt2Yz6W9mM63vzGbSr/crcpNUcRxUPgfgzwCe4ewdNnuJ4q7aeIIHQUjRKNjm19qNez0OgIsXKeJiym7kZLCeTXX9+bcvoyHIoJIMzwssHdojK7sWrqFChWVs/9o/CPCUI8OdScUKi2/wNQCBE4MVxKfMmjWWqhWOWGPzXADNlg3rlp72+9ZTndFl5ZKFTynwbccf4+DNlZPeQzWH63PFpZu7nuk95MBWijZyejLpawFZ7Nq4VdFA9QbH5KamKgAn2yUgllCZEVoQ8i/LBxijTAWK3+OJcwA90ip9Ra/DvHkB1Rldli+dn3XpgOdOAtCa5RuCd1JNMqp43HQjNsdUGqICQHmRioYLESmbrnjdixZt6O1Mp7Kdrd/PZtJzs5n0AUa816voBQrcCOB5zoghEVHgmpqGxNdoClKU8K5gP+mD124B8F+alBAy+p7N40Y6GXygbqy9EvRZqlN4urq6BlTwSzcmJw6HXZ3K3E9Wl7R1QfVGR4ZbEen3WARaIJqamqIwcoV1AzPm91THEiZEfgIg6/IjqOISChl+FPgrCw8K54Uh5tPuJTA4AnPn+pRvEMGUjjkNwDirxrTFPEplRugHxTxg+RCrYVHHOlepSSbHAPiWfQuHz/jdEjblq77v0AHPHS/pqozfXUegLg9f2XWD2E2ICgCV1//uKK5yuQOgES1n7ZZ3zH+0t6Pt172Z9LuzmfT+6uEYgV6+7ZClcnYPIoQQXBaLJ37DjtCk0BR2U1nQSZOSImbEtAEZpGfTlTQCGXyQpZZuoMoLVKc4+PnIdXCjC9y4aY2zaqlYYVHffMuhJJQFgAVirRn7Xghse5/WVeXXp6iOHfSmUlsgeqnjj3FEbVMiQTWHEXU59HFSBIuoWOHIdrS1KvSfjg27qnrZM4dSvUG8LypnWjak9Y891raRyoxQ1zxsj5/GVje1HEClRoa3PvgggIMtG9ajyzvms4jXEp5Zeu8mo/oll59BgcaapsTRVJMQQnboI8NTACjKvR4SZkxve3pRT6bta9lM61HioUaAT0OxCCwG3B0fXrE+f+f+M04aR1OQguXSBV2MjfIaC0KIDZ7tYRqBDDoyFbWyVbfyVFjR6F6aWgngPhfGGiAyjYoVlt72hf8FcL8Tg1VhAWAhmDvXV8C+wi6Rv3Z1dQ1QIHvIdrTN2/Zxyt24xuCjVHI4hlNnrm4xIv+hYIWOu/ED18bsq2mgcrtf/wGcYNXS73inKmvW66VtjwFYZbezDmqo1PBpamqKKsznLFwv7qA6luX3nW03AG5frS5GGL8TQsiO/KMnFeFJOtnsYYchswnYhTSE9LSnV/Rk0j/KdqaPUY3UKuRrcPzWlSLnGCdX+Zv+xiJAUigKfa1cJ01KiukBCRlUYuDLAlqBDD7LYHvR8lxS5FpHJmgN1SqC/ir/58R6BmmgWiOntnv1WQAOsdAR3U51LHQPnnzN6TgYODN2+NH7U8ohrraeOFMAuMcW/3EqVliWZ9ruhmvFAwrGCLuhpmf1GwBMtEs2y4vW3Frv5ts8Pl/kQKo0fF4Iqt4DiH25sMf43cYwTlUuczwFOeugo47am1KSUQpOWHxDbPbw0RC9a2soaMimJwz3FQdBb2eqtzfTenk2k64TyAkC3AQgR8u8JsOdU+X3/WVyU1MVbUFGnrYW0tlFvQxNSggZbQaCyr/TCmTQYZWnAa1QfuTH5O8AYH2XRc8IrwAuRuJ5yAF3AXDgunitp1ojd/MKfMHGcKVqwL+H8ljoHzpa/w6gzeFHqNCKivdTySE6isC4UgC4tqsr9SIVK8aS68bhgJeHC3YJ3t17bXCidWMSXUllCobdRbtGeAXwcJk71xdPL7VwZE/3tqcXUyAL4/fO1jsE6HD4EcZW5ivfRyXdxPBgOSHFi51DdAWwCtgBcEd2GccOgOW0ZPZkWu/vyaTf5QeRWgW+A7Aw9lUkK83Y2+vr6ytoCjISCloAuPHtt70AJzZTibPhHiG7D6TNxvP+xK4YZPCeRT0WAJYhKxcu3Ayo9dcAG8EUqlUE5s0LVHWeAyPds+bIJDcPR0BNQ8tbARxh4dAWs4jH5qzD8S6AqudQxSHazPNdiQf5vaVIBIH+GYAz17IrUEfVdmcjPc6+MXnPU5lCGVMesnt4LAAcLrFlq94BxXT74kOkABgqZKnLF3zN7Sdg/E5GBw8eN92IzTlPaAoAhR0ACXmJ7qWplb2Z9Bf6vc0Hq+KTAFbTKi9x4qaKSdei8Le4krKK7woPuwASQkaPiKyjEchQYKvusuYu6z8OAHtRpqJFwTe7MEzJm0Mp1gjsJ3qRpUN7gOrYS0+m9X4A/3b4EY6obZpzBJUcPIFxpAOgYj3VKg4rHkqvBcSZzqwCHAx+EN5lpCeQN1j4Dm+mNIXK4/0uu19SZQHgsMUVK+N3FcbvVsfvHem/AOh0dfwKNE6Nt7yeSjrptNz+rqzKAkBic9IzPiyPosBzFPS1jAuqnPVBIuwAO1JWtbf39Xamf6ITIrUKXAxgFa0CCPCuWDzxfVqCDJfCfyxUsBU+KV6IRMhuvZoupxHIkIIpdgAs31UlEv0rrD/BL3tTqeLQ29G2CMAK+yeqsgBwmNQ1zZ4G4I12JvKSokLWBwg/dnn4xph3U8QhyO15bhQACrZQrWKaV29yaLgVdTOSk6najqlunDMdwJ72xXV8hwsWy3emlkOx0d4YXvakSsN6d18HQbOVa0QAxu/Wp856pcvj94F3UkUXYQc9QorIxPDkmixs2hHG8ApgAvSmUlt6M+mf9nubD1HgUqvzvNLxqVhDy0doBjKs6LTgzhr6IM1KCBlFr/YQjUCGlHyJsgCwXBOLxamnAXTYPEaFsgNgUc0L6zv9qKCWUg2PQOV8ADZ+SBrY4vUtpEJ2U71n9FYAWWfjG+Bdls5/O1MIz5F4kMVDxZ0HFbm/AnAmNzDRfA1V24kPNMFRluaefIcL6RGBRyweXj8lGoYfVnOBpfHLqp4l6cepkN2My627EQ4XWCj03YzfXYQ3yxBSRCaGJsaB9xTlJGQ3AXd7e19vJv3dvOhhgFyHcu8MJfqzaQ1zZnNmkKGvOYX+gRWyCGzVRggZrZTb89K0AhlaEMU1q8yZb/f05BXAxURFrL/GyRNzIJUaOnV1J1dC5QOWvtlLVrW391Elu0mlUnlV/MThR6iuaUocRSUH+VYGbnQAFA95qlU8uhct2gCHrg9UlRqqtpP4yZO4naKxiLew5rS6AHCACg2NKbNmjQXwXkvn2r+pkP10dXUNiOrPnY1HgWnVTS1xKklK6t88Fp0Sq5kYlgcJ4LEDYCjTEVIMnsy0rcpmWj+gijcCKOdDOJVGzJ9jhx+9P2cFGQoFLwBcd8bt6wA8QdMSQkbFqeUjf6cVyFAwRg2tUMZZmkqr5UOcmEwmI1SqOPhB8E/bk3VVOYBKDcO3j9/4dgD72jg2gXZQIUfiSn/MtQCcLdYUg7dQxcEReIET8aCqcoOu+Dae79Bga6jYTuIAlUOslAySozoFXOdEVtr7fgo7AA6RyObI2QAm2TnXwPjdlXnkR68G4Oz7J4GeRhUJIQTA1vqF8WFJMyMvjl1NSXdgmIBXAJOd09uZTumEyEyIfhso2wOxByIavQFFqOki4V5Ai+CxdTFNSwgpebDoI1h7/rwVtAQZCuJ5vAK4jKnw/TTsLgCTVRvDc9rRNpYtXfAsgG7Lh8kCwOHEBMAHbR2bgXZSITfoab9vvYje7PAjcANxsIutIx0ASQnWD8/6wyHbj7aaiu3knYZaWQAITyuoTiF1xmqLB8cCwKGaTIy18bsYYfzuCI+3p56H4g533wPG7+5pJo53gOIBI2IntU0njEd4Cl5e6O6+m7EhIcOgN5Xaku1o+5Kn3rGA9papGU6MNbRcytlABkuRFk/vQZqWFCGdognI7jza0zQCGbJnUWUBYBnzeHvqeQEetXmM+Xye1wAXlyWWj49XAA+RQ5uS+wA4ztpwRbWdKrlDoHqVw8OfWdOQrKGKg3gvfVfiQY9JcdF9tHGoyxOvAN4R27pnW2kbUVRSocJh1N4CQAU7AA6FmiOTBwDSbO1ci/qM3x1CBFc7PPzGuhnJKVSREFLuqOmbGKLH6aWiO4mxjMMdAJ0vAHeLZZ3zF4g3tkGBG8szwNXLYvHETM4EMhiKUgBoVBbStKQIIR9NQHYTb+FhWoEMec0SXgFc9quLSMZu52YmUKWizoCllg9wH14DPTRyQXA6AFttFgyMVcYrDrE8s2AhgIecjY+9/KlUcffk2QGQbCObWfAkgC2ODHcfKvZaetdhCoConWGnsgCwkHjG2kOgnugABRpCvBLk3wHAt3R4z/QuTvHAsUP0ZNL3K7DM2dchkj+FKhJCiDcxRJHOMuq5k/Ro7FgeciSDj/Ha71vfm0m/G4LzAeTK7PGjAK6rr6/nrQJk9ytoMX7ohv3XZABspHlJQUMk1v+R3RHBfTQCGbJvMcIN33JPNBWPWz1H4TOoL6r+nu2FPX52Y7AvlRpShjPX3gmH5SsXLtxMkRzzEyK/d3iNeyMVHITbcKYDIK/oKgFGgB5Hxsou0TuKnTXYz15nIywALKjWam0HQKNYQ4WGFCPPtXh0/6VA7s0oT+Bs/A6D4ykhKenbQoidgXNoDsSrO/klIU6Q7Uhf5Yn3ZgDPl9mjz+yrmPh5zgCy2xW0KD/1uFQewCKalxQ2SGIuQnaNycmfaQUyVERYAEjsLgAMoFFKVFQL9zowSF4DPEgOOuqovaFq7fW/EDxBldzD9+VGAE7GCwIki5b3hwgvH7ihL5PiUr04jzsyUhYA7jC/M/Z2RjQYS4UKuD5vnPA0LL0uxNOy24waNrHDj94fQMLixZfxu5NLefB7hwef3BrGE0JI+aIShOZbqAftpqI70dnlK4Bh2LZoFFnWMf+fQQRHA1Jm75d8oXrGnBhnANn1ulO8RCVN8xJCShYoejKw7qO399ISZBhhekArlDe+2P1BX9SwA2BRqbB+7fADcwB1GhyVuYq3wdZr/wBAwY9+DrJs8fwnAXU1v90rFk8cQRV3Tc73eSCEvOyqVVY6MtQ9eP3LDvI7eNZ2AFTB3lSocHR3390PwMqrdhX6HBUapK2ikTNg7/W/0LLbVAxJ/N6xsBtAu6PD329qvOV1VJGUaL1isSmxEk/loNDkJ8oOgIQUgxWL0z0a8Vsgmimjxx7rR8yPqD7Z5RpavMCRBYCk0JOKxfRk54iPlbQCGf6SRcqZvMgqu/2bx43dItLbmVoHYL3lq9xEKjVIhy54s+ULDjuIuBss3OhwGpWkgrvGDwwPhJDt3hl1pnNXn+wxiYq9Cs/YGzcp9qdABWeLjYMyvvcCpRlkpgPvZKtdirADoMM4G79HVBm/O5UqOj16FgASW1+syWF5loiJ8DABIUWid3HqaZGxx0HL52ZSVZxeG0+cQPXJTnPYYv3gcWOChbD0FCZxE2YiZJf40kEjkGEthJ5yw7fMWV57wLOAzZ0glQWAxY8xnrJ8gGOo0iBzG8Vxdg+QHUScJRK9HY5eAwzBHAq4GxN5jnQA9JgWl2Y+uHN1p6mo5DXArwmdpdJif7wfBSo4VhYARjxhB8BBkEwmI4Aea7VLgcf43VFM4N3q7FIGHEsFCSFlnZMBYekAuKF7aeopKrqTtdoYZ79xiBE2FrGEnvb71os/5k2ALC6XZ1bgCrB0huyEohUArjrtrj4BMjQxKaAzI2TngaIX3E0rkOFNHuWVb+XOvHkBgGetnaI2X2camhjD9k4/Fm9kW0T1zDkzAexj9VwTZcdiR+ldnHoawIMujl2Ao6jgrvH8vBPxoKrw415pLO1M4U7EKAsAX+vzLI6dlQWAhbfpZhtHtdlsYgfAwcRXG/NNACbYPMZcf57xu6MsXzo/C+AhRxezI6kgIaSsI7zQFABKF7i9TUjR6Wm/b31uIP9mAEvK5JHfUBtveTuVJzvCK+YPN9AHaGJSuIiPex1kV/6m/3ZagQxr7ngeOwASCLDa2rGpsANgsUMMyPOWT1B2ABxMYiPB8daPMTCrqZTTa8Udjg59Ss2RyQOo4M7JBxVOxIMek+IS2dl3pwOgxwLA1/pqtbgAUFgAWHib2tgB8NlV7e191GYQ6gVie/zev7Jr4Voq5TSuxu+xunjLvpSPFD/wZX5BLEXDUgBouijmLmR2uAMgsY+VXQvX5KGnAHiyLN4f0cvALoBkR+FdcbN4YQEgKdx04iEJsjMi6Ntw7t/X0BBkWL4lCOhcCBSw+KM+rwAuuh9Qy6/6M4YFgIPLPWzfQMwtW7rgeQrlLoF4rm4gwssFTVRwF/ZxpAMgKVHkJXCmA6BCq6jYq2yi4ls8vCoWdBQcCwsAZRllGay/NZbH77oa7NrjdooIdTZ+D0wQp4IuTDJeAUlIkRz4geFwEd4jFHPnjNFKcXiO0v9byJOZtlW+0ZMBrAt/MoXDaxsTp1J18mqKWgA4bkyQBtBPM5PCODIWMZOderIsjUCGHad7PjsAEohig71xPK8ALv46ouwA6DjJZDICIGG3jHgWAIuMHGZ5x/xHAe11cewG+gYquItlIBfhu0leIoA6U6wt8Bgnvjawt/o7pCoOpUgFFTxnn8iGBYCDoK7u5EqBzLZ8fj1NpdymJ9PWjq15mIPuzWf8ToqfB8Hjphuxjin1s/YCMDYMz2IAFgASUmK6l7R1iep7UAbf4dXg81ScvDa+KyKrTrurD8C/aWZSECfGw1RkZ/h4kEYgw07CVFkASABP19s7NPEoUJFjDHjr7R6gsABwNyxfn68HsIfd8wy8/jcUyP1OjlqUHUR2QS4aOBEPKq/2KAn7oM+dAkBlp+jXvicyYPP4AuAQqlTQl8C6zWHx2AFwMJg91s8A7D7oJMr4PQzLggD/dNO/mUbK54JMxu1NK2XXDWIffiRaHZpnyQcZKkpI6enpbPsbgG+HPxBBorZh9pFUnGxPCTaU5Z80MylMMkITkJ1OjhtpAzL8ZYrVxQRQxUZaoYzdAEyf5RF7JVXanYZw4XrTtVQqFHPtfkdH/jqqtws32z/ADoDkJdrb23Ow8lrR12LAAsDXBvZ2ayeeYQFgYfUeZ2FuyQLAwfgvkSb7x8j4PRRuQt08wKOQw6ieAzp57KBHSOHjZZ0ekkdZsWzpgmep6C58aKVx1ocaVi1YTzaT/hqAf4T+PRI5j2qT7Sl6AaCzJ6yIfUEfTUB2mGQjWHPunffREmTYC6HHDoAEgIq9VwB7XAKLHmOo2F0AqLwCePevsBMFgOupVAj8RWDuh5sf+Wqbmpp4VehOiFaOdSUeZExQOl50ZEqwAPC1gZ3VVwBDMZ0iFRT7rocz8hhlGcSrKmJ/dzNVxu/hCOCd3PgV4JBkMhmhgJbr5HoHQELs5NBwpCVop5S7CbWM4TcOUtTMLA/9AEJ/KF/eVXf00XtSbvI/il4AuHbtvosAbKCpycgjAZqA7AAfKyGcHWQEoVHgseMLASD2ftjnFcDFzwRFN1k9PgU393f/nlh/vakyJwoFy5YueBaCLgeHHnkBFdOo4I7p29LPeJC82ms7UQAoAAt7X4Un0m+5aq+nSgUNsGzrAJjTSf5SCjMo7awvAPQ8YfweArKZBcsBZB0cesWTG/prqCAhpAyDhFAcmFGPBYCEjDZPZtpWqeolIX/McUEu+k6qTV7KY4v+G86/KgfI/TQ1GTk8CEB2QERaaQQyEgLfsAMggXqGH/bLOsKwvAMgC913zdy5PqAz7Xc07CASGgwWuBn0RNh1amcpRbTSjQJAESbFpbO1GwWAyiuAX+OiVTZbPsTptU0nTKBSBYuTqywb0SO9qdQWCrNr6uvrKwAcbn/8zgM8IVrXnYzf1XiHUjz7ozGXR6/cdCNWhndySDjyEu2gmvT/ZPTp7Wy7DoK/httvggWA5CVK0lFGoffQ1GTE80i5lpIdLGoebqAVyIjmUJ6BOgE8m68AhvJjXNEDYs/qDoACZWeqXVD3+KrDAOs2f187z9hBJDx5CWShkzFPSK7RKQaVm3NuHAhRxgQlfNGdKAA0vAJ4B3GdPm/9EE3/G6jUyJnc1FQFwLfLdbDTy2B4MbJ3PYBKB5Zdxu/hWdidjN/heTzAY//cYnxOSOHfqzD4Pg0GzCJquRsj8QpgUiJEcCGAvtC+S4pjD443T6bSBChRAaDve3+jqcmInTNNQF47KcyaD93+DxqCjCgwitj5oUZ48XmpDb6RRihfAgR2J38qLADcBTlfnChqMrZ3miSDXzKMcXMDUTCV6hEyaHgFsKv5nciz1o9RcTSVGjljgnEH2TYmD/IfKjMI3+UHTsTvAmX8HhKMuHmAxxhzMNWz3lO4/f2WB4yIZVQ3tRwIYE/ncxLgkZVdC9dQUULsoKc9vQLAj0L8iF5E5AwqTYASFQCuecetKwE8QnOTkUZMhLxiSkTkSV6LSAgpiD9Rz96T/coa+GIj8Kze2BGudbtOaIxOc2KcqnmqFQ6yS9seB+QF53yd6BSqt2OCiXlX1lrGBKVbe1+kFRyN633/WfsnmDmKShXEjtX2DcospjCDkc5zIn5XIEe1wkFsvL8UwCbn3hVPGL8TQsosRgjHzQUekKaag4i1tMLZbxwiht/rHaMvqPoOgJWh9Z+KU6ky2bYGlSxjvpvmJiPzXDQBeRW+MogmhBQo2czbWwDo8TRu0ZcTCazeCDAAOwDuKkQUVzYQhRuIIVo2AO1wb60DNxAJGez7YtSNAkDGia+ht2bf52B97CTHgF+5CrCuSY1lQ1rbUzc5Q2UGoZ0o43dSUlKpVF6BJQ6+LIzfbcf5A5se4xFi14wEXh+KWAdYQDUHk3fzCmBSOp5Zeu8mhX4rtO8TkJwya9ZYKk1KVgCoHgsAycg9FyGvyrD/QBuQELs8Jj8lDYgim+wdGz/GFZscfHYAdNpfurGBKAA7AIYqDNVOB0fNDcQQzDyaoFRrr+dEAaAq48TXMG9eAMD2Lq37x+KJGRRrxGuxbR0A7982/8juFzM3Onh77OAdrrUdDsbv7OBNijzDPOYXxLI5CW0Kw3P4nmmjmiHHCL/XO8je3pZrAO0N6eONjfRH5lBlUrICwPVr9psPgPfdk5FEfoS8jMCs/cjt99AQZOS+hV0zCKCSH+AcLV+ikQG7rwIyjIJ2EyLWurHcsAAwVKGocbCDCLBfU1NTlOoRMqjFZQuN4DRPW7+OACdTphFjVQGgit5HSQaNE/G74QGesOFi/H4gSnmLFyGEjD5HhuAZlne3L1hGKQcRP1eyAyApLe3t7TkVfCesz+epHkeVSemSh/OvykHlLzQ5IaQggWFEngQ7IpEQIyx7Lil5i6/2MaK8/rXITBk7ts9uh8A5sDOSyWRELNv83amM7CASrkRaXewgAm9drnIS1XM4BwIPBZRw7e13ZFZwTuzwXcETDrzPLAAcuRFjVuVtvvyDouyemmRyDICDHIn3GL+HiUBcjN8jU+pnTaR4hJAyihFeF4IglTEhITYHVxv2vBbAs+FMkTGbChOvxL/tVpqcEFIQfE3TCCTM8Arg0jLWiw7QCuVLKpXKA8jZO0JeKbAzshuDfQFEnPDrquzcECKmTIo+BqDftXEbCAsACRlULC5OxIYec4YdR06i/3VglLNrm06YQLVGMP0F9lyjLHhsxeJ0D2UZhKnWD+wPRzqaqTGM30NEf6TvYQDOHa7zqvyJVI8Uz9HxMAmxiA25BgDO31qgAnaFHiQVxuEOgGxQ4yzd3Xf3K+SakD7eUXV1J1dS5fKmpEnsHhq5F8Ammp0ML2qiCcjLRDy9ilYgBXEtln7oYAfA0mIimy2+AljY/a00WNvdQTgHdp7MGN3PmfVG3ChUJIMjlUrlBXDuSheNykSqt4M4ID/eiY/Ongg36Er3tvBwiNPyyWMOjDKipv9EijU8qhvnTAewpz3xuv6JqgzWVnAmfhcRxu8hYlV7ex+AJ10bdzQAD/AQQsojRoA0hSETiaj3T6pJiN34EfklEMpu35XBuBdnUuHypqQFgCvPmrcZwD00Oxl6yEQTkO2mg4/+5869cz4tQQgpFPmxY63d5BV2fytVrGFtwmdgOAd2/n7s49BYuYEYvgn4uIO+jhuILi9Vym5vpTO29DvyTnNO7DB4kv86MtB3UqxhLsEmOMqqfBIeCwAHSSDuxO88wBNKnIvfVXmAx+qV3PFvduwmTazydwbOFwAKkOnOtD5HNQe7xrELKRkdli2e/6RC7g1nsmxRp3wyWvFdieecyG00Oxl6FEATkO2mg4+HaAVCSCHpTaXs7fIiLP4qUWJkbwdAYQfAnWGAfZ2JXww3EEOYozzm2pA9FgASMsjX240OgOpxw2RH+GMGHCkAlNMObUruQ8WGE7rLkRYNZ8mKTOsjVGWQsYh4ezszz1gAGEbv4Vz8rmD8Too5wRhLEqvWXecLABXyVypZNjOWezau5yXQ34czV0Y91S33uV3y1S/yFwC8SoUQMnzHFZWbaAVSKCIa4YcOAgAG1rb8ZjJZIuxt+S6cA7swDTcQySiKCgc3ELWKwjk+60hpck4RfrdymO5FizYAWOHAUCtymj+big2LN9iTrfH63yEuZO4c4AHj9xDiYAdAM46yEULCTm3TCRMQgqIVgbmTag5hjTNRfuMgo8YWb/MdUGwM3XslejjVLW9KXgC49qx56xW4n6YnQ/NWNAF5yWspNo27moYghBSBnI2DEsNVsETY2wHQKDsA7ixENHCna45gDBUL2fxTb5lrYxZ4FVSOkEG94W5cAQyPGyY793gL3ZhqeB+1GhqTm5qqIGiwZDgDJhr9HVUZypQ37lwBbDCWioVsZVDjYvwepXKEkNDHB2bzsQB8xx9jdU+mrZ1qEuIGq9rb+1RwVwgf7TCqW954o/JbldcAE0KG7bVWr/nEHzbQEISQImBnpxd2fysVFncAZBHozsMCmejKWFWxBxULFybAk86NWZUFgE7DK7pKZ2l2AAwBbY6M86jqxjmvo1yDZ4yOfSOASit8BXBL7+LU01RlSMmNM/G7eML4PWz4vnPxu4Dxu90CGX6vIaQQr5J6x7mfROIusJ3NEG1mnP3GIaD/DwOeIozXdk+ur69n/FjO83o0fmkQxR0AApqfDCFwImTrVIgIO4iSQs8qbqSS/2HlRq9hMlkqrC0ANIyEdm4b0UpXxirgBmLY2Ce6aeXWV9QdBMoOIoQMaoFxpAOgMpfZGZ7oAlfG6qu5mIoNZd7jLfYMxfyMggzZaM7E7zzAE0YqVrg2YgMwfidFdMnsJk0smYuiSdefQSC8/pcQxxjIBffA5sYQw8PbWDVpCtUtX0alAPDFt9/2LCBtND8ZfODEfW+ylSDAz2kFQkhx1hpbOwByESwR9l4BLLwCeBfvrTOn2UQMNxBDRnt7ew7AM469M9xAdNvrcYOuRCic6QDIObETDt4zsgTAJjfmG95fc2TyAKo2uDmvwKm2hALLMwsWUpIh4078DhlHucJFT/t96wE4dbOMQNjBhRASaqbUz9oLwAzHH2Pd2Nyaf1DNIeZBPNBGRpmVXQvXAFgUuqR5QKupbvnijd7MU14DTIYQBDAGIAB8bN7w0dsfpCEIIUVZaywtABTwCuASYe9JL8M5sAuc2QxRxXjKFcrFw6kuIiqIULQduNkgz4STvALPU95a4TipVCqvUFc+5I9BPs8ugIOgpmH2TABWdDMQyBVUZFiWc6cAkPF7SMN3OHUNsIj6VI0UL+jlxhsZffxK/1iMZr1CYdaWW7u6ugaoZjmFtPxeH57YUOaHbnp63v5UtozDu1H7xZ73Zzh2XRIZRUfFZZQAgI9OGoEQUrzFBkzSy5ucxXOTkdDOM/RKdwYrEyhYCJcOD6vdemWEa53bPo8bdCUiUDcKANkxYTc+WnG3O6kIPlp39NF7UrXd2Ek8W67/XdKTab2VigxHQ3UmfjdQxu9hnINwK34H+K3K8vnE7zWEjBBP9bgQBDg3U8lh5LNRw3yWWOCDELpbS0V0bypbxnN6tH7xmnfcuhLAA5SAEDLoYND3/kArkMLPK1s3zZQfkEpucks/2hnhgYlSJEU2XwEMXgG8c+OoQwWA2IeChXHpwHOOvTP9VM3pxYofx0uEZ9woAPTgcU7s8pXx73BouBPMQPRCqra7kB3vtSNbl8vAoo/hBk/OxO8ijN8Zv1swXgHjd1LMF4KxJLFhxT3R8fG/sLf0/ZM6DiemjtIHkVHHwG9D2JqWqe5FZcuX0W2pK3o9JSCDzcxJ2XsrXfvUhGtoCEJI2a02YrgKlkZ8e68A5pUCu9DNi7oyVgH2pWIhnIMqzzsVUht2ACRkUO+KH8nTCu7T0zn/CQEecSgevXTajNn7UbkdUz2zOQngUAuG0t7b2XoHFRn2PI86NFzG7yFEXDvAw/idEBJiahvmHALgMLeDG72pvb09RzUJcZPeztQ6AI+FKt5VjwWAZcyoFgBWbt58C4AXKQPZfQBFE5T9FIjI47js2i20BCGkaEGxpauNgMVfJQo1rN3oN4aRUEjmGDuIhDGhFtc6iLADoON+hKfjS4QrVwDD4xXAu42jgDsdGu4E43vfpmo7me6ed74Nrlghnwa/VJbLVwLG7+GMqJ53axoyfifFzRBpAzKqsbqYtzsfLcBcRyWHG1i764P4vT5skxEPhSuNwRiKWr6MagHgM++7dxMEt1MGMgjHS8qdqMeOoaTMEH6AKfVSI5a2+RaugiUys71XAAuvAN65bnCpQ1Pl9OnN46la6NIUx64A9riBSMgg8Dw3CgCV17YNwu+pa53aPjitMdFE4V5JXbxlX0BPtyAuv6430/ovKjIiHIrflR0AGb+P/nhZAGg3xu1DuwqPsSQZbd7qdKoBPNLTuWAxZSTE9e8G4SoANNAKilq+eKM9AAVuoAxkUDOFlLOn0sj4NT+lIUhRvIu1p4yUjo9sDdYNOwCWKMuzuMiOc2AXb4hTV2zkxvoHULOQeQ7oOsfeGV4h5vR84wGRkr0pqrwCOCT0drQtAvCEQ0P2AsVPwY6fryBQfABA5SgPY53k9fNUY+QhsUNj3XPKrFljKVnoAqq1Lg1XwSuArdbHU49WIGR4xA4/en8BjnE6bxRh9z9CwrCeq4SqAFBEKqlq+TLqwen6rob7AKykFGQ3mS4pY8TX7ufOSvG6cEJIsdcaS1cbw1Ww7OemsAPgztMZpwo0xMPB1CxcGJWNTrkTww6AO9QxyLPQhrxydTGOXAHMa9sGGeXL1U7FC8Dsmsbm8yjdViY3NVVB9BILXrfPLlu64FkqMsL5rU518JaKzdEpVC1sa7zn1Ddm37ADoNXzScXtAkBlLElGkUjFabCgTmEE5FTY5GgkVBhDH0QsibeCZaF6IKNRqlrG8emoj+Cyy4yI3EQpyK4TEcYAZS1/BH+gFUjxJphPB0Nemg02DkqE3d9KY2d7jxsIi0B38da61QEwMAELAEOGL+rUBqKIrKVqTIzJIPy17we0QniI+v7vADhVQCEqV8YaW2ZQPWCMGfsJAAeOsiJ3Zjtbf0M1CrCSeeABHjKqGIFT8Xsgyvjd6uhcfFqBkGHi6eluOwDctry9dTWFHIEJHS5C9jx2bA8TkX5ZHq74BLzVopyXVysSaclfSykIITt2EKqehx/REISQEmBrlzUWf5X7xBR2ANx5HiGb3BovplK1kL2febcKAAPo81SNkN3jTgdAj5sOg+Dx9tTzgNzu2LDHqOofy/360dqmEyYo8NlRHsZzGvHP55tUoHgY6lT8Hhhl/B4yXDvAExF9jqpZjLp9BTALWMhoMfWIxCQojnf5GYzqr6hkObt/4RXwIeKxx9o2AgjNoQuB5Khq+WKFc1pz5l1dAJZQDrLzlZQmKFvpo9Lz/Ifv3EhLEEKKHxWrnasNOwCWBKNqr505B3YVIjq1eQMRdhAJGTkxTs3BaBCwAHAHeH7EDT+r3KArFb5RN05L89q2wb/nIlc5l54A9dHN/vfLOtYLtnwWwF6j7Hk/3Ls49TTfokK5LTj1jU/EMH4PW+7v2AGeXM5/gapZvVZHHHfKjCXJ6MTmET0bwBiHH+HR5UvaUlSynBcAww6w4SNEXQANCwDLeY21KFK+gXKQXSQitEG5xlBR+SOtQIrqXniVGvmfv1E7i6zE8PrXsp+bhkchdhEiunVIQFFD1UKWUBu/z6UZePBeFWuo2msxQZ7xICEhZ1nH/H8CeNC9QBAXxuItZ5ajZrVNiakQXDzKw/hWtiN9F9+ggs5pp+J3hTB+D1v8XulU/B6seCi9nqpZ7CMc7wClyiuMyagFBO91e/j6C7B1zch9UDQi7k4B+s8QEp5D0yr9lLOM8x1bBpLLmd8DvI+a7NRR0QZlmQNAg/7cj2kIQkhJlhprk3Z2fyvNkmOxnUV5BfDOTCOOdQCEHkLVwsXYAXUph12XSqWYczu+WNEIpWHA89yIv3ht2xBDKv26k28+9PqaxuZjyi4/M/IzAHuMYqB5b7buwMv45hTYrMat+F0Axu8hI2+cit9fAMDvATavVZ7bHaBUeIUlKT3TGmfVCTDL4UdYW9UfvZZKFiLeN876IBWl/wzdhER4Dk17ygMkZYw1zmnTu+98BsA9lITszOuSMlQ9it71F/51LS1BCCnrxUa4CJY7wkBoF2+tOJbMytQps2aNpXDhYdNexqENROH1Ye6vCCz2Iq9cBnkt9JDo6Wz7GxSLHBz6WFG5fVrjrLpy0aqmoeUDgL51FIfwXzX+2Zg3L+CbU/C1zLXNqOnULFxEDVwrACQW4xm3O0B5quxgRUqOUf/9gLt5jEJ+1dWVepFKFmAueA77UHYADB0q4Ym7FB4LAMs5PrUq/Vf9JSUhO5wbPOdWnkT0JhqBFD8SYotR8nLOaeeg2AGwZHmRtYEQ58AuRHvOtfyrcpNMo3LhYf+BAYc2EPV5KraTtdYEjAfJq5ZeN9Zej0WhQ/eEHi5zdckx6j9QPWNOLOwabe0Koz8dxSGsVo2c3NuZWsc3hvE7gP1qGpITqVx4GMg71QGQ8bv1cYXbHaBUwAIWUvJUC8B7HB5/LhL4v6CMhcF3uAOg0H+G0T2FJ/9Ts4F6li9WOda1Z91xN4BuykJe46dogjJcZ1Wlb/x3aAhS9IVQEKEViN3+0HAZLHOM4RXAO40RJXjWuTFH5FAqFx7a29vd2UBUrKBiO2ZMRcSRD7c8uELISOntSN8D6HxHhz/F8839dU2zQ3uYYPr05vFG/VshGD9KQ9gA4OTezlQv35ZihSPOFQDCwwCvAQ4RYwccKgBUXU7FLJfI8Q6Awg5WpMRUz2xOAnD4QIv8sXtpaiWVLAwudwBU5RXAYcMTHQjLs4jyFpiynst2zUaoqv6GspDXRgE0QdlRIQ+t+cQfWKFOiu9ehB86yP+yNjvrzXn9awlngLUZG+fAzoiIOreBqCqvp3Kh8x1OZCsq6KFcOybn8UAIcdYFsSh0GHiBfgxAztHhxwLjpWPxxMzQCTN3rt9f5d0E4IhRGkGfKt6WzaSX8C0pHkbEuQM8Bn49lQsPG/fY4s7V3uJlqZjlMYXjHaBUDL+LkxK7Nfm4w8MPEJgrqGLh8APPXR/EfcXQoUZCUwDoQVZR0TKOT61LqANzjUK3UBryinWUJig7jOf9kFYgJVkIjaUbvrzyczQWGzuTNsO5UPZTU9gBcKeJuYx7zsFRN1C50OXUTpz6FRUWAO6EaM535cMtU+OSrb05xl8hZtnSBQ9D9EqHH+EAAOnqxsQZoRFl7lw/9sSqawV6yiiNoE8gb+3tTKf4hhSXCic7AGImlQsPVZGIMwc/VHmAx36NHC8AUWEHK1IyYvHZ1QK8zd33Hddnl7Y9RiULh/ECZ32o0H+GcUaGpgAwb1gAWM5Y55w2vvuu50Xkz5SGvDKyognKSm4P/evOve0GWoKUZL7ZetJR2c2j5EmbrQUcLAalncE5sDN62u9bD2CTYykYNxBDRFNTkzMfK4UdAHdK4A/w5DZxM5dRFoUOl778uK8DcPlqxT08xZ9j8eavwJFC9F2spdGa7tXXQ+Sc0ZoOxuhbejKt9/PNKD7dmdYXALi1ueYp4/cQMdAXdSh+5wEe62MxcfsKSGEHK1LaBfUiwNmumTkTxTepYYF9qMPXqKso/WfY5qOHfFieJRiXe5qKlvFqa+eg9JeUhrzC6XLbu6yQCvknrzskJZtvwg6AZNtaY+kHCF4BTESFHQB3zZOOeZtpdUcfvSdlCwergagrYw0CbiDuDN+RK4CFHQBLZ+ucx/gr5Dyz9N5NEFzk+GN4gFxe25i4r25GcoqLDzC5qanqBVN1uwDvHqUhrPVUTlq+pO0BvhUlw0Cx0qnoXdkBMExExTgTv/uBx/jd9pjR8Q6ALGAhpaK+PrkHgA+7+7LgdysWp+mTC53MOFyErAr6z/DNyIqQPMjTKxcu3Ew9y3gm2zioNXPvWACgg/KQlxMp2qC89Pa/TiuQ0uVuiNAKxOa4CGK4CpYma7fWzgacA7vBte49ov0VR1C2cDD+xTGufPDLxfbynqRiO/GzeY8fbomr0SuLQkdAtiN9l0B+5X4Yi+MCP7801tDyEThUKFw3Izml0lTdN1rX/grwlBeYOcs6W9v4NpTY9p5z8ftetU2JqVQuHOSjvitx35bupSle32a9QzNuFwCygIWUiL7K3AcATHR0+AOKyBVUsQg+yLh7BbDneAdYsoMlXTUcBYCKbqpZ3ljrnFT0KspDtnNWpFyI4IUXzr9lEQ1BShfUCa8AJv9baqyMiwKWwRN2xd2dfVa4NuTAM0dSuHCwuUKcOEigwIpUKpWnYjt5J303CgDV8Ws+nVpaXOnGzZxhxJgJ/iUAOkPwKJMgelVNPJGujTe/wfbB1jYmPhj4+YcAnTVK8ePD8DB72dIFD/MtGBXX5Vz8rkaOonLhIOKJKweBswB4G4D9/sztK4DBK4BJSfCgcpHDL8pvejtTvZSxCD7U95z1oar0n2FDoNFQvFfAE1Sz3BddS6nQij8AWE+JyP+8FSmXgE9vphVIid0LrwAm20xu51wQw7lQ7nGxGI8f/XftyJ3bQBQjsyhcSKZfRMc64eAUS6nWzvHFmY7Q/MBMSIHpTaW2iMHZUGwMRU4DzFbIg7F485+nxlteb9v4qmfOicfiiXtU8VuMUhcYBW6t6o/M6mlPr+AbMGo4aHs9hrKFJH4fMGPdGCgeoloOrLviegEIO1iR4hNrbD4TwKGODn+Ln2f3v2LhGYevAOb3mRAGiTImFO8VlAWA5e5bbR3Yc2fNexHADZSI/G8lJWXhkTQ31r+MhiClRIRXAJOX1hrP2pGREhhZfauHR3ZhHHGvrb2ABYAhIWpkDyfeE9EM1do5QR6udHLkBl3J/LTnyNor7ABYAHqWpB8XwflhmsGAvMOHPhxrTPylNt5y/GgPqKZhdkNtQ+JWzzPtAN40SsMwCvlabyZ9ZldX6kXO/FFcz9Qscy/nYPwemrgv4kb8LgLG7244NKfjc2sPxpMw4anKV919xfWX3UtTKyljkezr8DXqHr/PhG8+untN+atZQjXLfOG1enBe8Ctww5Ow5035EJHuF99327M0BClpUGeEHzrI/yJ8KxNOEcNYqBR2tvjaExFlNLRrP/6Yg8M+uG5GcgrVcx9XNhAh0km1do7vBU58dBaeMCevCV/BAsAC0ZNJ36iQr4UuxFWcqtD7YvHE4zXxlq/WNc2eVqpfXl+f3CMWb/5wLN6yQMTLqOAMjNacVWxUlbf3ZlovB781W7Dwyn/de5nQVFd3ciXFcx9PzTgXxmlEWADoQiwmbsfnAmEBCykqNfGWswSod3T4zwLRy6liUdc6dzsACr/PhC9IxKQwPEZO0Ekxy30qW8yaM+/qEuAflKns0yiaoFyUjpif0gqk9IG6YaBOtmJr0sbroBkXC4OhXbFFxzzuYsCYj+SaqV4IHIcjG4ie73VSrZ1jPGc+OjNuLdXS6+W49pYhvZnWywX4dUgf7xCBfj0wXnesMfFQbUPiu9Ma57yxvj5Z0EL2miOTB8TizR+uiSdu6avIrwbkN4COdue0JwKRY3o7W+/gLLeEIOLiAZ5K3WNTE8VzH4U4Eb/D99m9xYWYUdT1K4CZX5Bi4onol9x9v3Fpb2dqHWUs4lKnDhchK69QD2GQODEET/Hsk5m2VRSzvLG+65FR/b6InESpytnhClgEWAYy++hfu7LxF8CdNAYpdSIXoYsh27AyaRMugiXK7+Db2kLHGHYA3BXPLL13UyyeWAngYKccjspxAP5EBd3GKPaw/4ufvLBs8fwnqdbO8QOJGBfq7ZUFgOQ1c4IdAAtMT92BH4t1rzoAkLeFeN4croLDVc3n+ipMEIsnHgZ0MRSPwZPHDLzuoD/3zMquhWt2tbjUzUgeFPimVtQcroKjITga+fyhgNh0N/UN4o25aEX7fes5u+2htzO1LhZPPANgf6fiPjFvBLCACrqNqOzhwGeW1b2LU09TLRfWVHG7AyDzC1JEahsS71TF4Y4O/z89HenrqGKxXajxt9YAOAlvFgsfe7mf6st/KCOx3jmtP/uO+ybefHoHgEbKVa4RAE1QFkTlDlx2GQscSOldjBFfuG1GtmLnRy/DDoClQCzuACjsAjkYIz0KVacKAA1wAoULg+/wJtifsCivD9vtUiu+E4mn8IQ5IUVn3rwgN2vWu6Jb/L8BSJZJDjQTkJnYdv7Wg4FX4SMWTwwI8Jwq+kWwRYHNAKoAjAewT4D8GAAv79lZ5UblBah+NNuZnsdJbS2PwrECQADHA/gmpXM+8psAy+vnBby6zZl8UMVThz/ZqAgLAElxmDvX1+7VX3F1ofAEFwDgfmXxfajvrgflFeoh5GDXH8BTk6aMg6e26YQJ+YEt3orDDtyAefOCsDyXE9XJoviBCv7IaVimKPe8Q48HFfE+TUOQUVljhCd1yEtY+tHLcCEsjTewt/hDhB+cdmcio50qcKpruADTahqSNb2dqV4q6HIcYfax/bSyAjz9ubt0RBBxY7XlBl3p3m1RF2pCPU95lKkIrFy4cHNd3clvNntsvFEFZ5SxKSoUOMjBluT/yJn8B1cuWfgUZ7PNfhZLVJ0rsp01uampalV7ex8VdBeF7CP2j5HxuyvzSYwPlxsy8wpLUiRiy1ZfAOAwJ2MUyFXLOlrbqWIpfKj4ztYACOg/Q0Rd3cmVATbu6/475bdRze10PfroPfO5ilmear0KDoPi9QCmAJgAYKKaLfAjQKx7NRBPBAA2QPCUAN0K6YbB476aBd1L2h6BQ59FnCh6WCvRmyci900AtZyq5Qd73pRBkBfFf9d+5NaVtAQZlfkHRLhrRrZhZdIWCHvhliZnV2tPHIphEejuMCIZF18VkdzxAK6hgi77DtlH7R/kv6jUbnyICXy40RKaBYDklbmMekxlikR39939yWTyrBUbclerygdoESfYrMDXezPp74MdWxzwX+hwcNiVlfnKBIB7qaDD8bvIPrYXGwgYvzs0oXyXv9qJML8ghWfqEYlJUFzm6PDXRDz/K1SxdAmtu2On/wwTuapNkz2nK/oBAP25MbnF5a5ldXz2LA/eKYAcHwzokQKN6NZ3dnf4ACZBMUmBwwEFBAhEEIsnngN0PkTuzfUHf17ZtXCNzTZww7GeNS8A8FO6n3Jd//k9O/T4ejmNQEYLUXZSIa8I8Oybo7z+tUQ5u81xMefAbi0UmIyb805OoXrO+w7bT4fmKzcpT3/uBuNOR2ieMC8RA57HtZcglUrlezraPiQqV9Ia1nOfekFjbyb9XbD4z4343fOcjN/F9xi/ux/A2x6/D2zx+hZSKEd8guMFILwCmBQDPyKXA9jHzXdCv/h4e+p5qlgiH+p2ETL9Z4iIRBALwWOkVy5cuLkc9aubkZwSa2j5YiyeeNyDtwDAlwGdhcI1w9sXkHdA8etohb86Fm+5I9bYfFZTU1PUyvnsinBVY4Or+zb7XwGwN91Q2SVRJNSrKl5ce+6dN9EQZPScjONXNZBCYummOlfC8tYfALtA7pbs0rYnYg2JjRCMd2oJAk6qSSbH9KZSW6iioxjsY3MYocCDjz3WtpFC7RpfxHfk1hl+YCavfsuZyJTAyD2drZfEGhOPQvEzABU0iVWsBPClbCZ9PU3hFlPHe48uX282AxjrlEMwOA3AJ6mgw4juY3mGvZDXTDsViXlOf7FRZX5BCkrdzOb6AHqBoy/E/N6OtqupYinjKvEd3vrgAc1QzUVzmPPbxKr3lOOak/fkSwHyZ+/mncwB+C+gjwPylKg+bTyske0ckComCRAFtBqQOgB12Hpd8KupAPStUHnrGh27oiae+OHmoOqaZ5beu8kWuzhTALjqtLv6Jtz8tl8J5Et0Q+XmdbnnHWp5o97vaQUymggQoZch27DytIYEAadoKdYjwLc1xzOi7GIyCDNB0AHgWMfGvQc25JMA7qGEzgYS+1s9PNEURRqEAzHiO9Jwlxt0pXp3+j2F78TyywLAEpHtSF9V25R4RA1uBnAgLTLqDAD4VdVA5EtdXakXaQ73SKVS+Vg8sQTAMY7FfrV1M5vru5e0dVFFZ5N/y+N3MH53aj5JBdw+s8n8ghSUwJMfwqHag+3Y5In5MNhJurQu1DO+uHumjf4zVMu5Hub65xXx/b+Xi17VjXNe52nwjQByhuy48G+LAA8ocL8nSI3pX/tQV1fXwFB/z6FNyX36Nd/iA8cqcDwUh7/qX5kqwE+q/L6v1MYTV0zyNv+svb09N9r2cWoRDiLeTyN5/RQcOxlIRogRgI1vwomo6ov6BRqCjG5gh4iVLob3n48Gdnbz4BXApTGzxUm7GOHHp8HFFW1QOdbBuXcaWADoMlPtfi3kAUq0ezxx5kAIT5gTMor0tKfT1U0tTV6gN0OQoEVGKYVX3O755rPd7QuW0RzO0wbXCgABGMFbAbAAkPF7ceYX43e3FiVoheMfcFnAQgpGrCExF8CbnBy84FPLOhZ2U8XS4qnnqbv7//SfoUIOczwg6elpn/9Q2FWaMmvW2Gi/92Wo+QwgFa9N0/B3qP4huhl3FuJGnG1Xwt+27S9MmzH78MD33y3Q97wqp9hHgR+uNWM/XBtv+URPpvX+UfWtLon64ttve1aAG+iECAlJghyVB9ddcvs6WoKMalinYmWgrhBu8JY6zbf0YISwAJBJO+fA4Mxk0ObmOoS3gUU9Lq8dky0e38AWb/MCyjSIuEuMGx9ulR+YS/Zye54ba68wZyg1y9tbV+/lb36jCL6OrV3oSOl84F+MJ2/o6Uy/ncV/4cCIm/G7ipxO9dykru7kSgD7WjzEzZjgL6JSTlHp+PgZS5KCcNBRR+0Nwc8cHf4/sh1pXv07KuG9k90i/0eUCoYGARB3/AH+HHaRauMtx0e3+F1Q+SJe2cylD8BPRb3DejLpU3o62/5QiOK/HbFs6YKHezOtX8zWHVgL0bMhmnmVT3u9Qu+LxRPXT5/ePJ7B3SDJG/kh2IK37CIAEk68CK/0JkwydjEwdgAsIfX19VFY2+ObxV8leufs7QAohrHvIDCILnAxT1DgoJp4SwsVdI+aI5P7w+INHwHuX9Xe3kelBmErI258dBYWAJbMNxvjRCwuqpwTo0B7e3uupyN9mReYJkAW0yJFpw3wjs12pk9b3t7aQXOEh0qJtMLNL79H1TbMOYQKOsiE9VNg9f1u8o/eVGoLhXIoj1BLbxMZdNDrdPENsYiKfOVPALuvWN8Ja/PQD4A70aPjglTdLUIWraSC4aCuaXYtgH3cfpfklhBL5NU2Ji5T6L0AYtv9+QCAnxpP6rKZ9MU9nfOfKNmI5s0Lsh1tN2c72hpVcLK+tjv8eweqvI7aePMbRsVgrim88Z23PS5AmCcxeTXc8g4nUTzzwrm3309DkNGP0+3sACjs5lFSnvcPsvbEFjsAlswZWPvOBSwCHRS9nal1EDziZBYLfRcVdFC3fG6KzeNTwe1UadC2cqWIivEhcXXuhpJlSxc8XD3Bn63ApQBYsFHg6Q2Re8VDSzaTTmQz8+fTJOFj25VKTzg5QT1zFhV0j7zxrY7fRZTxu2uI2x0ARdjBioyc2oaWU6H6HjdfYXzsyUzbKqo4Ongu57MqY6hgaOLDIx1/hCeyS1pDeTCxLt6ybyye+LsqvoZXfhNNGfEaspn0xcvbW1eP5hh7O9L37O1tjgP4DBTbdR7UOoW01TQ2n19y3+rkguwFXwfLwsoH5Z53KInqFTQCsSNOt/Wko3KDt4RUap+1J3bzQcCFsDQRpr0dAI0w7h2068Q/3Rw25tbX11dQQLcw8OpsHp76kTup0iD9rDjT+YLFXqXyy5VudABUXgs96qRSqXxvJv1d3zOHQ3Ez2D1kpLyowC+NePXZjtY39bSn0zRJyNdg4AFH8473UD0X55uxOX4PIhK5iyo5h+t5PAtYyIiobTphAkR/7ejw/9yTSd9IFUczn3V6D4z+MyR4ose4/SLJ1Qjhd4hYfHZ1AE0DOGG7P+5T0QuymfQbl3fMf9SWsba3t+eymfQPvahXD6B1+zhRVH4Va2z+FkrYhdxJx7rmzLu6BJhHl1QuEQBvwQwdPjat+fCdP6UhiA2IrVcAswNgad2S5qz9YMcOgCXzBZ69c8BwDgzWVir3Ojr0vTZXTjqJCrqWp+h0e8eGBb2LU09TpEGay4grRVQs9iKvil+E17ZZQnf7gmXZzvTZouZoAClaZMjrVo8Cl+YGgureTPpCmz7mk+ISCP7u6NBfF4snZlJB5/LFQ+3N+zF/W1dM4hZOdwA0jo+f2BDDbb5SgYPcCz2xTDXyEQo42muf0/ks/WdoUlEc7/DwBzwTXBc2Taob57wO8NIAto/dl6oXNPV2tP0alhY8Lls8/8nqCZE3QvEtbN/MTuWLsXjL75LJZEl8nrPFBZ4RdgEsF7jnHT4iuAbCU/HEkuBO1MqNVMdPPzmH742198oLFgCWKtGztwOgsAPgYNlkxqYA9LsZ8+JDVNAxBNYWAIont1KgIawBnnHpCmCekCsBFcaNDoCwNJcpZ3o6FyzOZtLHqcrpAB6iRXZJnwA3icpbsp3pQ3oz6e+u7Fq4hmYpL6LR3P0Aco4On/G7azGfyGHWjg3K+N3JnFDdvgKYBSxkBNQ0Np+tKh9wcOhb1JOzejtT66jiqK99Dl9DLvSfISB2+NH7Q1Hv7juEPy9buuDZMGlS3TjndZ6a+QCmbPekd1QNRJp72xf+1/bxp1KpfLYz/WUITgewebtneP/y9cFvUILvus4WF7zwztseVcGf6JoIcWwx8pBfs3rS52kJYs2cNHZ2APS4uVtSBirz9nYABAsAS4S9G+iGc2CwPLP03k0iWODkeiQ47eB482Sq6A4e7C0ADPJyOxUa0lrrzqnzuXN5SIRst3iwK6St9Ha23pHNpGeIhxYo/gJeDfzSEgXgPgDvr+jTA3oy6Xf1dLb+FTzkXbZ0L1q0AcCDjg7/fZObmqqoolMLp60dANXz/Tuoj4MzSsX1K4BZwEKGRW3DnENE5Son83/BhcvbWzuoog14DhcAKq8ADgESiZwAh/diBd6vw6THlJmzDvLU3ANgn5dfNfxfNtP29q6u1IsuPUu2I32XeDgJwNrt/Mb7axsTPy7273b6qhAV/2uiwVzXn4PsxnnxE2C49Kzw7sJl126hJYhFCZ+lHQDBzd0S4vdrFL6lcb4E3CwsjaE9W/dlAzGMhoaAgdwj0OMcHHokCnkfgO9QRSfw1NoCQFm4fOn8LCUaUtzlu/K1r6mnx2vfWkBDijon1JUpwQJAy+lpT6cBpKtnzomLZz4jwFkov++YfQDmQ+XWXC5/C7v8kR143b8D0uzgwCeOCcacAeAP1NB+6uvrK/qAaZYOL71s8fwnqZJ7CKTS8Rp/FgCSIVOTTI7RDbk/QWVP995Z/LqnI/07qmiLHlrhsAel/wxDFgJ5q8PD/282M781NGtLQ3KiePl7oJj6ko9QfK+nMz2YplIy9YjExOH+7tq9IxtTqVS+0M/U055O1zbNOVaN+Se2FTWq4uLaeOLpnky6aHtAThcXbDjzliegyi6A4fe+JCx4UOTMxTQEsczF2Ln5wuu8Su2erD1tJrwCuFTewOMcCAeSN852TjDAua7naOVCbEbzIQDGWTqTrqFCQ40D3CnGeWH8eMaIZLsYgQdiXWH5kvmZ3kz6PcaTqar4JIDOkCfaPVBcBcFbdUJk72wmfXK2s/VqFv+RHfoyz7/d2akuOI8KusGLkb3rAdj67ec3VMhZL8AOgKT88uf1+SuhEndw6J0DY4JLqKA9GHXah0aSySTzcYepSSbHQHCKu0kUfo7wVNGIIH8DFIdv90c/H2TxH6bUz5rkR7BmuH8tX5/PxeKJTbF4YlUsnngg1tjy/ZrG5rOnHpGYNNIH62mf/5CKnoatByO3Ro/AN2vjLccXbZ12fnHwI18HkAcJcQ5FE4RGyggeXPOxO3iakVgWI6mVHzoUwiuAS0g+6tt7BXDA4q8SvXQRe+cAOwAOhezStscU6HJzTcK0WLz5LVTRAa18abR0aC9W9OFmKjTE7wrizhXAm9dUsACQvBy+KA8Nucby9tbVvZ3pn2Qz6bioOQqQnwNwvShuM4B/Q/F/EHkvcrkDsp3padnO9PnZjvRdvakUb4Egu6Snff5DAB53NCqcU9sw+0iqaD+eF9gav6/v9zb/mQo5S0UIxs9v0GTQ1DY0v0eB8x1cr18AzOkrFy7cTBUtUgVuX6P++MaNFVTRYdYFbwKwh6OjX5WrDH4bmrWlseWTEGy3J6K3ZDOtpW4oVQXgQABJqH5GVG7yI1hZE09cUz1zzoiK3ns72v4tgrPxck2br9A/Tpk566Ci5D2uT4gNZ97yBIAb6aVCDLe8Q0MgYPc/Yh8qVhYAesIOUCVNNtVU2Dw6KlSSLw72vnPsADgMOXGbw6PnaWQnwge19LS73vTYY20bqdCQ4wBnOl9M7N/EGLEUb5KJOrIRKiwAdJiezgWLs5nWi3RC5CAFXPl4/ywgCyH4hQAfhsjM6gmRPbOZ9KxsZ/rj2Y7W32cfXvQM1SXDyHpvdzcu9C6igk4IZWX8LpAbV7W391EgZxnruvudMmvWGMpIBkNNY/MxKuJix9KcAGdnMwuWU0XL8NwuohbfH0sRHZ5+ou90du5BvhmWgubaePMbVHX763Af6gvGvR92VAhVCfAhzzP/iTUm/q+u7uRhfz/u6Uj/RUW+tN0f7Rf1/D+gCAcxQvHh2MBcDnYBDGliThOERsoKLNtw/h2LaAliYaRkZwdAVZ6+LOk0sPYaGOQlz9WwNFi7gS7i8TjEUPMDTxwuAERypKfKSCkWajs3EA30txRnWHo6UwDYPzbKgi/iRPxCBk9vKrWlt+7A8yB4bJSHsgHAE4AsBOROQH+mopeoyunieTOqBiLjs5n0/tlM6+xsR/pjPZn0b7MdrUtTqRS/yZICxO/qcvx+9sHx5slU0fZwD5bmWOYaquM045wPJgciEykj2R0Hx5sneyp/BuBawaiqynk9mdb7qaKVi7PTBYCVQcU4iugmtU0nTFDgbY4Of8XYgTWhiB+TyWREIb/Fyx2V14t673hm6b2bLBuqB8WFwfiN99fXJ4fdNbK3o/UHAP6x3R8dG4s3f6jQgw3F3eQbzrqze+LNp/8ewAfoskIGt7tDg+d7n6MViKVZRqWVNx0ou3mUElGptLXKLqIRFoOWKoi3dX6yA+CQWd7emonFE08AOMTNuEk/DeAcKmkpc+f66F59lHWhA9C1PLNgIQUazksnlVA3XG2uoo8xYkleKCOOXIYWoVghYd68QBua/yYi04vw07cA+BeAlVA8rZ4+7xk8p8Cz8Lxn8mqe33Ng3fNdXV0DFIKMFr0dbYti8eZeQGocHH6FD7kIwBeopJ3U1Z1cGWCjjVcAL+nJtP2HCrlJfX19RV8IYrFo3uwFYDUVJTtjyqxZYyNb5A4FDnJt7Aq5rLez9VqqaKs+WuH2xoc3gSo6Ovd0yzlwtouvXh6W3H3FhuAiAEf87+8F+FRP5/wnLB5yc19F/o/YWjw6nA/JRiOR90k+vxTAvtue+nvTZsy+a9nSBc8WapDh+VAY4Ovw8S4AlSBhWv1JGIjqUy985LZbaQhiJ2LnqTUPLPoq5XIjGGvrmqO+4VV/pcHagorAGB6JGFYUqTcAcrmjXyHeWTszcXnPkvTjlNI+pi1b3WCAPS0MHf6P6gzbYzjTxWBsrpJxAdkulVEWhIZJThS4A4aiRwU/iVTkru1etGgDLUzsj9/l9wC+7KY7xscOOuqoHzz14IMvUEoLc+o9NxwFtfD7nzJ+d5lN0X2rJAQXk5mITKKaZBd4Ff3+HxV4g4OBxR97M63foIQ25z9aAYe3wSTQPamiq1MP5zmaMC3b29tyfTYEIlQ3tRyoRi/b7o/+3pNJ/67Av+ZFAc7YdTiOsTAYIyL7QHGoijYAaMHO9wtPq21ofndPZ9sfhjOg3sWpp2sbE59Xxf9u8dkr8LzvAChYJ8DQFACue9ftvRP/dPrPIfg0/VaIYAFgOGSMeJ+lFYjFWFk4Lgpu7pbWU421NdlU43EulAZ77cwOgMN9e64H5Otw80uSr558EexwbiUBtMXC1mDPDozJX0t1husutMIVT9EPE6VgpZgSKk4sHyrsABgSpk9vHj8geHuBftxzEHy9ekLk17yel7iEqHe9ivmSk/G7YHxFruKTAL5CJS3EeC2wL61+Rif6N1Ach/NCyVVFQnB+WxUsACQ7paah+QeqON25ZVnwQFX/2g+Cu8y2K+X0FcB5MSwAdJBYQ/MJAGa4OHZP8dX29vZcKN5+o1/BywfsBzwJPl4En53ryaTvG+p/dGhTcp+8yV2kkM8BOzg0LvJFADdimHeZ9nSkr4vFExcAOGrbmvXe2oY5VxSq+2G4NpQr8E0APGUXpqWfoZn7RLF67Uduv5GGIBZjZQGgggWAJbW3sbfdtyo7AJYid4LFm0wi7AA4HLKZBcsBbXXYM72nrmn2NCppozTSYuGofrZy4cLNFGe4jtadDoC+RisoGHl56oIdAEPAtCPnHDxQJXcDOLAAi9QtuYHgsGxH+v9Y/EdcY9uGxyKHH+GiqUckWEhj5YKp1sXvAlzZm0ptoTjuUiGmKhQPYmR/qkl2RKwh8U0RucTBoS/1ornTw3JFZrjXZ3H6VkfhFcCuzrtPOTry+3o6038MgwQ1RyYPEOCD2/3Rz5d1LOy2ZXyPt6ee78m0fc3AvBFA36v/uQKvr21ofvNIoi/18Am8XPAYUdEvFWr8odpQXnfG7esguIKeK0QYVgA6L2EEl9IKxHJsTTJY9FVaa1u78e+JcGO3yDQ1NVltY2EHwJHY7lqHhx8JArmMKtpFMpmMCHCcZcN6MTcQ/ILqjMhbOPPRWUyuknoVH40aJ9q5qLAA0HWqGxNnmLzpBNA8wh8VCOTCbKbtzJVdC9fQssRZ/wu9zuHhT/AiwltQLKMmmRyDrdd42cQGeGN+SXXcxiASjgJAaA3VJK8m1tD8GQi+5N7IpTsPPbl70aINVNEF96PjXB6+CK8Ado1pjYkmAG9ycOhbRL0Lw6KDl89/Ev/rrKfYmBsIvmXjOJdnFiyE4HM7eYoTR/Kze9vTiwS4ZzuHWLBmEKErLlin0Z8BWEYXFpbFX2gDl4ng6XUfueN6GoJYjq2FX3SApQw44Vn70Y4dAIvPasDq6xQl8NgBcJgMVAY3AXB3E1zkPbXx5jdQSYsS/w25WYBdVySp6tUs9hjpq6buFNVFPBYAku0cAA+KuEpNMjkmFk/8xFPcCmCvkYY8ULyrJ9PKYhLiPOMGor8H4OymvUAvqW1KTKWSFrEhOBaAVQUGovhVT/t96ymO42EYwtEBUAS8eYC8glhDy7kQ+Z6DQ896EXnjk5m2VVTRGfZwevSGBYDOrd2Kb8DNvddvFep62NFm/xknjVPgoy/HU/obm79r656RawB5zQ20WoAO44HR72/3txETeOcVYszh21A+a96AQL9KFxaaLIq4HPtUeOz+R1zA0iuAlUVfpbS3zVcAe9zYLTZjMMnqAsC85BkRDZNtV6Je6/AjiKMfXcO7Xqh3smVDynm+XEllRhx4udMBUA2vAC7Jux515IOwMk50kNqmOUfIhvxiAJ8ojF/AB7Od6Xm0LAkDXV2pF6G4weX0Ug2+QSXtwYPaFr8PDGjwUyrjPj78UBQAqiBONcn/iDW2nAPRX8G9ApnlgDlu2eL5T1JFp3Dbj4rHAkCHmNbQ0qzAyQ4O/dGqgbWh2R8Y5206HcD/3p28H/V/bPN4e1OpLYBJ7+AfzcQIa+2WL2l7AMB/tovJ3ptMJiMjz39CyNq5d9y4vbGIw/AKYHeJ4pl15952HQ1BHMDKDV+BsACwtAa39wpgw2LQYhNB3u4OgB47AI7oHZLglwCctaEqjqttTLyFStqyXOgpdk0QXNXTnl5BZUaYdkIdKgBkB0DyqjCGOEMymYzUxBOfV2MWQ3F4YZYB/LanM/1HWpeEiUDkF3D7WPg51TPnsKDGnnzKqo1eEfxy5ZKFT1GZMOQQZlw4XhIcWtOQnEhFSayh5SNQvQ6Aa4eMVvqeOT6bWbCcKjqH21cAQ/ejhM7gGdEfOblKw7ugq6trIDSxucg52z3dPS4UbotI5w7+ODL1iMSEEf9sxe+2+9sDV2zIv3nEkz2Ur7BAAfkMfVkokg/iagIs+AKtQBzB1k1UdvMobezADoBlTD8CuwsA88KIaAQs61jYDeBep+MqxZVTZs0aSzVHl9qZiUOx9XSfLbnSRs+Yy6lMQTztGGeG6gkLAEvxeqm60vGCcaIj1DTNOmz5unxagO8UMAddvTmo+gStS8LGikzrIwp9wOFH8DxP/w9h3XtxiFg8MRPAoRYNaV1EIt+kMiGJF6FVIXkUgZc/hoqWu79suQiiv3Zw7Vol6r2xu33BMqroJE4XABrgCEroio9r/iCAo5yLNVSvzGbmzw+LDjVHJg8AcMJLAYinv3PiXVfs+IriMZg04iDMmD8DyG/3u9414mQ0rC/yurNu+xegf6VLcxwjtIGLyW9Enlt3wR2/oyWI7WxrpWtr14woFSppBGdvAaBhN8hi40Mt7wBo2AFw5Nnyj1wevgDTolsiPFwx+s7i3VaNx8N3ly1d8CyFKcg75kxRXV4DFgCSV3omYjtebWPLJWL8DgiOLmx8Iz9+Zum9m2hiEsoXR70fuf0EOivW0PJhKjnqMd67rJoVIlc83p56nsqEZH4p9giNzzXyJipavtTEE58H9Kdw79rfVQj0jT2d85+gis7idgdAxREOvjdlx5T6WXsBcoWDQ39wXG7dpaESIxe8Gf/bk1ds9Dbs6UQtlwe8uKM/jxhvxD5s27f9B7bLX07ECGv4Qr2h7Hnm8wACujank3TiIFqp7MBJnGDFxoi1CYYAFVSohH7L6g6AvAK4+AG8sboAMOAVwCMm29n2DwD/dtxTfb6madZhVHMUFVCrNhBX9eWrrqQqBdIWcKYDIK8ALg0VxpXTiMIrgC0mFk/MjDUkFujWgwiFzjc0L+YPtDIJKz2drX8VoMPphxD9zrQZs3k13GgqAD3bmsEATw1I388pS4hyCPH2Ds+z6JupaHn6yZp4y7e3dah2jSdM4CWyS9seo4xuUpNMjoG9zTkGu7iPr52ZOIRq2k20MvJTAPs6Nux1JvDeGaarfwFABMntYuP7urvv7ndh3AY7PvRhAm9jQeIwxfaFkPtWN7U0jOTnhXpDec2Zd3UJcA1dm8OJR8Ab75zTLCpPrvvwHdfTEsQFcmaztQWAxqFONCHB2gJAT3kFcLHJW94BELwCuDB+VfA9xx+hQozn4nUsoaC2YfaRsOr6MP0quz4VDoE73TvEMzwkQl6RgdMG9jG5qakq1tj8PQD/KXjXv5e9wbInM22raG0S6vgd8n3HH2GvwPeupJKjFL83JZoBqbFmxQa+uKq9vY/KhCqH2DdEj3PY1HjL66lq+VCTTI6JxVtuFOgXHHz3OrzAJJYvnZ+lku7ibcyH4pCE8cACaouJxZvfCtX3OOfnRD8cTh+nyZf+n4d73Bn2Tq/6XVeIH+97SL9Cf6Mnjsi/hv3FDhD9AoAX6OJc9QPsAejcolSpH6EViCtE1be4A6CwALCUCada3PlHDIt9iq0/onZfASx5FgAWgOUd6TsAPOp4pDWntrHlYqo5GmmJd75Fw1mSrZt8LVUpKOMcmoyMEUthZnXmYwTng2XUNjSfUmnGdEHlsyhqRwtdRmuTsNNbd8A8QLqdjt6Bd8XiLWdSzVFYywO1KX5vz2bSv6cqYZtkoSoAhAecQ1HLg4OOOmpvWZ+/FxZ1SR0C/4I35o3brkwkLrvQvBwQhucQkVOppp0cHG+eDMjVDr4dP+vpaLs1bHrE4rOrAVS/FHfkzQKHYqSZO/jj53s7U+sKMlf3jCyBYuPLOaQeOcLxhpsNZ81bI6JfpZtzFMP9bqeWpAp5eM2H7vg7LUFcIVCbu70ou7uU0tqC8daOTT0WABbbF1jePUc8n1cAFyiyFMU3nfdXqt/iVcClpaYhORGw5vrfAEbOw7x5AZUpKFUOBS0s+CLbUwGAJyctoK5p9rTaxsRtKvLX0nSc0i20Ogk98+YFqviW+w+iv4gdfvT+FLR0HNqU3Acicy0ZTt54ch4A5vVhQ3SfUD0O9L3gjQOhp7pxzusqBioeBNDi3iuH2/yN49/U037feioZAjwTigJAqB47fXrzeApqF8lkMhKB3ATAsU6TstDfuOdnw6iJgbzcaVixcdnSBY+4MO6mpqaoCmbv4B/9p1C/I5VK5cXb/udJ/Yjcazm85Gu74r8CsJjuzsUcijZwJsYBoMjzlBhxCj9ibO72wgLA0joxa5M0Tw2vAC52vGF5AaCXD7hRUCB6OtM3AVji+GOMFRO5vr6+nutEyci/H5YUiIng59klrQ9Sk8K6WQBjHVqz+O6XgMArZue2wk6J+vp6XgM8iuw/46RxtY2JywLjPayK00uXv8jetD4pB3oPOeAGAR5x/DH2RTR6NViwXTIGNPgQbOmSK3Ll8vbWDqoSQkLWARDAlNp4yxkUNrxUNybO8NQshKDWwfftqp5DDpzb3X13P5UMiQsVHBiSR6nsH+u9g4raxfL1+e/AvULnJ6Ke/9aw+jlROXS7+PhhOHI4Zo0Z+04A+7/Wh8kDBfWJ+opbHurq6k4edi5THqc5LrvMeKKfxNYaJeJWUEdccdwVaF13wV+W0BLEJYyKzQWA7O5SUieGPe1NhoWnb4uMB1h+BTCPRBTS9YvqF0MQJB+5ObrXdylnCZg71xeRj1symhXRTfoVilJY6uuTVXBpQ95jB8BS4HueMwcw8vmJnBOj9DbWNDS/v8rve0IVXwMwpsT5y36UgJQF8+YFRuVLIXiS02rjiUsoaPFpamqKiuqFlgxneV9+7GVUJbQcHLYHUjFfAouVQ0cymYzUNiYu8xR/BjDBseEHClya7Uyfz5sQQpZMKSaH5VlEcB4VtYfaeOJDAD7t2LCfF/VOfbw99XxYdREPLxcAqlnmwphrGpI1AH6wg3+UD9T8vrBBmJfd7u8iGLehbtj+tVxe9jVz71gAlRvo9lzKNsACQGciNTEI8B4agjg3dcEOgOQlLL4CWNgBsMgEebs7AOZ8XgFcSHo62/4mggdcfw4Vvbi2sfntVLTIif4TT78X0DpLVL/oscfaNlKVwrLFH6hy6+VXFnuVIjYQZzoAQveIck6UmOqZc+I18USriFwLjFrnirq6eMu+VIOUA72drbcrsMD5+B347rSGlmYqWlxe0DEfAlBtxWCMOe+ZpfduoirhY8qsWWMBHBC6B1OJx2bOPpEKhyhubWo5cPn63P3bDqy4VhOwTkVO7c2keQA2hKhKiHyozoo1tsygqqNPbTxxggK/cmzYferhLT2d858I+Ttf87//L4Ie28cbmzn7JJH8v7Cja6RVb3oy07aqkL9PRLOv+BW+v/9wf1ZZdZTJBcHnAKyj+3MEbnW7I1UUt6/52B1P0hLEwYCDHQDJ/7D3CmBRdgAsto0tvwJYJMcjEYWOXQRfgPtHTURVrpnWOKuOihaJuXN9Ef2CFWIDN2UzbXdSlMKTR2ScS+M1yhixFPiBOx0AN5scDw6ViKlHJCbF4omfeJ5ZLMDs0Q5hDfQEqkLKBRG9NATxe8SI/pHFu8Vja/c/+bwlw7khu2TBvVQlnHhbIjGEtFOeet6PmpqaolTZfarjzSd7RjsAmePg8B9HoMf0drT+nUqGNbhz8CrqXXvPj1PU0fZ5s2cpcBssv+3pVQSAvqu3Pb0o/K+8vrQHq/Cs6XSYTCYjU49ITJp6ZKI2NnP2SbXxxKWxxuYOeN7fAUzdwX+ywfje5wo/EXTdKzwKgonDjlPL6cXf9O47n4Hq5XSBjjgC5V63Gwkh8t64/g/SEsTJ+Qu1ecM3Um7r9KjGnsAe1s5T5RXARZ8A4ludFHp5dgAsNL3t6UUK/C4EjzLRqH9XTUNyIlUtPDVPrDoH2O56gtFjRT6PC6lIsQKuvFMFgOIpi71KgPECZwoAvcBnUWgJzBxrTJznR+QJAJ8AYMf8UMylNKRcyHa0tULkjyF4lKmB6q11dSfTdxeBNTr2gwBiNkxZ8cZcREVCnEOI1ob12QSoX2vGfpoqu8uUWbPGxuKJn3iQv8LNTpX/CPI4Jru07TGqGWY0XAeaFe+vnjEnRl1Hh+qmlkYP3t9g8T7fDmeNykfL5sC36B7bBRtrS/RbJ8XiCd3VX8vX53N+BGv8PJbB8/6uwBVQie/k5wVG8IHl7a2rCx9b+v2vmByKScP9WWW3obxuv/U/A2QpXaEDcKvbDaJy9Zpz7t5AQxAn4w1Y3QEQNckkN3hLwOSmprGwZRNvR1mAZ3gFcPFDDrtPhYnHUxFFIBcd+BwgL4TgUQ4Tyd+cTCYjVLVw1Ncn9xCRb1swlLyn8u4VD6XXUpXiEEQ9pwoAoTKGqhUfD747J8Yj4JwoIrGZLUfF4olFUPwa0L3tcgd4W93M5nqqRMqGgYFPA1jv/HMIEsH4jVdR0MIyfXrzeCi+bkP8bmDe09N+33qqEmbkkDA/nQJfYYzhJtMa5syObPEfwtZDK651qVRRfK96QuQUfgMJN1sPQsjBIXusCvHMV6hu6altmH2kZ3AvgImO+buPZztbry4boba7kU8Umx18gj4Vfc/yjvRtRUkgNP8Km4h4ew73Z5VfR5njUnkR83G4f2VA+DFCG9iOj01rD133CRqCOIzVAaG3McIT4SWgsj8y3up5oB47ABYZ8ew+GSYerwAuBk89+OALovrVkDzOiSvWBz+jqgXM6CuCzwGYPPoOAJct62xtoyJFTGnUsQJACA+IlIDA6Hh3poSOpWKFZ/r05vGxxsT/wdOFAN5ga6oQePgF2DmelAnZhxc9IyJfD8njvC/WmPgSVS0cubHyZdjQ6Urli8szCxZSkXCjRo8J+SNWBZ7cdWhTch+q7U7sWtPQ/CMjZr4A0xx8hOdF5bSezvTnU6lUnoqGm/yEdTFY3JBh2Km54H2xGc3TqXDpiDU0n6jiPWDbYb3dEKjKh3o6078or+AJLzUvUFXXvmG0+0aP6u1o+1OxfoFn/GD7vzeqwbB/Vjk6g7Vz72hV4Ea6RdsdAfe6rV+hKszFOI7BOHE64NjP5uF5pp8bvKVIzCKVe1o9TYUdAIs+B4B9bR5fzucVwMWi55ADfw3gP+FY0vSCWDzxDao6cmpnJg4F9DMWDOX+bEf6CipS5JzG6J5ODViUB0RKYWYPzhQAinFnrK5QHW8+eaBKHobiQlj/7VTmxOKJr1M1Ui5M3dP/GYAloXgYxTdqGpvPp6oFmBfxlter4GILhnJPtrP1B1SkHIJFzC6Dp4zlTO6WyU1NVRTccqEaEnNzVfKoiFwCN4uq2ryI19jT2fpXqlkmBJHDQvpkvvr4Bdzrvumo72v5CET+AsClg70BRD7Q29l6bRnGThtfSoNEXFir+gW4W1Teks2kj+xe0tZVzF9mYF41j3VguD+rbE+ImnxwMYDn6B5tFonro81oVLvXf+Sua2gJ4na8YXfRDwKfG7ylmAeesbsAUIUdPYpuY93L6jnazyuAi8a8eYEXmA8C6A/JE325Np74FIUdAXPn+sbD7wCMdketZ40n7wXAAuCixwG6n1MDVnYALMm8cKgw1FO7Oxm7RE1DcmKsIfFrD/I3AFMdGvqXahoSF1NBUg6kUqm8qvkAgFwYlhtR+UVNY/PZVHb4JJPJiA9cC2C0v6Gt9gLzfvDmqdBT25SYCmBKmUTFcyrN2PlTZs46iMpbOBcb5hwSiyfugeBmBVzUSBX4TvWESHLZ4vlPUtEyyrc9NIf22SBvjDW0fJgqFzf2q21MXAnRqwC49I0sr6LvyXa0/r4shdOXCwA9YJLlo328aiCyT08mfcq24vSix/e+L68oAPREhr1fVbYbyhvffdfzUPks3aTFGObK1uJBFTiLhiDOxxtidwdARAdYAFiKeWB0f6tdrhunYVxPzK2+0sTz8ywAKiLLli54WIDLwpNL4we18ZaPUtnhEXvi6U8JRr2bQ794eMfy9tbVVKQUeae4da2V8rrX0kwLd7rqGc+wALAA1DS0nC6SfwyC81wMZ0Xw41g88YNkMhmhmiTs9HYu6FTFt0LyOJ6o3FDdmDiDyg6P5euCzwF65CgPY4uKvn3Z0gXPUpHwo4o3l9kjN0U9/8GaxsSbqb4dxA4/ev9YQ+LnKqYLwJscfYxnVHBKbyb9BV75W44Jt7aE+vlEv1/d1HIghS48046cc/Dy9fmUKlw7APciBG8v5hWy1sdPIhtecgGlas6j+Es2k5ad/RVEMA3Ajq7aPXRTZe7wktrHyAGvHLpuGnaCWc5OYt3Zt10nwL10l7Z6AprAWipw97qP3pmhIUgIOMTmweU0wg4vJUnIXhlYWbccKjd1S2DlaqunqMcOgMWmJ5P+HoC2sHg1hf5fLJ74NJUdGjVNiaMhOvrXKKt8vKc9naYiJXphbO8I/ZrpoftQteLjKfZyZg4bj1cAj5BYY+JLInorgP0cfgwB8Onl6/OttU1zjqCqJPRx28TItwD8JySPE/UU82LxxPuo7NCojs+eBdGvjX54puf2drT9m4qUCYoPluFTTxbF32LxxE/q6k7mgfVRYvr05vG18eavIxrthuBjAKJuvkLyN+RyM3s70vdQ1fKjvj65BwSNIX/MiZ4xN9XX13N/r4DUNja/3eQ1A7jVQVKAp4zx5mQ70neVd/ykz7xkE1UrutauWJzuAeTPO/pnnpHPlXSeeDrllWslVgz3Z5X9lXIa4HwAL9JtWgivALbznfEkp1rxblqCuM62EzhWb/CI6n5UqhQfHTDZ8hSBG/1FnwP6OpvHlzfCItASRJ7qBecC2BSS5xEAP4jFE1+mtIMjdvjR+4vBnzHKV4cp5IpsZ+tvqEgJbS46za2XW/alaiWJD2vcydF5WGQk1DQ0vx+Kb25bO8PAMWpMe6wh8etYfHY1FSZhJZVK5b3AfBDA5pA8kg/gt7XxxIeo7uCobmo50IN3C0b56jcRXN7T2fYHKlIm865xzusAHFOmjy8APhGM37g01tB8ImdD6Zh6RGJSLJ748kCVLFPIVwG4Gv9vhuhFvZnWt2QfXvQMlS1P+irzx8HR4tUhusw5fZWTfk7FR05dvGXfWLzlJlW5BdC9HVs4OwZMcPTyJfPZVMmT/25nmOm2DMt4+N6O/lwFb6tpmnVYqcahitgrs8No77BNXe5zbd27bu9V1a/TfVqIstmNlYvVWHxn7fnz1tMSxHmMabA/OFRu2JQmCK+3ejkEWABYRPafcdI4QKbaPEY//KciraC3feF/AVwYssf6Rm285Ze8DnDX1NWdXIlo5GYAU0bZ39/am2ll0WbpLe9ap6wDqFlJAsSpzgxVeVBguExuaqoSkR+E8NGiW68y9oMwaQUAAGTPSURBVJ6obUjcWtvQfApjARJGli1d8DBUPhGiR/IV+E1NvOWrCE9RclGYMmvWWDH6ZwCjer2eADf1dKS5t1RGeDCX0Ao4FCL3xuLNf95WEEmKxMHx5smxxpbv+z6WA/gGHOte/yqW+kaPzHa0/Ry8/63ceW/ZPKniIzUNiYsp+fCX3VhDy7kBtAvQsx2cAHdsCqrmrFyy8ClKCYia/273t9bED8vbWzsA/GNH80+M/5kSDqVhu/+/uXdxatiF8h6nG7BeKn4MoJ2WsIyA3zmsW6oi8tyaD9/+VVqChCJyhMx2YJgzqVQJfJsgbnVgDBxKlYpHVWRTo/UxsWIulSoN2Uz6elX8LlQ+DnrB8vX5u+qOPnpPKvxakslkxOy58SZA5ozyUP4z4G1+LwBDVUpHbdMJEwBx7cDFvoc2JXk4oPjUuOPodTrlGh4VWtWCcB+2iargDBX56/L1+Wdr4ok/xuKJ901rnFVH9Ulo4vfO1t9AJEzd10SgX4/FE9fx2rgd09TUFI1u9m8WYJS/68lCMyHyQbCQpWyobmpphIJdOl9+B97hqXk41tB8Q93M5nrao3BMa2hpjjU03xCB9ED1MxCMd/hxAgA/9DeOP6p7SVsX1S1zPzpjTgyK08vKUwp+XBNPfJ7qD43apkQiFm/5N0SvhnvFzwqRH2QzbW9/Zum9m6jmtnfByPYFgPvVNCRrrBkbdtwFEMA5B8ebi36DXE0yOQbbFUUK8OhIcgwWAALAWfMC8cyHAORoDIscAXNn2wQBIsH7aQgSIs50YIyzKVNxmXpEYhIUh1g+zMaDjjpqb6pVpGxM5RQHRnlqXdPsaVSrNAz4mz8OwcMhe6w3B7loW+3MBAuKX5UPL18f/EZH/+PjQwPRgTevam/voyQlJuhPwMEOOzljXk/xise2uGt/d3J1aaFqwzSdwcFl9LiTBHgXgOuM+k/E4omnY40tf69taPlxTWPz+bGZs0+qm9lcP/WIxCTODOIaVf3+BQD+G7LHem9fdNL9pdhwcoq5c/0XzNhrIXjL6C4gmgnyempvKrWFopQH06c3j/eN3oCt13WT7XJqiJwTePJQLJ64t7Yx8RZ2HR4eNQ3JibHG5o/HGhMPGdE0RM4BUOl2sI2H1UNzNpP+THf33f1UmYhvvomyuP73VRk78J2ahuYfgR2eB+ELE8naxsQ/1aAV0CMdfIR1RvCObEfrZ8FD3q+gZ0m6G8DzLwcQuWZrxpZJ34cdN4urjAg+WfxZkz9me9+o0LaR/DgGYttYe+adSyfNO+NHqsoqbFugW7SLClm49ry77qYhSBiobZpzhBpzmANDPXLKzFkHsUV08YhEcIbafyDCi+YqTwRwExUrSgb+FgfOHPhBIJehnK5IGEVWtbf3xWY0nwlfFgIIzya44nD1sDjWkDg325meV+4619WdXBnssfF6QM8a5aH8F7nciU9lHnyBb99orLDmTKh7319V9BgA8ylgkVLfXLQZbn2Yr57W0NK8rLO1jeoN9V3Ci2W8A7M/VE9SwUmiAniCAIDvAbF4YguANRCsgeoaAGtVZY0I1kBljYpZI4I1ot4LgZE1npdfU9Enax57rG0jZxUZDbq6Ui/WzWw+M/BkAYDwdL0WJCKQjuqZze9avqTtgXLXuSaZHIPu1X8Q4O2jrMvDUYmelH0otZZvX3kwZdassQNb5BYAPISzqzcDOFEVJy5fn38u1piYB+hN2Y62NnCnb6dMbmqqqtAxp3mQd6rmT4ZKZUgebUAEV4ztX/vtrq6uASpNACAWbzkT0HeXrZMUuSQWTxzuB5EPdS9NreSMeNX8aGg+ESJfAdCi7vaHelA1cvbyTKqXiu4QAyCFbc15jMgbAVjTyV1Fvy8qN+3gH5xf05D8dm9nal0Rg6gTXvn3snAkP48FgNsxTiNffxG5dwDgVRi2uAFiS/qWz42R02gIEhbUmIsdGaof8fxzAHyXqhUrqJOz4UBGIaqfBAsAC05tUyKhBoc78pXgPbH4nKuzmfks+CgB2aVtj9XGE2cpcHfIcqY9Ibg5Fm/+WW6M+fzKhQs3l+e7f8IEoxtvg+K4UV2DgGV5E5yw8uFFz/CtKz01yeQYXZ9/m5PpmepbsfPrKciIDey1wLEvzoHoxwCwAHCoUkMfpRV2yBgAk6GY/L9aWJGXHBAEAiigUHieAvAwUAXE4gkA2ALFKghWQ7EWgrUA1opgrTFb/xey9X+9vK7NS/SpYn5IJ+VD95K2rup48zs9yF0IV4eu/T1P/hGLN3+9ekL0ilQqlS9HfacekZgk6/N3ABjdrreCx9SPnPj44tTzfOvKg+qmlgO9LfqnUZ97brEvFBcCcmEsnlgJ4E/qYV5v7YH/wbx5Qbkb59Cm5D75IH8SBKepwVsA7BGqu9AUizxjzl22dMHDfBXI/4g1NrdA9TpaAicGfv6/sXjix6qRH5Z7HlTbdMIEDfrPguAjjnb7e8nzicpPxubWfJ5Fz7sLpeWfCj1z6//HW7C1OYsVFUG90yb/uaZ79TIBXn0T156e5C8A8J2i2UVw8itiAW9k3/fYavRV7DXvbbONynywlffoYgDvWV4BbA2V+tU159/5DRqChIG6mc31gSdLHPLzT1f06aHsplB4pjUmmoxisTPxkOCt2Y70XVSugB8f4ol/4FWnayxnRW4giK/sWriG6pVqjjR/GJDfhPLhFD0Q74PlVlRa0zTrMM/4t+jod2940gTescuXzs/yTRul97uh+TMQ+b67GbOpzWYWLKeSBceLxROPAnDtynSjHmb3tqcXUcLBU19fX9FXMWk9tha8kdGjD//f3p3HV1Xf+R9/f869uSFhx10RkkBFRSGLSyEJxlZttbZqW7D7MnVrf622ne7TxbbTmS5jp7Vj973TTdoKWJe2WjPkBlTMAooWhCQggiKQsIYk957P748Ei4rKkru/no/pPCSQe77n/f2ee88593O+X2mrpG0u3yrZ0ybfIukZl55xs6cjpmdCJbck9moz58J4yXO9yrobzPStPN295e7he7ral7QXUp9Orp5zWuDhnyRleiWP9VI4h/OvQrofUPcuSd9SPq0MkFnbJS12878r9Mau9iUrVADTgEydenGxj9p1VtL0apNfLOls5ef3zz0ufaFr6gm3UOiJ576X1r5PsluU60taD78dJn3PLPnjta1L1xTQfgcVVfXnu4fvkdmbJJXk+P5sc7d/6WpvWsiQfnlTqmdNDT3y+LM/MJ/T2drcdKSvO3H6rAlFscgLV9dx/bmzPX7QE1xVVNW/3+XfPcBfPeVjo+VdjY17hzuTipl1p3igVftf83W2xSuP5DUpADyA8fOv+Ia7f4wkMighBVsoAMwGXmTrut+/oIwkkA9qamqKtoUlf5XUkEvtNtfXO9rjLFE/7BefdfdIenUONXnTQJg8myWhh6v/698seS4ug9rYF/S+bmNLyx56MW3vFd+WdH2e7l5SZv9d2hf54sqVjbvyvS8rqure6tKPJI3M7Am2OiKR8KI1LUvWcoRlxknnnHNUbCD2uHL4yzyXftrVFn8fvTnc7/m1b5AsV2/cLu8LemdzjnDIn/NLJb2SJHLKgKQtJm1y10aZP2XSRil4yhU+6YE9nUgkNxwX7d/c0tIyQFyFp6Kq/nsuvy5Pd2+vuX+pZKDnpkKYYaSisvbtbvZDSaUZbspqKbyI4r/CMHlm7fkW6LMmexVppJJtNffFki+TghVWZCvWLlv8RK7v1dQZDRPDaKLS5bPkVq/Bgr98ftgklOknEbd/W9PW9AzjGs++l9bUVweu/5T7RaTxklyuB2X6c2C6a21rvFVSXhVIlDU0jLCegXqZvUaDy79OzpPPsUVhoOvWtTRtYhgfvPLKuvtlOndw8A/Pvc3hKgCcOGtWSdHeSJekY1/Y3bq2szX+w+G/dq39oss+/8822791tjf9xxGNTIbZAdx5cfG4XcXLJJ1JGJkxMhyh3s29BJFpgTyMBlU91922nDCQFycWVbU/kuyqXLyQdrc3dbU3LaAXh+mio6ruk5bCKZtTqGWgP3kRs14c4XtBdf0MuS9RpouADt+9A/3JeYyD9J0RlVXV/a9Jb83XHTTpSUkf72iL/055dpNJkqZPbxi1pzjxtcFliDJuuUejr+1a1vgUh1ZmTJ16cXFy9M67lWMPhBxAIvDgvLXti5fQq8P3fl9eVdes3C4G+8OEoPdtFD0dyjVi/Zck/xxJ5CWX9LRc6xRovVzrXVpv8i53X58Y8PWcT+epuXMj5Ws2/l6yN+XxXq520w1drfG783Hnpk2rHT1QGnw9Owo5bVlEeh2FLfl/jRCO3nWpyz8mHgzIpG1mWi5phYf2SBBYh1liXfHe7U9kW9Fz2dkNxyuRnGauVyjQNLlXSqqUdHQBnWgtiZiuX9sab2HoQpJOrKkpLU6WvE6mazQ48QJ1KIfuKbnf44FaTGqJ7VZ7Lq4ONrl6zmmm5GvM7TWSzlPuz/S3vy0mXd/RFv8tw/XQVVTWfcBNtwz9cXdsj59wpGN8uAoAJam8qu6zkg60KubjnVNPOG04Z7mtqakp6g5LOl066dkrDw9O6Whf/PgRXb0wzA5s3B/eUKUwuF9SjDQy8MEQHKMnNm4miEyfwBf7/3Zfu+idJIFcNzTz338pt2dw2iMFFxfaUo2pUF5d/w65/0JSkJt7YGsiYXj5muXNK+nNw7jAqKmr81DzJR2f47uywd0+2NXedLsKYMmULPkc+aOk1+f5rjYFbp9e297UnDfXFVW1Fwey7yk7ni79PwtGXNbRcs92jqrMOLGmprQ4HPHLPCoI2Bwmg1eylPQwnSNW1X1Z0mdzfT9MetLdvtsf6/vBkw8+uJWefWlllbMrzYI2kihQrp0ydUpaLfPVclvlgVYpGV3V1d7YQ0C5a2iJ74WSXpvnu3q7zD7b2dq0Im+u2SvrX+fm35U0KQua87fS/ugbC2G29AJlUyrrZ7vpHS6fJ2kCkWStUNJGubok73KzDSZtMdO2MLRtFoTbIkltG4gG24q2j9q2Zs1dfYf06nPnRib9Y9MYSYrGNDpMhhMiQXRC6D7BpGNkflzoOlmy4818kkJNlml0AffHRpl9srO16dfKw4dIcWgmz5hTHkTDS+S6VIMPWo4glWF//1st+UpzW+uyNUFga0NPrO2cetKGTC+53dDQEF2/MzzNw7DS3auCwCrdVSVpXJ5eP94ahOGH1q5YQhHLYRoq1tuooWXBTfrXjrb4N4fhNYelAHDotdZJGnWAU8e5nW1Nfxi2657B1Yp+s197H+hsjx/xgygUAL6EcfMv/4JcN5JE+tXEKtS2nhWxMvoZVqSd3adun6DzGxOkgZy/AAnC3+6bUjjHDbj5J7pam79Fzx7exci6HQP/IbeP5cE5UJ+kb/QFvf/JMm8HeW5RU1PU7aUfdPevKq8e8LA1buEt0aLET9c88MAOejp1yhoaRgQ7Ene66/wC2N2/eKAvdLXEH8jZmwkzZ51UZMFXZfaOrDhSXbeF46Jv62ps3MvRlBnlVXUzTfqNS6fn2a5tlvs7Otub/0YvH+b7xaxZJUV7o1+X/IN5tmu9kn4TePBTZop82feHVZJOIQm84P1V/g9Jq2XWHnrYmhzh7RuWLmXJkhwxWPhfcrek+jzf1VCmPybdblzf1vRoru7E1BkNExORxNdMeltWnL9Lvyvp7353ISy1XECCKTNmnx5GrUGyOXLNkXQcseS1Hg0WqCXl2jF0cEelZ4v3RkkqIqaD1m3u39gdjrz56RV/3U0cBXr9PHPWSUWR6Pnufr65GmSqIJUMngNKm4f+t1HSZpltVqhuBb5dsu2Sb3e3HRHzXUMnjQPJyOB/FykYGNgb7pKk0WF0YOXKxl3TptWO7o1ZNIhEx0Yj/RH3YFyYtIhF/NjQfaLJTpLsZMknSjpRUoWGCrny3CYz/2BHa/OfGHZHrqyy7qdmeu/QHzdGdo6uOOTi/f3fl4axAHCwfbXfNLOPHOAKYVlnW9M5w3VeWl5V16LB2YMHm2v+lq7W5t8Pw3UMXtR9DdFxz4xrlnQOYaTXxSOr9Ze1zBqdUSPtzdvet+CPBIFcNensuopIUp+S693Kv9lc73Hzz3W1Nt9PTx/sCVv9ZYH5f+Thl/5bXPajRJi4ZcPypU/S0y9yIl1Z9yaZviLpFXm7l66dCvSrIAx+vbZ98VLxBG5KTJtWO7q/1O5Q/n+JuE9jaLp53ZQTFmX6idKDNbWq/piEh582s/crS546Ntn3O6Ye/8FcyTDfTK6prw6S/kmZ3iQpkqe7GZr5Lz2hr3auaF5Frx+cE2tqSmPJ0nkW+KfkmpbXO2taZaH/IlFkv1+/LN5B7z9XeXXtB+X2HZLAQUhIeszMW1xqCd1bKArMbhU1F4z1sO8uyWcVwO6Gct0p+c2d7c335Mo1YfkZ5x5nsaJPu+vabDl/d/f/7mpv/piYbT8XBSdX1R4f80hZGHiFQj9VpmkaLPSfpsIoUgCG226X3Rwm/BvrH453E0fhmHruuWOS/cWVrrAyMK9yt1rl8/114IX6ZXZzpKj/y0y+MIzXaDPrTvFAj2roPq1LN3S1xW8+3Ncb7gLAKWfPOTlMhGt1gIcEAgtevbZ18d+PNIOyqvq3mHz/ZaQ7J4+NntLYeOQTc1EA+DKO+sObTk2GyVbl19rkWe89Y87XLx//O19dZ0qxlmy7dmEtQSDnLkhmNExMRhOXyXW5Bqcbj+bz/pp0l2Q/2Z0suZun7l7olJqGo/uTibcPPUkyM893d8CkP7rZHR5G4l3tjV2F3v/lVbMnmwXvddd7lB1Lf6ZTp6TbZbonttsbV61q3sk7wvAZmknkj8r/5cT2v1ruMtcPFbFfd7TE12ftMa/g/S79Px1wiv6M6JfpQ52t8R9y5KTPSeecc1RRIna2haqT6Q2Sziyg3Q9lukuhLVSif1HnIw88zYh4gaCssm6OSW+VaZ7ydVmal9busts80J/XtTS1i+IGTZ/eMGpPLPFEgY4HHLk+Sfe7674gons7Kk5YStF/djluxkUjSyN7Fki6oFD22aRHQ+kHNjDw+2w9HyirbCizYOADcvuApJFZ0qxeSdd2tsV/xZGT/ed0FdW1l7sHlZJPljRJrkkyTVT+PQgOZEq/ZD/0aOQrXcsanyKO/FTW0DDCd4TlpnCy3MsCWZnLp7qs0gZnd6OWBAXJpLs86R/hQdsUvfdU1f3GpLcO/XHbQH/yFRtWLt12OK813AWAklReVfcLSe964cCwv3a2Nr3mSN93bXvyYcmn/rOpR1YE+byxi5cz7tYrPir5TSSRPh8ef6luXnU7t6EzIar+RCx2wo6r5m8jDGS7SWfXVUQSqpOr1kx1Lp1WoJ9te+W6R4H/JZAtPXlMdPlwPCWQayoq57zCAz9XrnMlf6UGi/4KdRmHjTI1e6jmQOGSSeNibfk+JqZW1R8TSnNc4XmSNUg6g3NdSVJCrvtduiciu8d2jXroSKZTx6Dp06fH9sTG/UayNxXYroeSmmT6TWh2+7qWpk0Zbk9QUVl/scuvk+kSSUE2vQ+HCt+8rm3JUo6Y1GloaIh27kzOiCT9lW56paRzxTKe+x+vK2W636SlSQX3r2td/A8V4GN2FTPrTgnNZ1lgtea6xKWTGB7Pekayv8v872EyWHZ0dPcjLS0tA4UYRHl1/Tfk/jGGBI6cbZX8Dsn/OHls0Z2FeG2eldeLUy8uTo7e8XvJLiu060GX/dVMv+2P9t315IMPbs1oa+bOjZSv3XSJu11n8tdm2fn7ujCwN65raWrliMl6QXlV7a0FeD0OpEufXL9wRf+Th8zz5DyoZvaUpAeflDROrvGSjZV8nAYfgDqGhIDneNxMH+1ojf+ZKFJncvWc0wIPl2voO1yXvtfVFv/A4bxWKgoAp86snZ4M7GEd4DtG97Cqq31J++Hue0V13Y3u+sJ+7eyI7Bp9+nB9b8eXogfjxhuDcae336vB2aSQBl84ap6+/NitUsgUgOmWLNXV269a+GOSQLZpaGiIPrEjMTMZqs4C1cpVJ+kEkjmgPZJaZPaAh+EjkcAe6bXexza2tOzJm5PDGXPKLfAZMs0083MGi/50NF3/ona7/IFAinvozbG9tjTXZ4WbMmP2sWEkMkfSeTJvkGs657YHZUDmj0j2kMtbIrKHRvR1P7xy5cp+ojlEc+dGyh7f9KOhWUYLkZvU5q67XLqnNyxdlo7ZaI+bcdHIkqD3QjO/VNKlko7Lwmyaw8DmZkGBZF6ZNq129ECppsk1zYOgUu7nSqqRVEo6B63HTG0e6lE3f8RMKwf6wpWH+4RttilraBjh3eFpkSA81c3PkNuZkl4pvtA4FHvlWi7pIZc9FAmTD62ddtJjhTCb2eAN4+hqyY9iGGAYPWXSL4Ig/NGaliVriSOzGhoaout6Bn4ms3cUaARJlx4w051BGNyXHBe0djU27k31RqdPbxjVWzxwURjapWZ6naRjs+7CRv73WFB05eqWxi0cKTlwzldZ9wUz3UgSwLC/Ge6U6WcDYfLrG5YvfZJA8sOkM+vGR6JaIulU0gBe0ja5fbV0YNu3+a4kPSoq677mpk/s+xQKLLjgcJbXTUUBoCSVV9bdLtOlL3xZ/barLf62w3pPrqo/PSJvlVT87Ou5XdHV3rRguHLlS9KDNOG3l50cRqxd0gTSSL1vHvtefWLlzxUmmQIwrUZYfNs1C+oJApk2bVrt6L6Rmm5hcKbMzzDTme46W9mzpF8uCiXrMPNHXP6oe/BwENjKkr1bV2XzyeyJNTWlI5LF012RSplmSD5T0gxJY+nSI5KU+QqFtkSy5WZhW/+IcOWGpUt7s/JCoKZukrtmyr3SZZXmqpSpnHPZYdMv6WF3rQhMj0ha4QMDD7N05MFeqNZ+2s3+Xdk1e0UmJCQ9YrL75f6wzFb1h4l/HOlN46k1s6ck3M4yBWfJ/SwNFvOMyNoUXLeUDnR/lBtFh2/K2XNO9kQ4zU3TFOo0maZp8Eb1RNJJFdsqC9fLtV6ydSatk+upMLCtQZjcFkS0LZGMbe1qb+zJdEvLzzj3OItGJrlFJg8u9+aT5VbuptNMKpMUoT+HXZ9Mj7trtaTVgWm1hbY6EomsyrdCifKq+g9JfjNdjlRcj7u0QB5++UhmCsDwfOiVVdV/zuQ3cj2pfkmtkh5080flwT8iyeRja1cs2Xwk+U6pnjUl6dGzTH6WpH3n78VZe/ZudtPkMZFPM1tnjnxWz6w/R4Ev5fobGFZPm/QtBSO+19Fyz3biyLP3zaq6H0t6H0kAL2q3Sf8TevSr2XDfq5AcN+OikaWRPY9KmjR0at7lXlR1qP2QsgLA6tp6uS0+wF8lklFNW78s3nEorze49G/iAQ1+x73PPZ1t8QuH9YKXoXXwxv7+8jeZ6Q8kkXo/Pv4Dev8j31cykSSMNPGI+iw56tht1/96B2kgnSZV1Z8eda8MTWea6wyZpmvwyzs+o9JjwKXV5lop08Nm/mjRbv0tE7PDnVLTcHTCE6/00AYL/QLNlGuq+CI3XRImrQ6l5TJrl7T8KNvz90wsA1deNXuyFFzv8kqTVYoHMDLlGUkrzPRI0v0v69qa7yKSA5tcXXdF4PqVpJGk8QK9cm1y01OBabOHGvxCMbAd5p7c74LcXBqnwEbKfZJcJ8l0krL3y8Ln22ym97E8xJGpqK7/iLt/kySy9JrR/C1drc2/z8S2y6vq/lXSlyWV0BNZpds8fE1H+5Jl+bAzDQ0N0fXbE8tdOp2uRareSiW7PQztxnXLF7cRR+aUV9fOk9vP+Vw5oN2SNsr1tExPybVNkkzqken5y/WMC6UxJk3MwfP3DSa9t6Mtfg9dnkPHblVdo6TzSAIYlpOSlTL/jsYU/SIdM8Ii/Sqqas9y2QOiaBo4kH65fq7EwOeZCCGT12V1r5drof5ZE3B7Z1v8ckkHPUtYqgoAJamsqq7ZpNkHeO1bOtvjHzy09+S677t07X4/2mUeVHe0L358ODOluOIQjZ9/2Q/d7WqSSJ2oBfrVCTfoPY/crIF+HrxLlzAWvLvnutt+SRJI6wVITd0kD7VGUhFpZNHFv9vlXe1NC9N+oldVd5ek19IDWfTZEFjNupam1rS/N1TX3eiuL9ADWfS+ILuzq63pdSTx4ibPnFMVBOFCSSeTRsG5PUiGVx3hbCmQrLyq7klJJxBF1n4YHPGNs8NRVtkwziyxQRRZZ6ubO9viN+TLzpRV1jWY6V7xJRlSfKkl14/7Y/2fefLBB7cSR2ZUVM4+2y1YIOlE0ii4c5pbBwaS79+wcuk2wsilY7b+dW7OA1fAkRmQ6zY3+25XW9P/EUd+K6+qW6rBmXgB/FO/XD9KmP/HE23NG4kjC87xquu+5a5n7yuZ6YsdrfEbD/b3U1oAWFl/mZkvOMBf7YnIyta0NT1zUO/H1bUflNt3ntM89/d0tTf/Yrjz5GbWIereNf56yVaQROqMDkplMkWM4ZkuHlMjxX/IiFAfEMV/2cfCtH/xXlE55xWSXkP42SWS9FMz8rnkVkX6WXe2MI4MXtq65Yvb+ov6q2S6gzQKRq+7PtzZFr+M4r8jV15df6Yo/svyc0SdmYnNBpZ8tSj+y94zhMHlHfNGV3u8UdK36Fmk+q1NpmtiA8WryqvrrhEP6WdER/uSZUVBdKZJzHReOHbIdG1ne/xKiv9y8JzD/JOkABy2TSZ9LYgGUzrb41dS/Jf/yqrrXyOK/4D97ZJ0cxANpna2xz9I8V/2KOnr/oSkB58953N9fug6OeO62ptul/TYAf6qNCl96GBeo6K67lK5/fdzzmul36ai+G/wZgMOzXt/vjcIEm+T1EsYqTE2KJUkRQKGZ1pE1Bsr7b2UIJAJbrqcFLKPKTgx/WMhfIP40iMLj1E7NUNbLif9LHtf8IOfcr2QPfngg1s7W+Ovl/vHJQ2QSF77m3kws6s9/u3Ba3YcuXAOGWS9kyfOmpX2pRJdaiD6bL520CvybZ8iO0d/RrJl9C7S8A53lFw/KK+qu7Ps7IbjySP9Vrc0buloi19q0qclsRRNfn9iLZLCGZ2t8R+SRe6pqJlzpqR6kgAOSb/kC93tisljo5M62uKfWrts8RPEUiCfeu7/RgqAJGmzmb440J+c3NkWv4H3weyzcuXKfvfolZL2LcVscn23rLr2yoP5/anHFO8ITGe94H9B8iPD0LwwiAavef5ru4dVCYXff7lfLp85+yJ3zZcU3e/Hy6OxgetSlWeUIXXotr359pXjf3/Fx938f0hj+I0NBr9PiFiEMFJ+BiipKHzP0+/6627CQLpNrao/Juk+jSSyUfpnADTp1VRPZOPHhB+boU2PIv3s4mY7SOHg4+psb/6vspq6Jgv1W0kUtOaXx8zt4x3tTcz0OOxHTjCNWsqsFxTtDMco7Q9EhjN4TiSrHaO5cyOaPz+ZLzu0Zs1dfVNnNLwxGUk8JOk4uhhp8FpLJFaUV9Ve1dnWvIg40i7saIt/dUplfVNo/mtJk4kkryw32b92tDXdSxS5fJT6BwgBOGgt7vpVJAx/u2+1gi4yKSgVNXV1HlI0jUJna9zC/9KYol90NjbuJY/s1tXe2DW5pv6SIPT7JI2RFDG3X5dX1Y7qbGv+yUv9bmNjY0JSS6raNlQ0esiFoxXVdZe661ZJI/b78fqE/JLOBx5I2fdtTLF2mLqvvO0WSQtIYviNHioALAooAEw1L9Jftl1z+60kgUwIA4r/sve8OMjEzC6nE3wWfk5IpRna9AjSz7K3BYVMiX+oF60t8Qf6gt4zTPqapCSJ5LxtLn2qtL+7kuK/VH3oeBkh5MDnQXFRcfrHhk0k+ew2ccOGWL7t05oVjRvc/HJJPDCJdDlGsgXlVfVfElXPGbG2vam5L+g9fej8nRnQc98Wd324c+oJNRT/5baampoil19JEsBLesKkr1moaZ1t8bO62uPf3lf8h8LjSb+WFFCow1/SPaHpjZ1tTdO6Wpt/0EXxX85Y19LUGoZ+uaS+oR9FJPtReXXdv+XaNXJ5Zf3V7rpN0v7ft3cnZRenevlpZgA8kneQgYF/saKiKvFU4LAaGxkpSRoRiRFGKkXU020bXk8QyJikj5FxTzsbmcL0Lls5d25EazadRPJZebU0MkObLib9LHtfMHuSFA7dxpaWPZI+NaWy/vbQ/MeSTiWVnNMrs1s8jHylq72xhzhSegJCkVcOCBQWZWBsnEDyWT4udkVGKO0zQ6ZeV2vz/RVVdZe7dIckblIhPe948s+VV9Wevic58t1Pr2DFjkydv5dXzblTCn+sPFzmvADslvm3Y7v11VWrmneqnUBy3VYvebVJ40kCeB5Xh0x/tkDzO1rizWJKfUg66ZxzjtKAvZkkUGB2yPW7IAy/s3bFkkeII3etW9583+Sq2isC2XwNfj9pcv17eXXdzD2J0vdm+zXy1KkXFyfH7Pym/AWzV28OTJd0tjY9muo2MAPgEdj+9ju65eG7JCVIY/iMCQYnGxoZ5bv/lDH3ZMQv1LUtA4SBTAkVFJFClt47CK0/ndur6egIxEMJ2aovQ9vlJCD73hcoADwCa9ubmn1stEqur0jiqcPcsFvSTR6NVnS2Nn2c4r+0XKSw/HsOSASxdN9oMz33aVlk47iI9fbl6751tMXvCU1vkdRPTyONb31vKo3saTzpnHOOIovM6GxbvHhgRHLm0GyAfSSSCxet2umy/4zIyjtbm/9t1armnYSSJ++Ioa4gBeDZi6NHzfTF0ILTO9vjUzrb4jd0tMTjovgPQ4r6Y+8Qq+ugMISS7pX0rr6g94TO9vi1FP/lh3VtzXd5oFdL2rLfuf7c0sie1rKaunOztd1lNbNOTY7e2SzX84v/Os2DurWt8ZZ0tIMCwCPUc+Wixe7+WZIYPmOGVp4cFeEef6p4SeSm7dcteogkkNGL1SCkwCd7pbU4uKWlhUL6bD1O5VsytOkI6WfbWAgpADxCXY2Nezvb458NosEpkn4lbs5mq12SbvZodGpnW/xjXcsanyKStH3mcAGYA3r7Yun9Mn3uXO5bZb/kxpaW3nzewXWt8dvM/QpRxI/0Ois2EPv7lBmzjyWKzNiwdGlvR1v8UxZo3/k7spFrp0lfGxhIlnW1NX1mTVvTM4SSdxcKFxMCCtg2SX+Q6dqE/KSOtvj0jtb4jetaFz9GNDjgW6bpTaSAPPcPSZ+zQOWdbfELOtvivxqaxRt5pKsl/oAHyXrJ1uz341MsVLyiqu6rx824aGS2tLWmpqaovLL+MxZG2iTVPPc0Vq0JeV1H++LH09UebqQOg+3zFn5d0p9IYniMjQzOADimiO9/UsGLtbL7qts+ThLI/GA0CgCz9ipR3ekeDaIQJjsPUwWZKgDcQfrZJYj4KlIYHmuXLX6isy3+LpmfJ6mFRLJGt5m+mExoUmdb/AYK/zLxmcPymjkg8fSKv6b1purQTNHIbjsL4Vy+o735zlDhqyRtpsuRRjM8Etw3uaaepdAzefy3xNd3tsXf5a7zJRaUzR62VabPWmTEyR1t8U9tWLl0G5nkn6H3v5NJAoV0zSWpxaSvmXThhKD3+M62+NzO1vgPn2hr3kg8eCnlZ5x7nKTZJIG84+qQdLMFqu9si5/W2Rb/946W+HqCyW9dLUv/EYn110j2+/1+HHXpkyMje1ZVVNa+XRmud5tcXXfFtrDkEZl/Rc+ffdV1S7Bz9Ox0f36z3N6wXGvKowvD9yT7gukuTSOQIzPGBgsAx0ZGEsbwH/H9A2HwKoJAVrx1mu92N4LIxnNpt7UZ+TRFFh6n6sjQlndIzkwX2aN7TcuSDmIYXp2tzU2SzimvrHuTTJ+TdCapZOTT5xF3v2Vkf9H/rlzZuItAMtkV6udpgGw/SdR6pbnQq6WlZaC8qq5fFIhm88G7oVB2dV3bkqWTZ8x5ZRANF8l1Bp2P9Lz16vQg9Lsrai6Y09Fyz3YSyZyu9nijpJqyqvp5kn/WpOmkkhHtcrulL7LnN8z2UgCnGUmdyx1D5LleuVpMWhIGuq/fehfz3obDVhS9VKysg/yQlLTEpTtC2e3r25seJZLCtOaBB3ZIektZde195naTpJFD18knyex/y6vqPivpPyYEvb9raWlJ1+p2QUV17eUe2ifkOtCSxD0mu6qjvemPmciMAsBhsuWyRTvH/+EN8xQGSyWVksjhGxsMxje+iALA4b1aljzq7951zW08rY7sGJJh8LQbX/NmoyDiazKw2R5J40g/y66yXK2Z+cjyHbw7ZJWHxCydqRJ2tsfnS/pDeXXdpXJ9XtJZxJL63OW600zf7miN38v4zg4u66Ursv6aMlPF4NslHUMHZOvBawX1kMC6FYs7yxoazrbtia9Jup4BgDSZ4eHeBVOnXvzaNWvu6iOOzJ5HdrU1/U7S78ur6y41140uVRNLyiXlustM3+5oi99DHIUjCLzSuURAXl1S6Uk3LXH5EpktPUq9rWksWEC+X5rJZlMzjRy2Se73mtmd/f3JvzC7M/bX1dr8g4qaurvk+ra7Lt/vr06V9MttYcnXy6trf2ph5OepWm63oqZukiftHTK9192nHuAhFZf0K49GP9mZwdWFKAAcRt1vXrRi/PwrrnH3/yWNwzc2Mrj07zGxMYQxnIp0W/c1i35HEMiai5GIP6GQHLJRUhmZAXC9KADMNnvWTz1+ldoysGXTdmpAsuj9mmVq0xJzZ2v8dkl/Lq+qfb1LN5jsfDE76nB7WtKPBsLk9zcsX/okcWTdYcAMjFnOpLUZ2nS3KADM3nFh3llo+9zV2LhX0g3lVXUPSfqOpLGMBKRBQ3L0zh9JehdRZNf5e1ll/WVmfoOkBmIZdpvM9MOk2Q/WtTRtIo4CPNBCHc1VMXLYBpmWS75cobVbRA88f8nKLjLC8F6bVYlVt5A7npF8sbn9PRkE961rXfwYkeClDH2GXlFRWXuJm/2XpNP2++vj5fYZt/Az5VV1K0y+wBW518cGDw7dwzn0C/CGhuj67QOVLnutSxd7qFfK/MBLDpu3mdn1HS3xeKZzogBwmHXPve3X435/RYPMryKNQzfCYopZkSTphOgEAhkuRdq87amqN0sLyQJZ9UFdXlW3WRLLfGbZSfe6lqa0P5lg0qMuzSD+7OHy+zV/fjIz29YWeiB7BLKHSCF9w7+zrXmRpEUVM+tOUaB/celaUSB9JPrk+pukX5YOdC9cuXJlP5Fk6+eObTR5JUlk9bnBsgxtd4PJTqEHsnRceOE+KNDZFv9V2dkNf7PEwP9I9iZGA9LgneXVdQ90tsZvIYrseRvsam9aIGlB+YzaaYrYByT9i6RRRHPY9sp1j6RfToj0LmBmrAI/wEwTKGVBTrxvSf+QtMKk5ZIt7yvqa3/ywQe3Eg3SZu7ciNZsmk4QyFKhTI8qHJwB1ULd37mieRWx4HB0tDffKenu8qr6N8rCz8it6nn/ZIbLZkjh52172FdeVbfcXStN9pgCbTL3p8zULUmW9L0esRHuNs6l8XKVm6kilM9Ytz1RJVmJ9OKzNLi0JDD9Z0dr8x3KkqVtKABMgZ49Yz80bmRPlaQa0jg0YyP/XD35qOiowaOJGYCO7CI5UDISCep1443MtYYsHKB6UKZLCSKb2N8z8c7r5s1yewv5Z9FIcN2VwTeHLiY+yxqJ/v7EfcSQgQvZ5fHVkj419dxz/yM5UPROhXqnTOeSzEEJJS026VcKRvyxo+We7USSEyeG68ggy88NgsiDmTknsTUyvYoeyNZzxuD+Qt7/rsFlXd5cXlk3V6ZvSJrMqEBqPy5105TquvvXtsaZpTvLDH2JeUNFzQWfD8O97zbZOyQ/m2QO+vz9Pnf732hx/5/WPPDADknqJBfOM8xCsQYwskNCUqfLHpeHqwILHpf8cVf4eGfbkvXim0xk2LQVG0v7Sy1GEsiC65WdbnpY0nKZL5e0fGRf0SMrVzay8geG9fqhs63pD5L+WD5z9oUeBO826QpJJc/7d8WSzjHTOZLv+79/nl4GNvQJPvSDoT++zLeTu2S2UG4/7GpbvDjbgqEAMBXe+/O9/sc3zbNk8iFJ4wnk4I0J/nlMFllUFpE8QS5H9Dk7InjflqtuW00SyEZmdqfLs60AMClpx9B/98m150X/ZaA9cvW9YL+kEneNOPBOq0R69u/GSgqy7OT83oxsN6G/KcIxkUX6ZD4/g+MwFU9/7ZXUK6lfrt37HZM7ho57SRqQtOufzdAOMyWfewj7bg/t0GYQM+8z2bPvJW4arfBFz8PHKRi6vghVItMIM0XcNWbo70fLFZVpxNDFzDiltlry/zasXLqNQyJzhr78ukXSLVOqZ01NevRtZv42uaaRzgssd+m3kWjwm7XLFj9BHLklkNbwjUlWn7lv7ag47tGMzPVm4no2e23uaF+8hhikzvb4/ImzZv051ht82GWflmk0qSBFisNQt04999yqfUVSyC5DD5/cLOnmipl1pyiit7nrbZJeQTovuFZuU6jfDHj42w3Llz5JIHgB9zZJbycIpMEzkp6U9IRMTyi0J2W+IQz9iWgkfGKc9a9jRlJks1WrmneVV9XtErMQI336JVtv5o9IWi75isB8+ZqWJR2iKBppPFvsXL7kr5L+OvXcc8ck+mJvDAK/zF3naXjrtLaZ6/9Cs1v7gz2LNra07MnaSyzGROqMvfWKC01+pyi0PGhnjZiij0247Nk/v+uRbyvRTwXgYb/jlfhvu69e9DaSQLaaMmP2sWEkePIg3yf7JO2RfLtkeyXtNtMOufa6aZeH2hWY+iX1yLQ3dPVKvj0w6/NQu0LzXVGL9Enh9gG3XkV9b1FfuGvAgwFJWv9wvCdTJ6UNDQ3Rjq2J0ZIUBsnSIBYpjiQ02uRFko2TW7HLS800OjQvkts4yYoDeakPfrFUJGmc3IolL5VrtEzFco2RqVSDBYfjDqYtyaimrF8W78hEDuVVdcsknXWIv7Z78EJDkrRLroGhM5ydGnwyU9LgVM6SEkM/l1y9cu2VJAW2w9yT4WD/9/zzLOm5RVtDv7dXrt7nnEwFg6/lphKFL1L4+VInY6bRbvsfAx5zt5H7/hQMnq89p/+eLSAzRWRDhWGu0UPHUrGkUpPMfej3TKOGxklM0siDaNZNnW3xj2XqvWHqzNrpycDu0WAx7o6hfulxaUfgtkMW7nDZDrltl3y7Au01V29ovisiG5CS2xOJoqR72DM6jA7k+9NlZQ0NI8KtiRKzYJxHvKTIvMTdxsm8xEOVSDbOzUs0VDAYmErcNUqmMRosLBwlaZRco81U7FLpUJHhaJne0Nkav51PrCz8DK2uqwndLpP8Yg3OPF6I13a9Mv3d3O5Q4Hd0tMTXMzJy+L2suvaV5raUJLL25tEPOtri12XkHLG6tl5ui+mFbLzpoFs62+MfJIgXXud6JPiouz5AISBSd/jpe11t8Q+QRO6oqJx9tlvwBpMucamqQM/f90i6183viCaK7lizonEDIwMHKZh0Zt3Y/X8Qi1q0P+rP+ZwNwmQs4pHn3vcKbcTQPZH93kO9dPA+6n7nuy+4PycptLFu/pyHt4PnfZns5oFCG/vcnylqzz8HcI9JNvJ5b+Yjhh4W31+pXMXPOxnfd19vf/s/ZI7nfESqR1KvDd5L3Gqmre7a6rLNJt/q7luCwLYmPdxaFGhzYnTsya7Gxr1Eh5w/16iq+5S7rh6mmwAR6dkH0vf3Yj9HfnpKsk6ZOuTeaaaOMFRnEFFHR8UJT2r+/CQRIVvPHadU11W567xQmi7pVJNNk/yog/jdzZKtlfxxyR6S6f86W5se0eCs5VmPAsAUG3frFR+V/CaSODivHnmmrh574bN/vurR/9GevX0EczhXOTHr6r52QYWMKntktymVc2Yng2Q4WLQjeVI7E7HBwq0RYXTH3v5EMpPFeflkX5FQzKIj+4sTMUkKBsIxkSCIuLuZRcasbV3890y1r3xG7TQrsmNsqMDOkr63P2aD/x1ar/f7XkmK9Y7es2bNXXw4HKFJZ9aNl6R94yHar6hFBm9OjuiLrmJKdiB3lJ9x7nEWK7rEpYvlukD5PQv5epfuCNzu6C9J/H3D0qW9jID8UFNTU7QtLNkmnlbPzutLWUNXW9P/ZWLbU6deXJwcvbNbL1zGAxkWuNWtbW9qJokDmzh91oRYLLjBZR+QdDSJYJiFFui8jpZ4nChyz+Sa+hMioV/s8kske7UO8qHNHD2L6JLZnaH7n21s0X0U2QCps/9D5vszC8Z5cfic74OjYTDSPHzOcqFJeVHg9oLrMfeDu8dggUb5CwsVD3Bt4Tb4gPuL/ovtZvbsl+wePvch7X0PY5upe8Ct15LW6x72BEdFe3mPATL73hOGSQtKI88e39YfjI1GwkCSkm6jAnmRJO0/mYLJYx4MFkibWySUP1tguH/RdSiNMR9aRyqwkZLHhv6iZGi1HGmwODGi/Yqzn33gfdCBCqoLzR7JN0v2lKRnXHrGXJtceiaQnrEgeMqSyaf3RPd2ZvMsZ8DhmDatdnR/qU+IhDYqqWCkBRpt5j1uQX8iCHfHgoEtuT7TPgWAaTDu1st/LOl9JPHyLht1jt46pu7ZP39o9Y+0dRerWRzybZWI+opiPnnz1YueJg0AAICCEkyZMfv0ZMTqzFUrs1pJ5Tm8P0/JtViBFkeS3rhmefNKujh/lVfVHc61c4+khFw7NDgb9G4Nzi7T9+xS7q4dciVl2mlSwqVdLg2YaZekAQt9t8v6TbZH5n3mwR4FYZ8k7bsB9JyDTNE94d7Ecx5GWH/qCTte7snnmpqaomf6S17whdr+D2fsryi53xdtQzOX7JutxGUjLfCYXKNdipr5GHOLSBrnLlOg8XIPJBs7NDt0qVwjZRqnwdmAiw8h4+bOtnhdJsdGWVXdr00artnteyTtlWuPmXrcNSDTTrn2KlCvu3YG0oCkHpf1u3z3vrHh8u0WDn4Z6YHtCNyf7XNX0B/Yc8eKlNw+EIm86BPCkT4vCqIv/JI1GWp08LwZaEJT1MJ/ziTj8lILrNhkI0P3mMlGmjzmPviFhptGmym63yzRg1+EyMaavGToC5BxOvx7g3/rbItfxDvXQYzfhoYRtj0xT9L/k3QOiWAYPRbZObqKB+Ry//y9ombOdCXDeg9sttzrJE3O4f3ZJNlic1+cMGtc39b0KF0MAACyzb4JEoosLBooDkZJUlFfWKpoMHS/JBjrHgbPuRa3/YoNQx/jZpF9r7fffZmha3YbOTj767P/oFjmpc/+vStiL5xN8fnX6Hs0uDra0OY14IP3sva7WaBuk+1x+W437ZR8u8n2mGy35NvDQDsjA+HuZBDb1RvGnnl6xV930/tA/qIAMB1+9p4R40f2NLp0LmG8tHePPV8Xj6x69s+f7fy1OrqfIphDEcg9Fryh+5rb/kwYAAAAOLmq9sSoWY2FfobMZrjpDLmmKfueeN0rqV3yZbLgQUv6gx3L46vpwcJRfsa5xylWdJlkexR632CBlRJm3hPKBpIR3+UJ32sJ6z0m1rurpaVlgNQO09y5kUn/2DQmGtPoUMnSiEdGhvJScyt+9kn8oRvbYSL427oVizsz2dxJVfWnR+XvkiTXYMGmJO0r4pQkd9th7sn9ZwTZN6N0uCfZozHqZdbQF9o3S7hGaHys30vCQCWSjXt2aTzzMTKLPFtsKo0yqUge/KSjffHjJHhoKqpqz3LZf0k6jzQwHNz14a72+LdJIr9MndEwMREka0yaLtMMl59h0ilZeP7eK1m75MvM/UEp8iCfDQAAAACQGRQApskxt849fkADyyRNJI0X9+Hxl+qVJac8++dvbrhdD23mO79DUqybt1278AaCAAAAwIuZPn16bE/xhFND+RSTTw5kZZImu3yy3CZLmpDCy9CtknfK1eFmK016NDRbebTtXkNBFwAg3006s258JKqN0rPLVAFH4plIbGBqri9ThIM8f4+NP83Mp0jBZMknu3uZZJM1OGPg+BRufoukLrk6ZP6IKXg0DBIry0YXr2lsbEzQOwAAAACQeRQAptGYP1x2roVqNBk3+F7El49+q14RO+HZP//mmbj+/MQDBHOQwmJb1nPtApaTAQAAwBGZOGtWifZoQixaNCEMfYKbTwjcJ8iDCZKKzHyMJO1bdvJ5vz60tKr3uYItJt/i7luC0DdF+2zdqlXNO0kYAFDIyqvqNko6gSQwPOzLnW1NnycHzt9fcP4e2lEeaILJi8yHlq5zK3b9c/m555y/m/a621aTb5H0jCXDpzh/BwAAAIAcuTtABOk17tbL3ynplyRxYP9z3FU6OvLP5e4Xb39U3197F8EcBC/yZ7qfLp6oG+f3kwYAAAAAAED2Kausv8zMF5AEho1rp0VGnNzRcs92wgAAAAAAoDAFRJBePfMW/Equm0jihcxM44LnTh5SXnIswRyMqPpdwTkU/wEAAAAAAGSf6dOnx8qq6v7TzP9IGhhWptEe7r2KIAAAAAAAKFwUAGZAz2OVn5DsNpJ4rrFBiaIWec7PToodxTyVL38Uuxfpip73L+giDAAAAAAAgOwyuXrOab2x8UtN+pSkCIkgBT7U0NAQJQYAAAAAAAoTNwUy4cYbw1G3zn37TvX/3WSvJJBB44NRL/hZIFMkElEykSSgF2HF+ty2qxfeSRIAAAAAAABZxcqq6j5kHn7VpZI0b9slPSGpU66nZbbZ5Luf92/GuT/30VsLPOaywSU63APJxkoqllQq0yi5YpLGSYpJGkkXZ43J63cMvEHSn4gCAAAAAIDCQwFghmyYN7/3mFvnXjGggfslTSYRaUJk9AF/PjI2QjsSuwnoAKxYi7ZevfArJAEAAAAAAJA9Js6cdVJREPmZpAvTtMktLv3NZEsV6oG+6J5HNra07En1RqdNqx09MMrGe6jxYegTIhGN9zCYIGm8m8YH8gkuP15ux5tpokvHiXvSKWLvFAWAAAAAAAAUJBZXzbAJt152eihr1uCTswXtgpEzdNXYC17w8093/ErrejYzWJ7HY9bVfe2CCpmcNAAAAAAAALJDeWXdXJm+L2lCKrdj0pMu/U6h3dq5vOkhSWEOxBNMrqk/TtIJEfcTQ/lJ8mCymU811xSXpkoawyg6LH3u0eO72ht7iAIAAAAAgMLC05YZtm3ewkfHzr/8SnPdUej9cdSLzAB4fPF4rRMFgPvzqHbKiiop/gMAAAAAAMgOFTUXjPVw73ckvTOFm3FJfzX3mzvam+9WbhT97S9c19K0SdImSa0H+gdTZsw+VkF0amjhVLlOkWmGpEpJJzPKXlKx2cCbJP2EKAAAAAAAKCwUAGaB7XMX/HXsrZdfZ9KPCzmH8cHIA/68rOQYPaBVDJR9IhoISsJztr53/nbCAAAAAAAAyLwplfW1Ybj315Imp2gT7tJtQRDc2NGy+OF8znLtiiWbJW2WtGT/n0+cPmtCLBatknymS5Um1bh0OqNvP2ZXiAJAAAAAAAAKDksAZ5Hxv7/8a276RKHu/6ePepNmFr/wHumjezbo3//xewaIJJm7SnTJtqsW3U0YAAAAAAAAGTZ3bqR8zaZPS/qCUvew9erAg/eubV+8hMCfa8qM2cd6JFLv8jmS5kiaISko2EBcOydEeo9qaWkZYHQAAAAAAFA4KADMJi4bN//yn0p6TyHu/n8d+y5NjB79gp8nPKl3tX9LLHYreUn0A91X//F7JAEAAAAAAJBZE2fOOqkoiPyvpIYUbcIlu6Uv2PPJjS0te0j85ZVVNowLgoFXeagrZHappHGFloEFqu9oiccZDQAAAAAAFA6WAM4mJu/5wbHXjB3/9PEme22h7f7RkbEHHqQWUayoSP39Bf7gaol9i+I/AAAAAACAzCuvrnu9XD+VdHSKNrHepPd1tDXdQ9oHr6u9sUfSnyT9qaampmirl74qcL/CpcslHVcIGYShvUoSBYAAAAAAABSQgAiyzLU/HBhZEr7JpaWFtNtjg1KNsKIX/fvxsVEFPSx8hBZtu3rBRzhAAAAAAAAAMmfq1IuLy6vqvi3XQqWq+M80f6A/WdXRFqf47wi0tLQMdLU2/aWjLX5dZ1v8RJMulGm+pEQ+77e5n03vAwAAAABQWCgAzEIbX3/7njCRfINJqwpln499kdn/9jmpZELBjgcvVnv3NQsv48gAAAAAAADInPIZtdOSo3feL+l6SZaCTWwPTW/sbI3P27By6TYSH1ZhR1v8ns7W+DwpnGpu35K0Oy/31DST7gYAAAAAoLBQAJildr7t9i2hkhe7/KlC2N9joi9dAHjKyBMLcyAU+ZPd2nAORwQAAAAAAEDmlFXXXqnAlkmqTNEmHrNQ56xrjd9G2qnV2bZkXUd700f6i/onm/xLknbl2S6ePHH6rAn0NAAAAAAAhYMCwCy2fd7tnYF0kaSefN/XY1+mALB61JTCGwBR9SSK+mbo2pYBjgYAAAAAAID0mz59eqy8qv475vY7mUanZiu+MBIbeGXH8vhqEk+fJx98cGtHW/MXgmQ4Ra5bJOXNPbii4mA6PQwAAAAAQOGgADDLdc9b+LA8fKPL9+bzfh4TjHnJv58YO0oWsYLpd4/Yrug4P3XHVX9huRcAAAAAAIAMmHL2nJP3xCY0Sv7BFG3CTfpaZ1vzG9c88MAOEs+MtSuWbO5sj38wSIbVku7Ph32yUJPoWQAAAAAACgcFgDmg58pF95n8SuXRU6jPd9zLzAAoSWOLRxZEf3vE+iJFVrP5bYueZvQDAAAAAACkX0Vl/evCRNgu+ayUbMC1U6bLOtrin5IUknjmrV2x5JHOtnituz4sKacfxnbpBHoUAAAAAIDCQQFgjuiZt2iRu94qKZmP+3fMQRQATh55bCEckYkwptot19zGki8AAAAAAADpF5RX137FzW+XNCFF29gcBDq/szV+O3FnnbCrPf5t93CWpJy9P+fSiXQlAAAAAACFgwLAHLL9ygV/lHSVJM+vQWg6Khj9sv+uclRZnh+NFlpMF2+/ekELox0AAAAAACC9yiobxlVU1f1Zbp+RZKnZineZB3VrW+Pc/8liXe1L2mN7/CyX3ZmL7bcgOJZeBAAAAACgcFAAmGN65i34uUw35NM+TYiMVtRefijOGn1qPh+JrmK/cus1C+9hlAMAAAAAAKTX1Jm1080SD7p0cQo302mBndfRvvhxEs9+q1Y17ywbG7nMpB/kXOPdi+lBAAAAAAAKBwWAOahn7oLvyHRjvuzP8Qex/K8kjYmWKFYUzb8ONXlYrPdtu3rhHxjdAAAAAAAA6VVRXXdpMrBmSa9I4WaeCJPBqzta4utJPHc0NjYmOtri15nr67nVci+i9wAAAAAAKBwUAOaonrkLvijXTfmwLydFjzrof3tC6VH51ZEm1wi7rufqhT9jVAMAAAAAAKSVVVTVftFdiySNTeF2ngks+ap1KxZ3Enlu6miPf0qm7+bMwJbF6DUAAAAAAAoHBYA5rGfego/L9Z1c34+JRRMO+t/WjJmSPx1och9h/2/b1Qt+yGgGAAAAAABIn4mzZpWUV9f93mWfl2Qp3NQeN3/D2tala0g9p3lna/xDkm7PicamdkwDAAAAAIAsQwFgLjN5z7wFN0j6n1zejUOZAfCC8TPzpu+8RB/svnrB9xjIAAAAAAAA6VN2dsPxRb2R++Sam+JNucne1dXafD+p54UwEht4h0mPZn9TfTfdBQAAAABA4aAAMNeZvGfugutlfkuu7sKhFACOi5aqJFac60ede8yu775q4XcZwAAAAAAAAOkzZcbsMywxsFSmc1O9LXN9o6Ot6Y+knj/WPPDAjoRsrqS92d3SYBe9BQAAAABA4aAAMB+YvOfNCz/krpwrKBsdjNDYoPSQfqds1LE53V1hkf61+9oF/8PABQAAAAAASJ/yytoLwyBYIllZGjbXNGlc9N9IPf+sb2t61KQvZnUjjRkAAQAAAAAoJBQA5guTb3+s8kNy+3EuNftQZv/bZ8646bl6tHk4Mry+59qF/82ABQAAAAAASJ+y6torZfZnmUanfGOunWEyeHdjY2OC5PPTpLHR/3JpZfa2kAJAAAAAAAAKCQWA+eTGG8Oex2ZeK9NPc6XJEw+nAHDs6QqCHBu65h4W630977v9OwxUAAAAAACA9Cmvrv2guf1GUiwd2/PAP75uxeJOks9fjY2NCZd/PFvb584SwAAAAAAAFBIKAPPNjTeGPW9ecJXMb86F5p5UdOgFgGamSaOPzp0+MQs9Zu/ouXrhzxigAAAAAAAA6VNRXXej3L6jdN0HdT3Q1dr8Q5LPf+vamu+S9H/Z2DaTuukhAAAAAAAKBwWA+cjkPW9e+GGZZf1Ss4ezBLAknT9hRk50hQeW9BH++u5rF/6GgQkAAAAAAJA+5VX1X3LXF9K4SQ9k/yrJSb9AmG7Kyma5OugcAAAAAAAKBwWA+crkPXNv+6jkX8rmZk4qOswCwHFnKggs24+ugaIR4XndVy+8kwEJAAAAAACQPuXVtV+X/HPp3ar/aW17UzPpF47O1vgdkh7PtnYlTCxBDQAAAABAAaEAMM/1zFv4BXf/VDa2bXxktMYFIw/rd6MW6ORRx2Rv8FHtDaPB2ZuvWsRNXwAAAAAAgDQqr6z7d7l9PM2b9TAI/oP0C04o6ZdZ1iYPRyQoAAQAAAAAoIBQAFgAtl+58Gtu+mS2tWtq0fFH9PtvPm5WdgYe1c5ILHZmz3W3LWf0AQAAAAAApE9Fdf1HZPq3tG/Y7G/rWppa6YHCEwnC3yq7ln3etGHp0l56BgAAAACAwkEBYIHYPnfB183t/Rp8KjUrTI0dd0S/XzN6qkpjxdkVdExP9ydiU565av4aRh0AAAAAAED6VFTVvdXdb8rM1sOf0AOFaU3LkrWSVmRNg1wd9AoAAAAAAIWFAsAC0n3lbd+X/M2S+rKhPRVFxx3xa8w66tSsyddjenRb/6TJu66f/wyjDQAAAAAAIH3KZ9af49JPJFkGNr8tsmPMQnqhcJnbfVnTmECP0SMAAAAAABQWCgALTM+8hbe56XWSdmayHSYblgLAK4+tl5llPFePqbH7uoXTdf13+hhlAAAAAAAA6TO5pv4EBb5AUkmGmvDnNWvu4p5QAXMLs6YA0KSl9AgAAAAAAIWFAsACtH3ugntD6QJJWzPVhuMjYzUyGHHErzMqUqxTx03MXJgmeYl9r/u6heczsgAAAAAAANLPQv1Y0gkZa4Drz/RCYQuDYFm2tMUTvoQeAQAAAACgsFAAWKB2zFvwoAXhqyRtysT2p8SOH7bXum7iazOzuEsgV7H/a/fVCz7AiAIAAAAAAEi/8uq6a0x+SSbbUBSJ3kdPFLZ1LU2bJG3JgqZs61zRvJoeAQAAAACgsFAAWMC637xohZKa7fJ/pHvbU2LD91D2MUVjdPq4SendgYgN+Ch//bZrFn2TkQQAAAAAAJB+5Wece5xc38hwMzpXtzRuoTcgaWWmG+Cy+yU5XQEAAAAAQGGhALDA9bx1QZcGErMlNaVzuxVFxw3r61138mvSNwtgRD2R0sj07vcsuoMRBAAAAAAAkBlWVPRFSWMy2wpvpScwZH3Gjwn5UroBAAAAAIDCQwEgtP3td3T3jOq70Ey3pmN7MStSRWx4CwCPjo5R9VFTU952L/aV2/piJz7z3j8+zsgBAAAAAADIjKkza6e7dFWm22Fua+kNDI4Fbcp0G0KF99ITAAAAAAAUHgoAMeiSu/q6vehtMr8l1Zs6LXaiihQZ9te94eRLVVwUS1m7wxH6Q/e1i87QR+f3MmAAAAAAAAAyJxnYJ6UU3GA6dOvoDUiSAnsqwy14al3bkgfoCAAAAAAACg8FgPinefOTPXMXflCmj0lKpmoz04snpeR1iyyiayZdkIqjxFViH+u5ZuFcBgkAAAAAAEBmTZw56yRJV2ZDWzzwLfQIJClUuCeT2zdpoaSQngAAAAAAoPBQAIgX6Jm74KZAdqmk7al4/enFJ6es7bPGnqYpY08YvheMak84ItKw7eoFNzEyAAAAAAAAMq/IIu+XFMuGtphsDz0CSTK3zK4a4r6IXgAAAAAAoDBRAIgD2jbvtrsttDpJncP5uiOtWOVFx6W07Z8pf7NKY8VH/kIxezwssZN6rvrTYkYEAAAAAABAVjCZ3pYtjfFk2E+XYHBgaiBzA1E7g11j7qUXAAAAAAAoTBQA4kV1v+W2R5JRO1tS43C95unFkxTIUtrukiCmL7/i7YpEjmB4l/gvtl234JSe9y7oYSQAAAAAAABkhymVc2ZJKs+W9rhFSugVSJLLSzO4+bvWrLmrj14AAAAAAKAwUQCIl7Tzjbdt7VHRa+T2s+F4vTNSuPzv/k4oHq/ry18vO8RaQw9swEvCt227etF76H0AAAAAAIDsEgZ+RTa1xwKNplcgSWbBmIxtW/4LegAAAAAAgMJFASBe3rz5/T1X3vYvLvuEpPBIXurM4slpa/bZY6bqPZNfLTvIKkCPab0VBxXdV9/+WzodAAAAAAAgC7mfn13NCUfRKRgaDWMztOH1Ha848S/kDwAAAABA4aIAEAdt+7zbvhHIXidp++H8/vjIKJ0YHZ/WNl84oVLXlF+kIHiJIkCTVKyfdV+3cPK2q/+0gZ4GAAAAAADIPhU1F4yVVJlNbTIPmAEQkiT3DM0Gafqh5s9P0gMAAAAAABQuCgBxSLbNu+1uk9dLevxQf7emuCIjbT5v3Bn68qlvV0ms+IV/GdVujfCLtl278F/oXQAAAAAAgCwW9p0lKZJNTXKFJ9AxGDIpA9sc8Ej0J0QPAAAAAEBhowAQh6x73sKHo8VhjZluPZTfO7vkFRlrc/mI4/TD6R/QOce8Qto3G2CxtQTFfsK2qxf9jV4FAAAAAADIbm7hadnWpsDsVHoGkmTS6RnY6IKuZY1PkT4AAAAAAIUtSgQ4HFsuW7RTrreM+8PlS+X6uqSil/r3I4MRmh47OaNtjligD5/8Bm0+bkf4/Y13/ceSd9zyOXoSAAAAAAAgR4R2qiy7muTy0+gYNDQ0RNdtT0xN+yGR9O+RPgAAAAAAYAZAHD6T98xd8C0PwtmSul7qn541okJRy47hdmxsjH2+4u3/TQcCAAAAAADklMnZ1ySbdGJNTSldU9jWbRuYIimW1o264uuWN99H+gAAAAAAgAJAHLHtb170UEJF55j01xf7N2ePeEX2NNj1j9fOnr2NngMAAAAAAMghpvFZ2KqgOFF6Bp1T2DyqyrQfDqYvkjwAAAAAAJAoAMQw2TVv/jPdj1ZeLNPnJA3s/3cxK9KM4klZNOp9KT0GAAAAAACQW0xZWQAomS6gdwp8bLpdmM7tubSkoy1+D8kDAAAAAACJAkAMpxtvDHvmLvh3k9dIat/34+ricsWsKHva6UYBIAAAAAAAQI4JpeKsbJj5a+mdgndROjcWSF8gcgAAAAAAsA8FgBh23fMWPtyze9wsk39DUvKckqnZNuwpAAQAAAAAAMg9e7O0XbMqai4YS/cUpsnVc06TdHK6tsfsfwAAAAAA4PkoAERqvPfne7vnLfyEeXBeVXF5Iotatv3+2trH6CAAAAAAAIDcYtLuLG1a1JN7L6KHClNEaZ0B0iMefJzUAQAAAADA/igAREp1X/mn5pKgeEMWNWnpjWYhPQMAAAAAAJBzns7alpmupnsKk7u/K33b0s/Xti9eQuoAAAAAAGB/FAAiDawzixrD8r8AAAAAAAC5yLUpi1t3QfmM2ml0UmEpq6k7V1Jlmja3wyP2b6QOAAAAAACejwJApJ6FWVMAaAopAAQAAAAAAMhBJu/K5uZZEFxHLxXYmAz9qjRu7bPrWpo2kToAAAAAAHg+CgCRch4qWwoAw2DEwIP0CAAAAAAAQO4JFTyWze1z8/dU1Fwwlp4qDFPPPXeMZG9J0+baO6ce/11SBwAAAAAAB0IBIFLOTB1Z0pR/XHjWhdvpEQAAAAAAgNxjYfhYljdxnJJ7P0NPFYZEf+zDkkalYVPJUOEHNH9+ktQBAAAAAMCBUACIlHPz7JgB0PUAvQEAAAAAAJCbOlc0r5bUnc1tdNOHp1TPmkpv5bdTahqONvm/pmVj5l9b17ZkKakDAAAAAIAXQwEgUi7sz44CQAu0jN4AAAAAAADIWS6zbL+/EwvDyFfoqvzWnxz4jKQxqd6OSa2lfT1fJHEAAAAAAPBSKABEyl3S0PC0pD2Zbod5QAEgAAAAAABADnNXc9Y30jS3vLL2QnorP1XU1E0ys/enYVN7kha8Y+XKlf2kDgAAAAAAXgoFgEg5M3O51mW4GX2JHTsepjcAAAAAAABylyv5txxopsnsV+VnnHscPZaHY9D1XUkj0jCKPrGudfFjJA4AAAAAAF4OBYBICzNldhlg1/JLLrmkj54AAAAAAADIXeumnvSgpO4caOpxihX9RJLRa/mjvKr2fXK9LtXbMemuztb4d0kcAAAAAAAcDAoAkRYuy2wBoBnL/wIAAAAAAOS6+fOTLt2VE211va6ssu56Oi0/lFfNnizZN1M/bLS2vz/5jsH/BAAAAAAAeHkUACI9PMxoAaAppAAQAAAAAAAgH7jdmitNNdM3yqrrX0On5bzAZT+VNCa1Y1s7I8nw8g0rl24jcgAAAAAAcLAoAERauIKOjA70iB6kFwAAAAAAAHJfdNeouyVtz5HmFpn7nyZXzZ5Fz+Wu8qq6b5jsVSnejEt639oVSx4hcQAAAAAAcCgoAERaRIIgkzMA7mx+5ZxV9AIAAAAAAEDuW7Pmrj6Zbs2hJpcGChZMqZ41ld7LPWXVtddK+miqt+OuL3a2x+eTOAAAAAAAOFQUACItrHhPJgsAW240C+kFAAAAAACA/GBh+KMca/KxYRj5S3nV7Mn0Xu4onzn7InP7n1Rvx6U/dbXHv0TiAAAAAADgcFAAiLS48KwLt0vqzsjGzVroAQAAAAAAgPzR0b5kmczbcqrRpgopiE+qqj+dHsx+k2vqqxUEt0qKpnhTTYkRyXdocAlgAAAAAACAQ0YBINLHlJFZAM3DNsIHAAAAAADILx7q2znY7IkReXxK5ZzZ9GD2qqicfXYQ+t8kjU3xplYkE7psw9KlvaQOAAAAAAAOFwWASB/PTAFgEFEr4QMAAAAAAOSXoyJ7fyNpQw42fXxo4V/KZ86+iF7MPuWVtRe6BfdJmpDiTa0OkuGF6x+Od5M6AAAAAAA4EhQAIm1M6sjAZvd0P/H0atIHAAAAAADILy0tLQMm/XeONn+UguCOssq6G+jJ7FFWWX+5zG6XNDLFm9oghRetXbFkM6kDAAAAAIAjRQEg0iczSwAvnzdvXpLwAQAAAAAA8s/eoPf7kjblaPOjZvpWeVXdL0+sqSmlNzMqKK+q/ZyZ/0FScYq39UxowUWdbUvWETsAAAAAABgOFAAibTy0DBQAGsv/AgAAAAAA5KmNLS17zPXvOb4b7ywOS1omz5xTRY+m3yk1DUdXVNX9WbIvSYqkeHNPWRC8el3r4sdIHgAAAAAADBcKAJE2bukvAHSFbSQPAAAAAACQv0oGun/s0toc341TgyBcUlFd/xFxzzZtplTOmT0QJtpcujj1W/OuSBDWdbQsfpjkAQAAAADAcOJmEtJmxMDAOklhOrdpoVEACAAAAAAAkMdWrlzZb6aP5MGujHD3b5ZX1i2pqJlzJj2bOsfNuGhkRVXdV0MLGyVNTMMm/xFJFtWvaVmylvQBAAAAAMBwowAQaXP++efvlfRUGjfZH+7atZLkAQAAAAAA8ltna/x2me7Ii50xneth2FJeXfv1ipoLxtK7w6ussv6y0sieR136pKSiNGyyPUiG561Z0biB9AEAAAAAQCpQAIi0cimNywD7o5dcckkfqQMAAAAAAOS/iIU3SNqTJ7tTJLePe7h3dXl13TUNDQ1RevjITJ4xp7y8su52M18gaVJaNuqKJxN61doVSzbTAwAAAAAAIFUoAERamWl9GrfWTuIAAAAAAACFYU3LkrXu+kye7daxcv1g3faBxykEPDzlVbMnl1fVfTuIhCtlujRd2zXpdwMlyYvWPxzvphcAAAAAAEAqUQCINPM0FgBqOXkDAAAAAAAUjq72+Hck/V/+7ZmVDRYCJh+rqKp//4k1NaX09ksrn1E7raK69mdS8Lik6yWVpGnTobl/pqMt/tYNS5f20hMAAAAAACDVKABEeoV6Il2b8lAPEzgAAAAAAEBBCcNk8F5JPfm5ez7V5d8tDkueKKuq+8+pNbOn0OXPYeVVc+aUV9X/ThF71N3eI6kojdvfHZre3NHe/J90BQAAAAAASBcjAqTTX5qaXu/mi9IyuC1y3GtqazeTOgAAAAAAQGEpq6y/3Mz/pPy//+mSFkv6aWyP37ZqVfPOQuzvSWfXVUSTepeHeqdMFRlqxoYwDN6wbvniNo5AAAAAAACQThQAIq3ubmqaKfP21G/Jn35t3XnHkzgAAAAAAEBhKq+qu0nSRwtol/dK/hdzzU8k7c71D8e783lny85uON4SA6+T9C7J6pXZe933ejT6jq5ljU9x5AEAAAAAgHSLEgHSKSGtT8+gC1aQNgAAAAAAQOGaEPR+altYMkPSBQWyyyMku8xNl0WiSpZV1T1g8rtD+T1HB30PtbS0DOTyzk2cNaukaI/VKxK5UO4XKZE4U7JMP+CelPyLnW3NX5EUctQBAAAAAIBMYAZApN3d8cXbJY1J6UZc33xt/Zx/JW0AAAAAAIDCVVbZMM4ssUTSaQUexR5JyyQ1Sbbcg8QjZaOL1zQ2NiayuO/KpGSl5DMtsNlyr5dUki3tM+lJV/C2zrbFiznSAAAAAABAJjEDIDLhCUnTU7kBD/QwMQMAAAAAABS2rvbGnkln110aSWippGMLOIpSSecN/s9lYUTrtif6yqvqHpPZSnd/ODCtDJLeGUSLnl7d0rglHY0qa2gYEd3Zf1LS7URze4VMM9w1U1KllBj37D90z6owXXZnURB5d7pyAgAAAAAAeCkUACIDfL1kKS0AtKRYAhgAAAAAAABavyzeUV5Vd5Gk+ySNJ5FnFUuqlHulabDGLhmYkmFC5VV1/ZKelvSkZJtN2hi6PyXTXkm9ZtrrofWbfLcFnpTbjn0v6vJSuRVboFEuFck12qWomY+R7BhJJ8p1sqQTtT1xdFLB0O/t+39Zrdekz3a2Nf13TrQWAAAAAAAUBAoAkXamYL2n9v5Yckc0+hhJAwAAAAAAQJI62+LLy2rqLrak/ibTaBJ5WTFJJw/+b/BOntl+f+uS2eD9PXd73q+aZM+dtM8k6QX/Lre4tERB8n2dLUv/wfAAAAAAAADZJCACpJ3piRRv4PF5s2f3EjQAAAAAAAD26WqJP2ARXSJpO2ngEOx26Yautnh9F8V/AAAAAAAgC1EAiLTzUOtTvIWVpAwAAAAAAIDn62iJx4NkWCdpI2ngZbniFqq6qy1+s6SQQAAAAAAAQDaiABBpF7qnuABQFAACAAAAAADggNauWPKIhTpf0jrSwIvY5ubXdbbH53Qsj68mDgAAAAAAkM0oAETaRVJcAOimx0gZAAAAAAAAL6ZjeXx1URA9S1IjaWA/oaRfBcnwtK7W5h9IciIBAAAAAADZjgJApN1RI0dukJRM2QaSepSUAQAAAAAA8FJWtzRuKe3vfo2kn5AGJF8sqbqzLf6utSuWbCYPAAAAAACQK4wIkAl3xxc/KenEFLx0ckcQHT1v9uxeUgYAAAAAAMDBKK+uu0aub0kqIY2C84Sbf7yrtfn3RAEAAAAAAHIRMwAiI0wpWgbY1EHxHwAAAAAAAA5FZ2v8h0EyPMfEyhIFZLvLvtAX9J5K8R8AAAAAAMhlFAAiI1zB+hS9MDdpAQAAAAAAcMjWrljyyN6g92yXvifJSSRv7XbpqwP9yYqutqYvbWxp2UMkAAAAAAAgl0WJAJng8vWWkte1x0gXAAAAAAAAh2OoGOwDFTV1v/HQfib5VFLJG/1y/TyM2I3rWpo2EQcAAAAAAMgXzACIzDB7IiUv66IAEAAAAAAAAEekoyUej+0Jq+W6RVKSRHJav8m+H0lGp3S2x6+l+A8AAAAAAOQbZgBERgRJX+8pKD8NzFgCGAAAAAAAAEds1armnZI+WFY5+8ey4BaTZpNKTtkh6ecW6KaOlqb1xAEAAAAAAPIVBYDICJdScdPNiwYG/kG6AAAAAAAAGC5d7UvaJdWXV9W+V7IvSTqRVLLa4zJ9e0+i9OdPr/jrbuIAAAAAAAD5jiWAkREDyWQqCgCfOP/883eRLgAAAAAAAIZZ2NnW/JO+oPcVLn1KUg+RZJ1mueZ1Tj3htM7W+C0U/wEAAAAAgEJhRIBMuTu+eJekkcP2gq57X1s/5wKSBQAAAAAAQCqdUtNwdH+Y/KjJ/5+kMSSSMU/J7H8jyfDna5Y3ryQOAAAAAABQiJgBEBlkTwzvy+lxMgUAAAAAAECqrW5p3NLV1vQZ9+hkmT4r6RlSSZt+l/5kptdPHhs9ubO16eMU/wEAAAAAgEIWJQJkjPuTMp06XC9n0mpCBQAAAAAAQLp0tTf2SPpKWUPDTcGOxFvd9f8k1ZDMsHNJy1z6dSyI/mZ1S+MWSeogFwAAAAAAAAoAkUGBNsqH7+XcKAAEAAAAAABA+nU1Nu6V9DNJPyurrn2luV0laa5YHvhIDEhqNNeCfk8u3LB86ZNEAgAAAAAA8EIUACKDfKNkw/ZqQcIpAAQAAAAAAEBGdbU23y/p/omzZn0otjdyuaR3uvRqSTHSeVm7JP+LLFiQHPA71j8c7yYSAAAAAACAl0YBIDIn1KZhrP9LTBg5sotQAQAAAAAAkA02LF3aK+m3kn5bUXPBWCV7L3XTFZK9VtJIEpIk9UpaItN9QRjcd/K44MHGxsYEsQAAAAAAABw8CgCRMa5gow3fGsAdZ5111gCpAgAAAAAAINt0tNyzXdKvJf16+vTpsd1F42ebdIFMF0qqkRQpkCi2m6lV0uLQ7b7ozlH3r1lzV9++v1zLUAEAAAAAADhkFAAiYyLuG8PhmgHQxPK/AAAAAAAAyHorV67sl9Q49L/PTptWO3qgNDjHFc52Ba80+TmSjs6DXd0is1Z3bzVXaxAk29a2Ll0rDd8TwQAAAAAAAKAAEBmULEo+aclherg5pAAQAAAAAAAAuWfVquadku4d+p8k6eSq2hMjZjPkmmnSdLlOkdlUyY/KsubvlrTWXGs98DUurQ3c1lo0WLV22eIn6F0AAAAAAIDUowAQGePdvZtszCiXdMTzAFqgNSQKAAAAAACAfPBEW/NGSRsl3b3/zydOnzUhVmRTQkVOMtPJJj/JpRMlHSvpKMmPlttRMo0+iM24pJ6h/+6Ta48kybRL0oBLfSZtddeWQHrGTZvdfUugYEsY8S0Kouu6ljU+RW8BAAAAAABklhEBMunu+OJnNAxLmpjCi15T1/A3EgUAAAAAAACkssqGcWEyYR71EovaiOhAELEgHCNJiaSPiQQW6WiL3yuW5AUAAAAAAMhpzACITNuoYSgATFpRB1ECAAAAAAAAg7raG3uG/rObNAAAAAAAAPJXQATIsI3D8BrJY4uL1xMlAAAAAAAAAAAAAAAAgEJCASAyy3w4CgDXn3XWWQOECQAAAAAAAAAAAAAAAKCQUACIjDIFR14A6GL5XwAAAAAAAAAAAAAAAAAFhwJAZFQYatMwvAwFgAAAAAAAAAAAAAAAAAAKDgWAyOwA9CNfAthNnSQJAAAAAAAAAAAAAAAAoNBQAIiMCiPhk0c+iJ0ZAAEAAAAAAAAAAAAAAAAUHAoAkVEJix3xDIChUQAIAAAAAAAAAAAAAAAAoPBQAIiM6t2w4SlJySN5jaJoggJAAAAAAAAAAAAAAAAAAAXHiACZdnd88UZJJxzmr+94bd2csaQIAAAAAAAAAAAAAAAAoNAwAyCywWEvA2zSOuIDAAAAAAAAAAAAAAAAUIgoAETGufywCwDdKAAEAAAAAAAAAAAAAAAAUJgoAEQWDMLgCGYA9PUkCAAAAAAAAAAAAAAAAKAQUQCIzDNtOuzfdT1BgAAAAAAAAAAAAAAAAAAKEQWAyDh3f/Kwf1diBkAAAAAAAAAAAAAAAAAABYkCQGScyzce/u9GKAAEAAAAAAAAAAAAAAAAUJAoAETGRSx62AWAUWYABAAAAAAAAAAAAAAAAFCgKABExrl0uAWAiejAwEYSBAAAAAAAAAAAAAAAAFCIKABExl00e/YzkvoP41efPP/88xMkCAAAAAAAAAAAAAAAAKAQUQCIjDMzl/TUYfwmy/8CAAAAAAAAAAAAAAAAKFhRIkA2cNMXLLTjDul3pNUkBwAAAAAAAAAAAAAAAAAAAAAAAAAAAAAAAAAAAAAAAAAAAAAAAAAAAAAAAAAAAAAAAAAAAAAAAAAAAAAAAAAAAAAAAAAAAAAAAAAAAAAAAAAAAAAAAAAAAAAAAAAAAAAAAAAAAAAAAAAAAAAAAAAAAAAAAAAAAAAAAAAAAAAAAAAAAAAAAAAAAAAAAAAAAAAAAAAAAAAAAAAAAAAAAAAAAAAAAAAAAAAAAAAAAAAAAAAAkLX+P3TgQl6ne8SdAAAAJXRFWHRkYXRlOmNyZWF0ZQAyMDI0LTA3LTEzVDEwOjU0OjQ1KzAwOjAwh6zNGwAAACV0RVh0ZGF0ZTptb2RpZnkAMjAyNC0wNy0xM1QxMDo1NDo0NSswMDowMPbxdacAAAAASUVORK5CYII=;" vertex="1" parent="1">
          <mxGeometry x="430" y="430" width="148.19" height="40" as="geometry" />
        </mxCell>
        <mxCell id="a-qKe-hOCMTop-cz09pO-2" value="porta 27017" style="text;html=1;align=center;verticalAlign=middle;resizable=0;points=[];autosize=1;strokeColor=none;fillColor=none;" vertex="1" parent="1">
          <mxGeometry x="480" y="470" width="90" height="30" as="geometry" />
        </mxCell>
      </root>
    </mxGraphModel>
  </diagram>
</mxfile>
